<svg version="1.1" xmlns="http://www.w3.org/2000/svg" xmlns:xlink="http://www.w3.org/1999/xlink" width="912.1181640625" height="531"><defs/><g><g transform="translate(-30,-22) scale(1,1)"><rect fill="#C0C0C0" stroke="none" x="231" y="39" width="559" height="511" opacity="0.2"/></g><g transform="translate(-30,-22) scale(1,1)"><rect fill="#ffffff" stroke="none" x="224" y="32" width="559" height="511"/></g><g transform="translate(-30,-22) scale(1,1)"><path fill="none" stroke="#000000" d="M 224 32 L 783 32 L 783 543 L 224 543 L 224 32 Z Z" stroke-miterlimit="10"/></g><g transform="translate(-30,-22) scale(1,1)"><g><path fill="none" stroke="none"/><text fill="#000000" stroke="none" font-family="Arial" font-size="13px" font-style="normal" font-weight="bold" text-decoration="none" x="358.325927734375" y="50">Nhiệm vụ của actor "Người chưa có tài khoản"</text></g></g><g transform="translate(-30,-22) scale(1,1)"><path fill="#ffffff" stroke="none" d="M 113.06218235085228 393.68 C 113.06218235085228 388.886167936 116.94802467579774 385 121.741455078125 385 C 126.53488548045226 385 130.42072780539772 388.886167936 130.42072780539772 393.68 C 130.42072780539772 398.473832064 126.53488548045226 402.36 121.741455078125 402.36 C 116.94802467579774 402.36 113.06218235085228 398.473832064 113.06218235085228 393.68 Z"/></g><g transform="translate(-30,-22) scale(1,1)"><path fill="none" stroke="#000000" d="M 113.06218235085228 393.68 C 113.06218235085228 388.886167936 116.94802467579774 385 121.741455078125 385 C 126.53488548045226 385 130.42072780539772 388.886167936 130.42072780539772 393.68 C 130.42072780539772 398.473832064 126.53488548045226 402.36 121.741455078125 402.36 C 116.94802467579774 402.36 113.06218235085228 398.473832064 113.06218235085228 393.68 Z" stroke-miterlimit="10"/></g><g transform="translate(-30,-22) scale(1,1)"><path fill="none" stroke="#000000" d="M 121.741455078125 402.36 L 121.741455078125 419.64" stroke-miterlimit="10"/></g><g transform="translate(-30,-22) scale(1,1)"><path fill="none" stroke="#000000" d="M 112.55163689630683 408.84 L 130.93127325994317 408.84" stroke-miterlimit="10"/></g><g transform="translate(-30,-22) scale(1,1)"><path fill="none" stroke="#000000" d="M 121.741455078125 419.64 L 108.97781871448865 437" stroke-miterlimit="10"/></g><g transform="translate(-30,-22) scale(1,1)"><path fill="none" stroke="#000000" d="M 121.741455078125 419.64 L 134.50509144176135 437" stroke-miterlimit="10"/></g><g transform="translate(-30,-22) scale(1,1)"><g><path fill="none" stroke="none"/><text fill="#000000" stroke="none" font-family="Arial" font-size="13px" font-style="normal" font-weight="bold" text-decoration="none" x="44.5" y="456">Người chưa có tài khoản</text></g></g><g transform="translate(-30,-22) scale(1,1)"><path fill="#ffffff" stroke="none" d="M 113.30681125710228 257.68 C 113.30681125710228 252.886167936 117.19265358204774 249 121.986083984375 249 C 126.77951438670226 249 130.66535671164772 252.886167936 130.66535671164772 257.68 C 130.66535671164772 262.473832064 126.77951438670226 266.36 121.986083984375 266.36 C 117.19265358204774 266.36 113.30681125710228 262.473832064 113.30681125710228 257.68 Z"/></g><g transform="translate(-30,-22) scale(1,1)"><path fill="none" stroke="#000000" d="M 113.30681125710228 257.68 C 113.30681125710228 252.886167936 117.19265358204774 249 121.986083984375 249 C 126.77951438670226 249 130.66535671164772 252.886167936 130.66535671164772 257.68 C 130.66535671164772 262.473832064 126.77951438670226 266.36 121.986083984375 266.36 C 117.19265358204774 266.36 113.30681125710228 262.473832064 113.30681125710228 257.68 Z" stroke-miterlimit="10"/></g><g transform="translate(-30,-22) scale(1,1)"><path fill="none" stroke="#000000" d="M 121.986083984375 266.36 L 121.986083984375 283.64" stroke-miterlimit="10"/></g><g transform="translate(-30,-22) scale(1,1)"><path fill="none" stroke="#000000" d="M 112.79626580255683 272.84 L 131.17590216619317 272.84" stroke-miterlimit="10"/></g><g transform="translate(-30,-22) scale(1,1)"><path fill="none" stroke="#000000" d="M 121.986083984375 283.64 L 109.22244762073865 301" stroke-miterlimit="10"/></g><g transform="translate(-30,-22) scale(1,1)"><path fill="none" stroke="#000000" d="M 121.986083984375 283.64 L 134.74972034801135 301" stroke-miterlimit="10"/></g><g transform="translate(-30,-22) scale(1,1)"><g><path fill="none" stroke="none"/><text fill="#000000" stroke="none" font-family="Arial" font-size="13px" font-style="normal" font-weight="bold" text-decoration="none" x="84.5" y="320">Người dùng</text></g></g><g transform="translate(-30,-22) scale(1,1)"><path fill="#C0C0C0" stroke="none" d="M 439 128 C 439 118.6111584 470.1162064 111 508.5 111 C 546.8837936 111 578 118.6111584 578 128 C 578 137.3888416 546.8837936 145 508.5 145 C 470.1162064 145 439 137.3888416 439 128 Z" opacity="0.2"/></g><g transform="translate(-30,-22) scale(1,1)"><path fill="#ffffff" stroke="none" d="M 432 121 C 432 111.6111584 463.1162064 104 501.5 104 C 539.8837936 104 571 111.6111584 571 121 C 571 130.3888416 539.8837936 138 501.5 138 C 463.1162064 138 432 130.3888416 432 121 Z"/></g><g transform="translate(-30,-22) scale(1,1)"><path fill="none" stroke="#000000" d="M 432 121 C 432 111.6111584 463.1162064 104 501.5 104 C 539.8837936 104 571 111.6111584 571 121 C 571 130.3888416 539.8837936 138 501.5 138 C 463.1162064 138 432 130.3888416 432 121 Z" stroke-miterlimit="10"/></g><g transform="translate(-30,-22) scale(1,1)"><g><path fill="none" stroke="none"/><text fill="#000000" stroke="none" font-family="Arial" font-size="13px" font-style="normal" font-weight="bold" text-decoration="none" x="456.701416015625" y="127">Tìm kiếm sách</text></g></g><g transform="translate(-30,-22) scale(1,1)"><path fill="#C0C0C0" stroke="none" d="M 431 240 C 431 230.6111584 463.45935199999997 223 503.5 223 C 543.540648 223 576 230.6111584 576 240 C 576 249.3888416 543.540648 257 503.5 257 C 463.45935199999997 257 431 249.3888416 431 240 Z" opacity="0.2"/></g><g transform="translate(-30,-22) scale(1,1)"><path fill="#ffffff" stroke="none" d="M 424 233 C 424 223.6111584 456.45935199999997 216 496.5 216 C 536.540648 216 569 223.6111584 569 233 C 569 242.3888416 536.540648 250 496.5 250 C 456.45935199999997 250 424 242.3888416 424 233 Z"/></g><g transform="translate(-30,-22) scale(1,1)"><path fill="none" stroke="#000000" d="M 424 233 C 424 223.6111584 456.45935199999997 216 496.5 216 C 536.540648 216 569 223.6111584 569 233 C 569 242.3888416 536.540648 250 496.5 250 C 456.45935199999997 250 424 242.3888416 424 233 Z" stroke-miterlimit="10"/></g><g transform="translate(-30,-22) scale(1,1)"><g><path fill="none" stroke="none"/><text fill="#000000" stroke="none" font-family="Arial" font-size="13px" font-style="normal" font-weight="bold" text-decoration="none" x="449.54638671875" y="239">Quên mật khẩu</text></g></g><g transform="translate(-30,-22) scale(1,1)"><path fill="#C0C0C0" stroke="none" d="M 423 368 C 423 358.6111584 456.8024976 351 498.5 351 C 540.1975024 351 574 358.6111584 574 368 C 574 377.3888416 540.1975024 385 498.5 385 C 456.8024976 385 423 377.3888416 423 368 Z" opacity="0.2"/></g><g transform="translate(-30,-22) scale(1,1)"><path fill="#ffffff" stroke="none" d="M 416 361 C 416 351.6111584 449.8024976 344 491.5 344 C 533.1975024 344 567 351.6111584 567 361 C 567 370.3888416 533.1975024 378 491.5 378 C 449.8024976 378 416 370.3888416 416 361 Z"/></g><g transform="translate(-30,-22) scale(1,1)"><path fill="none" stroke="#000000" d="M 416 361 C 416 351.6111584 449.8024976 344 491.5 344 C 533.1975024 344 567 351.6111584 567 361 C 567 370.3888416 533.1975024 378 491.5 378 C 449.8024976 378 416 370.3888416 416 361 Z" stroke-miterlimit="10"/></g><g transform="translate(-30,-22) scale(1,1)"><g><path fill="none" stroke="none"/><text fill="#000000" stroke="none" font-family="Arial" font-size="13px" font-style="normal" font-weight="bold" text-decoration="none" x="442.470703125" y="367.5">Hệ thống hỗ trợ</text></g></g><g transform="translate(-30,-22) scale(1,1)"><path fill="#C0C0C0" stroke="none" d="M 623 288 C 623 278.6111584 645.6096176 271 673.5 271 C 701.3903824 271 724 278.6111584 724 288 C 724 297.3888416 701.3903824 305 673.5 305 C 645.6096176 305 623 297.3888416 623 288 Z" opacity="0.2"/></g><g transform="translate(-30,-22) scale(1,1)"><path fill="#ffffff" stroke="none" d="M 616 281 C 616 271.6111584 638.6096176 264 666.5 264 C 694.3903824 264 717 271.6111584 717 281 C 717 290.3888416 694.3903824 298 666.5 298 C 638.6096176 298 616 290.3888416 616 281 Z"/></g><g transform="translate(-30,-22) scale(1,1)"><path fill="none" stroke="#000000" d="M 616 281 C 616 271.6111584 638.6096176 264 666.5 264 C 694.3903824 264 717 271.6111584 717 281 C 717 290.3888416 694.3903824 298 666.5 298 C 638.6096176 298 616 290.3888416 616 281 Z" stroke-miterlimit="10"/></g><g transform="translate(-30,-22) scale(1,1)"><g><path fill="none" stroke="none"/><text fill="#000000" stroke="none" font-family="Arial" font-size="13px" font-style="normal" font-weight="bold" text-decoration="none" x="640.5" y="286.5">Gọi điện</text></g></g><g transform="translate(-30,-22) scale(1,1)"><path fill="#C0C0C0" stroke="none" d="M 631 360 C 631 350.6111584 653.6096176 343 681.5 343 C 709.3903824 343 732 350.6111584 732 360 C 732 369.3888416 709.3903824 377 681.5 377 C 653.6096176 377 631 369.3888416 631 360 Z" opacity="0.2"/></g><g transform="translate(-30,-22) scale(1,1)"><path fill="#ffffff" stroke="none" d="M 624 353 C 624 343.6111584 646.6096176 336 674.5 336 C 702.3903824 336 725 343.6111584 725 353 C 725 362.3888416 702.3903824 370 674.5 370 C 646.6096176 370 624 362.3888416 624 353 Z"/></g><g transform="translate(-30,-22) scale(1,1)"><path fill="none" stroke="#000000" d="M 624 353 C 624 343.6111584 646.6096176 336 674.5 336 C 702.3903824 336 725 343.6111584 725 353 C 725 362.3888416 702.3903824 370 674.5 370 C 646.6096176 370 624 362.3888416 624 353 Z" stroke-miterlimit="10"/></g><g transform="translate(-30,-22) scale(1,1)"><g><path fill="none" stroke="none"/><text fill="#000000" stroke="none" font-family="Arial" font-size="13px" font-style="normal" font-weight="bold" text-decoration="none" x="648.503173828125" y="359.5">Nhắn tin</text></g></g><g transform="translate(-30,-22) scale(1,1)"><path fill="#C0C0C0" stroke="none" d="M 631 440 C 631 430.6111584 653.6096176 423 681.5 423 C 709.3903824 423 732 430.6111584 732 440 C 732 449.3888416 709.3903824 457 681.5 457 C 653.6096176 457 631 449.3888416 631 440 Z" opacity="0.2"/></g><g transform="translate(-30,-22) scale(1,1)"><path fill="#ffffff" stroke="none" d="M 624 433 C 624 423.6111584 646.6096176 416 674.5 416 C 702.3903824 416 725 423.6111584 725 433 C 725 442.3888416 702.3903824 450 674.5 450 C 646.6096176 450 624 442.3888416 624 433 Z"/></g><g transform="translate(-30,-22) scale(1,1)"><path fill="none" stroke="#000000" d="M 624 433 C 624 423.6111584 646.6096176 416 674.5 416 C 702.3903824 416 725 423.6111584 725 433 C 725 442.3888416 702.3903824 450 674.5 450 C 646.6096176 450 624 442.3888416 624 433 Z" stroke-miterlimit="10"/></g><g transform="translate(-30,-22) scale(1,1)"><g><path fill="none" stroke="none"/><text fill="#000000" stroke="none" font-family="Arial" font-size="13px" font-style="normal" font-weight="bold" text-decoration="none" x="652.4736328125" y="439">Bản đồ</text></g></g><g transform="translate(-30,-22) scale(1,1)"><path fill="#ffffff" stroke="none" d="M 882.9293698508523 281.68 C 882.9293698508523 276.886167936 886.8152121757977 273 891.608642578125 273 C 896.4020729804523 273 900.2879153053977 276.886167936 900.2879153053977 281.68 C 900.2879153053977 286.473832064 896.4020729804523 290.36 891.608642578125 290.36 C 886.8152121757977 290.36 882.9293698508523 286.473832064 882.9293698508523 281.68 Z"/></g><g transform="translate(-30,-22) scale(1,1)"><path fill="none" stroke="#000000" d="M 882.9293698508523 281.68 C 882.9293698508523 276.886167936 886.8152121757977 273 891.608642578125 273 C 896.4020729804523 273 900.2879153053977 276.886167936 900.2879153053977 281.68 C 900.2879153053977 286.473832064 896.4020729804523 290.36 891.608642578125 290.36 C 886.8152121757977 290.36 882.9293698508523 286.473832064 882.9293698508523 281.68 Z" stroke-miterlimit="10"/></g><g transform="translate(-30,-22) scale(1,1)"><path fill="none" stroke="#000000" d="M 891.608642578125 290.36 L 891.608642578125 307.64" stroke-miterlimit="10"/></g><g transform="translate(-30,-22) scale(1,1)"><path fill="none" stroke="#000000" d="M 882.4188243963068 296.84 L 900.7984607599432 296.84" stroke-miterlimit="10"/></g><g transform="translate(-30,-22) scale(1,1)"><path fill="none" stroke="#000000" d="M 891.608642578125 307.64 L 878.8450062144886 325" stroke-miterlimit="10"/></g><g transform="translate(-30,-22) scale(1,1)"><path fill="none" stroke="#000000" d="M 891.608642578125 307.64 L 904.3722789417614 325" stroke-miterlimit="10"/></g><g transform="translate(-30,-22) scale(1,1)"><g><path fill="none" stroke="none"/><text fill="#000000" stroke="none" font-family="Arial" font-size="13px" font-style="normal" font-weight="bold" text-decoration="none" x="868.5" y="344.5">Thiết bị</text></g></g><g transform="translate(-30,-22) scale(1,1)"><path fill="#ffffff" stroke="none" d="M 881.3798093039773 409.68 C 881.3798093039773 404.886167936 885.2656516289227 401 890.05908203125 401 C 894.8525124335773 401 898.7383547585227 404.886167936 898.7383547585227 409.68 C 898.7383547585227 414.473832064 894.8525124335773 418.36 890.05908203125 418.36 C 885.2656516289227 418.36 881.3798093039773 414.473832064 881.3798093039773 409.68 Z"/></g><g transform="translate(-30,-22) scale(1,1)"><path fill="none" stroke="#000000" d="M 881.3798093039773 409.68 C 881.3798093039773 404.886167936 885.2656516289227 401 890.05908203125 401 C 894.8525124335773 401 898.7383547585227 404.886167936 898.7383547585227 409.68 C 898.7383547585227 414.473832064 894.8525124335773 418.36 890.05908203125 418.36 C 885.2656516289227 418.36 881.3798093039773 414.473832064 881.3798093039773 409.68 Z" stroke-miterlimit="10"/></g><g transform="translate(-30,-22) scale(1,1)"><path fill="none" stroke="#000000" d="M 890.05908203125 418.36 L 890.05908203125 435.64" stroke-miterlimit="10"/></g><g transform="translate(-30,-22) scale(1,1)"><path fill="none" stroke="#000000" d="M 880.8692638494318 424.84 L 899.2489002130682 424.84" stroke-miterlimit="10"/></g><g transform="translate(-30,-22) scale(1,1)"><path fill="none" stroke="#000000" d="M 890.05908203125 435.64 L 877.2954456676136 453" stroke-miterlimit="10"/></g><g transform="translate(-30,-22) scale(1,1)"><path fill="none" stroke="#000000" d="M 890.05908203125 435.64 L 902.8227183948864 453" stroke-miterlimit="10"/></g><g transform="translate(-30,-22) scale(1,1)"><g><path fill="none" stroke="none"/><text fill="#000000" stroke="none" font-family="Arial" font-size="13px" font-style="normal" font-weight="bold" text-decoration="none" x="852.5" y="472">Google map</text></g></g><g transform="translate(-30,-22) scale(1,1)"><path fill="none" stroke="#000000" d="M 718 288 L 863 307" stroke-miterlimit="10"/></g><g transform="translate(-30,-22) scale(1,1)"><path fill="none" stroke="#000000" d="M 726 343 L 863 316" stroke-miterlimit="10"/></g><g transform="translate(-30,-22) scale(1,1)"><path fill="none" stroke="#000000" d="M 726 434 L 847 438" stroke-miterlimit="10"/></g><g transform="translate(-30,-22) scale(1,1)"><path fill="none" stroke="#000000" d="M 121 383 L 121 328" stroke-miterlimit="10"/></g><g transform="translate(-30,-22) scale(1,1)"><path fill="#FFFFFF" stroke="none" d="M 129.41903551203197 348.3253497152483 L 121 328 L 112.58096448796803 348.3253497152483"/></g><g transform="translate(-30,-22) scale(1,1)"><path fill="none" stroke="#000000" d="M 129.41903551203197 348.3253497152483 L 121 328 L 112.58096448796803 348.3253497152483 L 129.41903551203197 348.3253497152483" stroke-miterlimit="10"/></g><g transform="translate(-30,-22) scale(1,1)"><path fill="none" stroke="#000000" d="M 204 409 L 415 374" stroke-miterlimit="10"/></g><g transform="translate(-30,-22) scale(1,1)"><path fill="none" stroke="#000000" d="M 200 383 L 460 251" stroke-miterlimit="10"/></g><g transform="translate(-30,-22) scale(1,1)"><path fill="none" stroke="#000000" d="M 171 383 L 478 139" stroke-miterlimit="10"/></g><g transform="translate(-30,-22) scale(1,1)"><path fill="none" stroke="#000000" d="M 627 299 L 530 343" stroke-miterlimit="10" stroke-dasharray="3"/></g><g transform="translate(-30,-22) scale(1,1)"><path fill="none" stroke="#000000" d="M 537.5160905828907 334.9682889525468 L 530 343 L 540.9939559653594 342.63540127298927" stroke-miterlimit="10"/></g><g transform="translate(-30,-22) scale(1,1)"><g><path fill="none" stroke="none"/><text fill="#000000" stroke="none" font-family="Arial" font-size="13px" font-style="normal" font-weight="normal" text-decoration="none" x="541.5" y="303">«include»</text></g></g><g transform="translate(-30,-22) scale(1,1)"><path fill="none" stroke="#000000" d="M 623 355 L 568 358" stroke-miterlimit="10" stroke-dasharray="3"/></g><g transform="translate(-30,-22) scale(1,1)"><path fill="none" stroke="#000000" d="M 577.9183212289038 353.2432254625348 L 568 358 L 578.3768597309615 361.6497646669271" stroke-miterlimit="10"/></g><g transform="translate(-30,-22) scale(1,1)"><g><path fill="none" stroke="none"/><text fill="#000000" stroke="none" font-family="Arial" font-size="13px" font-style="normal" font-weight="normal" text-decoration="none" x="562.5" y="347">«include»</text></g></g><g transform="translate(-30,-22) scale(1,1)"><path fill="none" stroke="#000000" d="M 628 415 L 537 379" stroke-miterlimit="10" stroke-dasharray="3"/></g><g transform="translate(-30,-22) scale(1,1)"><path fill="none" stroke="#000000" d="M 547.9985941846309 378.8241422114194 L 537 379 L 544.9015307663012 386.6528302966416" stroke-miterlimit="10"/></g><g transform="translate(-30,-22) scale(1,1)"><g><path fill="none" stroke="none"/><text fill="#000000" stroke="none" font-family="Arial" font-size="13px" font-style="normal" font-weight="normal" text-decoration="none" x="529.5" y="409">«include»</text></g></g></g></svg>