<svg version="1.1" xmlns="http://www.w3.org/2000/svg" xmlns:xlink="http://www.w3.org/1999/xlink" width="964" height="948"><defs/><g><g transform="translate(-22,-6) scale(1,1)"><path fill="none" stroke="#000000" d="M 32 16 L 976 16 L 976 944 L 32 944 L 32 16" stroke-miterlimit="10"/></g><g transform="translate(-22,-6) scale(1,1)"><path fill="#ffffff" stroke="none" d="M 32 16 L 32 38 L 179.39013671875 38 L 190.39013671875 27 L 190.39013671875 16 L 32 16"/></g><g transform="translate(-22,-6) scale(1,1)"><path fill="none" stroke="#000000" d="M 32 16 L 32 38 L 179.39013671875 38 L 190.39013671875 27 L 190.39013671875 16 L 32 16 L 32 16" stroke-miterlimit="10"/></g><g transform="translate(-22,-6) scale(1,1)"><g><path fill="none" stroke="none"/><text fill="#000000" stroke="none" font-family="Arial" font-size="13px" font-style="normal" font-weight="normal" text-decoration="none" x="56.72998046875" y="32">Đăng ký mượn sách</text></g></g><g transform="translate(-22,-6) scale(1,1)"><g><path fill="none" stroke="none"/><text fill="#000000" stroke="none" font-family="Arial" font-size="13px" font-style="normal" font-weight="bold" text-decoration="none" x="36.279541015625" y="32">sd</text></g></g><g transform="translate(-22,-6) scale(1,1)"><rect fill="#C0C0C0" stroke="none" x="231" y="47" width="71.736328125" height="39" opacity="0.2"/></g><g transform="translate(-22,-6) scale(1,1)"><rect fill="#ffffff" stroke="none" x="224" y="40" width="71.736328125" height="39"/></g><g transform="translate(-22,-6) scale(1,1)"><path fill="none" stroke="#000000" d="M 224 40 L 295.736328125 40 L 295.736328125 79 L 224 79 L 224 40 Z Z" stroke-miterlimit="10"/></g><g transform="translate(-22,-6) scale(1,1)"><g><path fill="none" stroke="none"/><text fill="#000000" stroke="none" font-family="Arial" font-size="13px" font-style="normal" font-weight="bold" text-decoration="none" x="237.11181640625" y="58">DocGia</text></g></g><g transform="translate(-22,-6) scale(1,1)"><path fill="none" stroke="#000000" d="M 260.5 80 L 260.5 840" stroke-miterlimit="10" stroke-dasharray="3"/></g><g transform="translate(-22,-6) scale(1,1)"><rect fill="#C0C0C0" stroke="none" x="487" y="47" width="76.0654296875" height="39" opacity="0.2"/></g><g transform="translate(-22,-6) scale(1,1)"><rect fill="#ffffff" stroke="none" x="480" y="40" width="76.0654296875" height="39"/></g><g transform="translate(-22,-6) scale(1,1)"><path fill="none" stroke="#000000" d="M 480 40 L 556.0654296875 40 L 556.0654296875 79 L 480 79 L 480 40 Z Z" stroke-miterlimit="10"/></g><g transform="translate(-22,-6) scale(1,1)"><g><path fill="none" stroke="none"/><text fill="#000000" stroke="none" font-family="Arial" font-size="13px" font-style="normal" font-weight="bold" text-decoration="none" x="489.5" y="58">GiaoDien</text></g></g><g transform="translate(-22,-6) scale(1,1)"><path fill="none" stroke="#000000" d="M 519.5 80 L 519.5 840" stroke-miterlimit="10" stroke-dasharray="3"/></g><g transform="translate(-22,-6) scale(1,1)"><rect fill="#C0C0C0" stroke="none" x="791" y="47" width="75.341796875" height="39" opacity="0.2"/></g><g transform="translate(-22,-6) scale(1,1)"><rect fill="#ffffff" stroke="none" x="784" y="40" width="75.341796875" height="39"/></g><g transform="translate(-22,-6) scale(1,1)"><path fill="none" stroke="#000000" d="M 784 40 L 859.341796875 40 L 859.341796875 79 L 784 79 L 784 40 Z Z" stroke-miterlimit="10"/></g><g transform="translate(-22,-6) scale(1,1)"><g><path fill="none" stroke="none"/><text fill="#000000" stroke="none" font-family="Arial" font-size="13px" font-style="normal" font-weight="bold" text-decoration="none" x="806.135009765625" y="58">Sach</text></g></g><g transform="translate(-22,-6) scale(1,1)"><path fill="none" stroke="#000000" d="M 822.5 80 L 822.5 840" stroke-miterlimit="10" stroke-dasharray="3"/></g><g transform="translate(-22,-6) scale(1,1)"><g><path fill="none" stroke="none"/><text fill="#000000" stroke="none" font-family="Arial" font-size="13px" font-style="normal" font-weight="normal" text-decoration="none" x="285" y="735">[else]</text></g></g><g transform="translate(-22,-6) scale(1,1)"><rect fill="#ffffff" stroke="none" x="216" y="96" width="624" height="29"/></g><g transform="translate(-22,-6) scale(1,1)"><path fill="none" stroke="#000000" d="M 216 96 L 840 96 L 840 125 L 216 125 L 216 96 Z Z" stroke-miterlimit="10"/></g><g transform="translate(-22,-6) scale(1,1)"><path fill="none" stroke="#000000" d="M 216 96 L 216 118 L 241.1708984375 118 L 252.1708984375 107 L 252.1708984375 96 L 216 96 L 216 96" stroke-miterlimit="10"/></g><g transform="translate(-22,-6) scale(1,1)"><g><path fill="none" stroke="none"/><text fill="#000000" stroke="none" font-family="Arial" font-size="13px" font-style="normal" font-weight="normal" text-decoration="none" x="515.00732421875" y="112">DangNhap</text></g></g><g transform="translate(-22,-6) scale(1,1)"><g><path fill="none" stroke="none"/><text fill="#000000" stroke="none" font-family="Arial" font-size="13px" font-style="normal" font-weight="bold" text-decoration="none" x="220.2763671875" y="112">ref</text></g></g><g transform="translate(-22,-6) scale(1,1)"><path fill="none" stroke="#000000" d="M 822 144 L 525 144" stroke-miterlimit="10"/></g><g transform="translate(-22,-6) scale(1,1)"><path fill="#000000" stroke="none" d="M 535.1626748576241 139.790482243984 L 525 144 L 535.1626748576241 148.209517756016"/></g><g transform="translate(-22,-6) scale(1,1)"><path fill="none" stroke="#000000" d="M 535.1626748576241 139.790482243984 L 525 144 L 535.1626748576241 148.209517756016 L 535.1626748576241 139.790482243984" stroke-miterlimit="10"/></g><g transform="translate(-22,-6) scale(1,1)"><g><path fill="none" stroke="none"/><text fill="#000000" stroke="none" font-family="Arial" font-size="13px" font-style="normal" font-weight="normal" text-decoration="none" x="625.5" y="159.5">1 : Hiển thị sách</text></g></g><g transform="translate(-22,-6) scale(1,1)"><rect fill="#ffffff" stroke="none" x="512" y="144" width="13" height="28"/></g><g transform="translate(-22,-6) scale(1,1)"><path fill="none" stroke="#000000" d="M 512 144 L 525 144 L 525 172 L 512 172 L 512 144 Z Z" stroke-miterlimit="10"/></g><g transform="translate(-22,-6) scale(1,1)"><path fill="none" stroke="#000000" d="M 260 208 L 815 208" stroke-miterlimit="10"/></g><g transform="translate(-22,-6) scale(1,1)"><path fill="#000000" stroke="none" d="M 804.8373251423759 212.209517756016 L 815 208 L 804.8373251423758 203.790482243984"/></g><g transform="translate(-22,-6) scale(1,1)"><path fill="none" stroke="#000000" d="M 804.8373251423759 212.209517756016 L 815 208 L 804.8373251423758 203.790482243984 L 804.8373251423759 212.209517756016" stroke-miterlimit="10"/></g><g transform="translate(-22,-6) scale(1,1)"><g><path fill="none" stroke="none"/><text fill="#000000" stroke="none" font-family="Arial" font-size="13px" font-style="normal" font-weight="normal" text-decoration="none" x="469.5" y="203">2 : Đăng ký mượn sách</text></g></g><g transform="translate(-22,-6) scale(1,1)"><rect fill="#ffffff" stroke="none" x="815" y="208" width="13" height="28"/></g><g transform="translate(-22,-6) scale(1,1)"><path fill="none" stroke="#000000" d="M 815 208 L 828 208 L 828 236 L 815 236 L 815 208 Z Z" stroke-miterlimit="10"/></g><g transform="translate(-22,-6) scale(1,1)"><path fill="none" stroke="#000000" d="M 822 248 L 525 248" stroke-miterlimit="10"/></g><g transform="translate(-22,-6) scale(1,1)"><path fill="#000000" stroke="none" d="M 535.1626748576241 243.790482243984 L 525 248 L 535.1626748576241 252.209517756016"/></g><g transform="translate(-22,-6) scale(1,1)"><path fill="none" stroke="#000000" d="M 535.1626748576241 243.790482243984 L 525 248 L 535.1626748576241 252.209517756016 L 535.1626748576241 243.790482243984" stroke-miterlimit="10"/></g><g transform="translate(-22,-6) scale(1,1)"><g><path fill="none" stroke="none"/><text fill="#000000" stroke="none" font-family="Arial" font-size="13px" font-style="normal" font-weight="normal" text-decoration="none" x="601.61279296875" y="275.5">3 : Hiển thị form đăng ký</text></g></g><g transform="translate(-22,-6) scale(1,1)"><rect fill="#ffffff" stroke="none" x="512" y="248" width="13" height="28"/></g><g transform="translate(-22,-6) scale(1,1)"><path fill="none" stroke="#000000" d="M 512 248 L 525 248 L 525 276 L 512 276 L 512 248 Z Z" stroke-miterlimit="10"/></g><g transform="translate(-22,-6) scale(1,1)"><path fill="none" stroke="#000000" d="M 260 312 L 512 312" stroke-miterlimit="10"/></g><g transform="translate(-22,-6) scale(1,1)"><path fill="#000000" stroke="none" d="M 501.83732514237585 316.209517756016 L 512 312 L 501.83732514237585 307.790482243984"/></g><g transform="translate(-22,-6) scale(1,1)"><path fill="none" stroke="#000000" d="M 501.83732514237585 316.209517756016 L 512 312 L 501.83732514237585 307.790482243984 L 501.83732514237585 316.209517756016" stroke-miterlimit="10"/></g><g transform="translate(-22,-6) scale(1,1)"><g><path fill="none" stroke="none"/><text fill="#000000" stroke="none" font-family="Arial" font-size="13px" font-style="normal" font-weight="normal" text-decoration="none" x="325.77099609375" y="297">4 : Nhập tên sách</text></g></g><g transform="translate(-22,-6) scale(1,1)"><rect fill="#ffffff" stroke="none" x="512" y="312" width="13" height="28"/></g><g transform="translate(-22,-6) scale(1,1)"><path fill="none" stroke="#000000" d="M 512 312 L 525 312 L 525 340 L 512 340 L 512 312 Z Z" stroke-miterlimit="10"/></g><g transform="translate(-22,-6) scale(1,1)"><path fill="none" stroke="#000000" d="M 519 352 L 815 352" stroke-miterlimit="10"/></g><g transform="translate(-22,-6) scale(1,1)"><path fill="#000000" stroke="none" d="M 804.8373251423759 356.209517756016 L 815 352 L 804.8373251423758 347.790482243984"/></g><g transform="translate(-22,-6) scale(1,1)"><path fill="none" stroke="#000000" d="M 804.8373251423759 356.209517756016 L 815 352 L 804.8373251423758 347.790482243984 L 804.8373251423759 356.209517756016" stroke-miterlimit="10"/></g><g transform="translate(-22,-6) scale(1,1)"><g><path fill="none" stroke="none"/><text fill="#000000" stroke="none" font-family="Arial" font-size="13px" font-style="normal" font-weight="normal" text-decoration="none" x="585.7431640625" y="347">5 : trangthai = kiemtra(sach)</text></g></g><g transform="translate(-22,-6) scale(1,1)"><rect fill="#ffffff" stroke="none" x="815" y="352" width="13" height="28"/></g><g transform="translate(-22,-6) scale(1,1)"><path fill="none" stroke="#000000" d="M 815 352 L 828 352 L 828 380 L 815 380 L 815 352 Z Z" stroke-miterlimit="10"/></g><g transform="translate(-22,-6) scale(1,1)"><path fill="none" stroke="#000000" d="M 822 408 L 525 408" stroke-miterlimit="10"/></g><g transform="translate(-22,-6) scale(1,1)"><path fill="#000000" stroke="none" d="M 535.1626748576241 403.790482243984 L 525 408 L 535.1626748576241 412.209517756016"/></g><g transform="translate(-22,-6) scale(1,1)"><path fill="none" stroke="#000000" d="M 535.1626748576241 403.790482243984 L 525 408 L 535.1626748576241 412.209517756016 L 535.1626748576241 403.790482243984" stroke-miterlimit="10"/></g><g transform="translate(-22,-6) scale(1,1)"><g><path fill="none" stroke="none"/><text fill="#000000" stroke="none" font-family="Arial" font-size="13px" font-style="normal" font-weight="normal" text-decoration="none" x="565.5" y="423.5">6 : Hiển thị form nhập số ngày mượn</text></g></g><g transform="translate(-22,-6) scale(1,1)"><rect fill="#ffffff" stroke="none" x="512" y="408" width="13" height="28"/></g><g transform="translate(-22,-6) scale(1,1)"><path fill="none" stroke="#000000" d="M 512 408 L 525 408 L 525 436 L 512 436 L 512 408 Z Z" stroke-miterlimit="10"/></g><g transform="translate(-22,-6) scale(1,1)"><path fill="none" stroke="#000000" d="M 260 457 L 512 457" stroke-miterlimit="10"/></g><g transform="translate(-22,-6) scale(1,1)"><path fill="#000000" stroke="none" d="M 501.83732514237585 461.209517756016 L 512 457 L 501.83732514237585 452.790482243984"/></g><g transform="translate(-22,-6) scale(1,1)"><path fill="none" stroke="#000000" d="M 501.83732514237585 461.209517756016 L 512 457 L 501.83732514237585 452.790482243984 L 501.83732514237585 461.209517756016" stroke-miterlimit="10"/></g><g transform="translate(-22,-6) scale(1,1)"><g><path fill="none" stroke="none"/><text fill="#000000" stroke="none" font-family="Arial" font-size="13px" font-style="normal" font-weight="normal" text-decoration="none" x="317.5" y="452.5">7 : Nhập số ngày mượn</text></g></g><g transform="translate(-22,-6) scale(1,1)"><rect fill="#ffffff" stroke="none" x="512" y="457" width="13" height="28"/></g><g transform="translate(-22,-6) scale(1,1)"><path fill="none" stroke="#000000" d="M 512 457 L 525 457 L 525 485 L 512 485 L 512 457 Z Z" stroke-miterlimit="10"/></g><g transform="translate(-22,-6) scale(1,1)"><path fill="none" stroke="#000000" d="M 519 496 L 815 496" stroke-miterlimit="10"/></g><g transform="translate(-22,-6) scale(1,1)"><path fill="#000000" stroke="none" d="M 804.8373251423759 500.209517756016 L 815 496 L 804.8373251423758 491.790482243984"/></g><g transform="translate(-22,-6) scale(1,1)"><path fill="none" stroke="#000000" d="M 804.8373251423759 500.209517756016 L 815 496 L 804.8373251423758 491.790482243984 L 804.8373251423759 500.209517756016" stroke-miterlimit="10"/></g><g transform="translate(-22,-6) scale(1,1)"><g><path fill="none" stroke="none"/><text fill="#000000" stroke="none" font-family="Arial" font-size="13px" font-style="normal" font-weight="normal" text-decoration="none" x="585.04931640625" y="490">8 : valid = kiemtra(songay)</text></g></g><g transform="translate(-22,-6) scale(1,1)"><rect fill="#ffffff" stroke="none" x="815" y="496" width="13" height="28"/></g><g transform="translate(-22,-6) scale(1,1)"><path fill="none" stroke="#000000" d="M 815 496 L 828 496 L 828 524 L 815 524 L 815 496 Z Z" stroke-miterlimit="10"/></g><g transform="translate(-22,-6) scale(1,1)"><path fill="none" stroke="#000000" d="M 822 584 L 266 584" stroke-miterlimit="10"/></g><g transform="translate(-22,-6) scale(1,1)"><path fill="#000000" stroke="none" d="M 276.16267485762415 579.790482243984 L 266 584 L 276.16267485762415 588.209517756016"/></g><g transform="translate(-22,-6) scale(1,1)"><path fill="none" stroke="#000000" d="M 276.16267485762415 579.790482243984 L 266 584 L 276.16267485762415 588.209517756016 L 276.16267485762415 579.790482243984" stroke-miterlimit="10"/></g><g transform="translate(-22,-6) scale(1,1)"><g><path fill="none" stroke="none"/><text fill="#000000" stroke="none" font-family="Arial" font-size="13px" font-style="normal" font-weight="normal" text-decoration="none" x="441.5" y="599">9 : Đăng ký mượn sách thành công</text></g></g><g transform="translate(-22,-6) scale(1,1)"><rect fill="#ffffff" stroke="none" x="253" y="584" width="13" height="28"/></g><g transform="translate(-22,-6) scale(1,1)"><path fill="none" stroke="#000000" d="M 253 584 L 266 584 L 266 612 L 253 612 L 253 584 Z Z" stroke-miterlimit="10"/></g><g transform="translate(-22,-6) scale(1,1)"><path fill="none" stroke="#000000" d="M 822 768 L 266 768" stroke-miterlimit="10"/></g><g transform="translate(-22,-6) scale(1,1)"><path fill="#000000" stroke="none" d="M 276.16267485762415 763.790482243984 L 266 768 L 276.16267485762415 772.209517756016"/></g><g transform="translate(-22,-6) scale(1,1)"><path fill="none" stroke="#000000" d="M 276.16267485762415 763.790482243984 L 266 768 L 276.16267485762415 772.209517756016 L 276.16267485762415 763.790482243984" stroke-miterlimit="10"/></g><g transform="translate(-22,-6) scale(1,1)"><g><path fill="none" stroke="none"/><text fill="#000000" stroke="none" font-family="Arial" font-size="13px" font-style="normal" font-weight="normal" text-decoration="none" x="453.5" y="783.5">10 : Không thể mượn sách này</text></g></g><g transform="translate(-22,-6) scale(1,1)"><rect fill="#ffffff" stroke="none" x="253" y="768" width="13" height="28"/></g><g transform="translate(-22,-6) scale(1,1)"><path fill="none" stroke="#000000" d="M 253 768 L 266 768 L 266 796 L 253 796 L 253 768 Z Z" stroke-miterlimit="10"/></g><g transform="translate(-22,-6) scale(1,1)"><path fill="none" stroke="#000000" d="M 176 384 L 904 384 L 904 808 L 176 808 L 176 384" stroke-miterlimit="10"/></g><g transform="translate(-22,-6) scale(1,1)"><path fill="#ffffff" stroke="none" d="M 176 384 L 176 406 L 301.12890625 406 L 312.12890625 395 L 312.12890625 384 L 176 384"/></g><g transform="translate(-22,-6) scale(1,1)"><path fill="none" stroke="#000000" d="M 176 384 L 176 406 L 301.12890625 406 L 312.12890625 395 L 312.12890625 384 L 176 384 L 176 384" stroke-miterlimit="10"/></g><g transform="translate(-22,-6) scale(1,1)"><g><path fill="none" stroke="none"/><text fill="#000000" stroke="none" font-family="Arial" font-size="13px" font-style="normal" font-weight="normal" text-decoration="none" x="200.72998046875" y="400">[trangthai==true]</text></g></g><g transform="translate(-22,-6) scale(1,1)"><g><path fill="none" stroke="none"/><text fill="#000000" stroke="none" font-family="Arial" font-size="13px" font-style="normal" font-weight="bold" text-decoration="none" x="180.279541015625" y="400">alt</text></g></g><g transform="translate(-22,-6) scale(1,1)"><path fill="none" stroke="#000000" d="M 176 689 L 904 689" stroke-miterlimit="10" stroke-dasharray="10,3"/></g><g transform="translate(-22,-6) scale(1,1)"><path fill="none" stroke="#000000" d="M 216 520 L 855 520 L 855 655 L 216 655 L 216 520" stroke-miterlimit="10"/></g><g transform="translate(-22,-6) scale(1,1)"><path fill="#ffffff" stroke="none" d="M 216 520 L 216 542 L 328.85888671875 542 L 339.85888671875 531 L 339.85888671875 520 L 216 520"/></g><g transform="translate(-22,-6) scale(1,1)"><path fill="none" stroke="#000000" d="M 216 520 L 216 542 L 328.85888671875 542 L 339.85888671875 531 L 339.85888671875 520 L 216 520 L 216 520" stroke-miterlimit="10"/></g><g transform="translate(-22,-6) scale(1,1)"><g><path fill="none" stroke="none"/><text fill="#000000" stroke="none" font-family="Arial" font-size="13px" font-style="normal" font-weight="normal" text-decoration="none" x="245.07177734375" y="536">[songay&lt;=28]</text></g></g><g transform="translate(-22,-6) scale(1,1)"><g><path fill="none" stroke="none"/><text fill="#000000" stroke="none" font-family="Arial" font-size="13px" font-style="normal" font-weight="bold" text-decoration="none" x="219.930419921875" y="535.5">opt</text></g></g></g></svg>