<svg version="1.1" xmlns="http://www.w3.org/2000/svg" xmlns:xlink="http://www.w3.org/1999/xlink" width="996" height="572"><defs/><g><g transform="translate(10,-6) scale(1,1)"><rect fill="#C0C0C0" stroke="none" x="175" y="23" width="808" height="552" opacity="0.2"/></g><g transform="translate(10,-6) scale(1,1)"><rect fill="#ffffff" stroke="none" x="168" y="16" width="808" height="552"/></g><g transform="translate(10,-6) scale(1,1)"><path fill="none" stroke="#000000" d="M 168 16 L 976 16 L 976 568 L 168 568 L 168 16 Z Z" stroke-miterlimit="10"/></g><g transform="translate(10,-6) scale(1,1)"><g><path fill="none" stroke="none"/><text fill="#000000" stroke="none" font-family="Arial" font-size="13px" font-style="normal" font-weight="bold" text-decoration="none" x="480.590576171875" y="34">Nhiệm vụ của actor "Độc giả"</text></g></g><g transform="translate(10,-6) scale(1,1)"><path fill="#ffffff" stroke="none" d="M 59.29753391335227 321.68 C 59.29753391335227 316.886167936 63.183376238297726 313 67.976806640625 313 C 72.77023704295227 313 76.65607936789773 316.886167936 76.65607936789773 321.68 C 76.65607936789773 326.473832064 72.77023704295227 330.36 67.976806640625 330.36 C 63.183376238297726 330.36 59.29753391335227 326.473832064 59.29753391335227 321.68 Z"/></g><g transform="translate(10,-6) scale(1,1)"><path fill="none" stroke="#000000" d="M 59.29753391335227 321.68 C 59.29753391335227 316.886167936 63.183376238297726 313 67.976806640625 313 C 72.77023704295227 313 76.65607936789773 316.886167936 76.65607936789773 321.68 C 76.65607936789773 326.473832064 72.77023704295227 330.36 67.976806640625 330.36 C 63.183376238297726 330.36 59.29753391335227 326.473832064 59.29753391335227 321.68 Z" stroke-miterlimit="10"/></g><g transform="translate(10,-6) scale(1,1)"><path fill="none" stroke="#000000" d="M 67.976806640625 330.36 L 67.976806640625 347.64" stroke-miterlimit="10"/></g><g transform="translate(10,-6) scale(1,1)"><path fill="none" stroke="#000000" d="M 58.78698845880682 336.84 L 77.16662482244318 336.84" stroke-miterlimit="10"/></g><g transform="translate(10,-6) scale(1,1)"><path fill="none" stroke="#000000" d="M 67.976806640625 347.64 L 55.213170276988635 365" stroke-miterlimit="10"/></g><g transform="translate(10,-6) scale(1,1)"><path fill="none" stroke="#000000" d="M 67.976806640625 347.64 L 80.74044300426137 365" stroke-miterlimit="10"/></g><g transform="translate(10,-6) scale(1,1)"><g><path fill="none" stroke="none"/><text fill="#000000" stroke="none" font-family="Arial" font-size="13px" font-style="normal" font-weight="bold" text-decoration="none" x="44.5" y="384">Độc giả</text></g></g><g transform="translate(10,-6) scale(1,1)"><path fill="#C0C0C0" stroke="none" d="M 479 163 C 479 147.5360256 513.9217856 135 557 135 C 600.0782144 135 635 147.5360256 635 163 C 635 178.4639744 600.0782144 191 557 191 C 513.9217856 191 479 178.4639744 479 163 Z" opacity="0.2"/></g><g transform="translate(10,-6) scale(1,1)"><path fill="#ffffff" stroke="none" d="M 472 156 C 472 140.5360256 506.9217856 128 550 128 C 593.0782144 128 628 140.5360256 628 156 C 628 171.4639744 593.0782144 184 550 184 C 506.9217856 184 472 171.4639744 472 156 Z"/></g><g transform="translate(10,-6) scale(1,1)"><path fill="none" stroke="#000000" d="M 472 156 C 472 140.5360256 506.9217856 128 550 128 C 593.0782144 128 628 140.5360256 628 156 C 628 171.4639744 593.0782144 184 550 184 C 506.9217856 184 472 171.4639744 472 156 Z" stroke-miterlimit="10"/></g><g transform="translate(10,-6) scale(1,1)"><g><path fill="none" stroke="none"/><text fill="#000000" stroke="none" font-family="Arial" font-size="13px" font-style="normal" font-weight="bold" text-decoration="none" x="516.417724609375" y="161.5">Đăng nhập</text></g></g><g transform="translate(10,-6) scale(1,1)"><path fill="#C0C0C0" stroke="none" d="M 471 296 C 471 286.6111584 496.2959088 279 527.5 279 C 558.7040912 279 584 286.6111584 584 296 C 584 305.3888416 558.7040912 313 527.5 313 C 496.2959088 313 471 305.3888416 471 296 Z" opacity="0.2"/></g><g transform="translate(10,-6) scale(1,1)"><path fill="#ffffff" stroke="none" d="M 464 289 C 464 279.6111584 489.2959088 272 520.5 272 C 551.7040912 272 577 279.6111584 577 289 C 577 298.3888416 551.7040912 306 520.5 306 C 489.2959088 306 464 298.3888416 464 289 Z"/></g><g transform="translate(10,-6) scale(1,1)"><path fill="none" stroke="#000000" d="M 464 289 C 464 279.6111584 489.2959088 272 520.5 272 C 551.7040912 272 577 279.6111584 577 289 C 577 298.3888416 551.7040912 306 520.5 306 C 489.2959088 306 464 298.3888416 464 289 Z" stroke-miterlimit="10"/></g><g transform="translate(10,-6) scale(1,1)"><g><path fill="none" stroke="none"/><text fill="#000000" stroke="none" font-family="Arial" font-size="13px" font-style="normal" font-weight="bold" text-decoration="none" x="485.165771484375" y="294.5">Mượn sách</text></g></g><g transform="translate(10,-6) scale(1,1)"><path fill="#C0C0C0" stroke="none" d="M 639 248 C 639 238.6111584 680.6375136 231 732 231 C 783.3624864 231 825 238.6111584 825 248 C 825 257.3888416 783.3624864 265 732 265 C 680.6375136 265 639 257.3888416 639 248 Z" opacity="0.2"/></g><g transform="translate(10,-6) scale(1,1)"><path fill="#ffffff" stroke="none" d="M 632 241 C 632 231.6111584 673.6375136 224 725 224 C 776.3624864 224 818 231.6111584 818 241 C 818 250.3888416 776.3624864 258 725 258 C 673.6375136 258 632 250.3888416 632 241 Z"/></g><g transform="translate(10,-6) scale(1,1)"><path fill="none" stroke="#000000" d="M 632 241 C 632 231.6111584 673.6375136 224 725 224 C 776.3624864 224 818 231.6111584 818 241 C 818 250.3888416 776.3624864 258 725 258 C 673.6375136 258 632 250.3888416 632 241 Z" stroke-miterlimit="10"/></g><g transform="translate(10,-6) scale(1,1)"><g><path fill="none" stroke="none"/><text fill="#000000" stroke="none" font-family="Arial" font-size="13px" font-style="normal" font-weight="bold" text-decoration="none" x="663.65625" y="246.5">Gia hạn mượn sách</text></g></g><g transform="translate(10,-6) scale(1,1)"><path fill="#C0C0C0" stroke="none" d="M 471 416 C 471 406.6111584 508.1603616 399 554 399 C 599.8396384 399 637 406.6111584 637 416 C 637 425.3888416 599.8396384 433 554 433 C 508.1603616 433 471 425.3888416 471 416 Z" opacity="0.2"/></g><g transform="translate(10,-6) scale(1,1)"><path fill="#ffffff" stroke="none" d="M 464 409 C 464 399.6111584 501.1603616 392 547 392 C 592.8396384 392 630 399.6111584 630 409 C 630 418.3888416 592.8396384 426 547 426 C 501.1603616 426 464 418.3888416 464 409 Z"/></g><g transform="translate(10,-6) scale(1,1)"><path fill="none" stroke="#000000" d="M 464 409 C 464 399.6111584 501.1603616 392 547 392 C 592.8396384 392 630 399.6111584 630 409 C 630 418.3888416 592.8396384 426 547 426 C 501.1603616 426 464 418.3888416 464 409 Z" stroke-miterlimit="10"/></g><g transform="translate(10,-6) scale(1,1)"><g><path fill="none" stroke="none"/><text fill="#000000" stroke="none" font-family="Arial" font-size="13px" font-style="normal" font-weight="bold" text-decoration="none" x="492.88623046875" y="415">Đề xuất sách mới</text></g></g><g transform="translate(10,-6) scale(1,1)"><path fill="#C0C0C0" stroke="none" d="M 471 360 C 471 350.6111584 493.6096176 343 521.5 343 C 549.3903824 343 572 350.6111584 572 360 C 572 369.3888416 549.3903824 377 521.5 377 C 493.6096176 377 471 369.3888416 471 360 Z" opacity="0.2"/></g><g transform="translate(10,-6) scale(1,1)"><path fill="#ffffff" stroke="none" d="M 464 353 C 464 343.6111584 486.6096176 336 514.5 336 C 542.3903824 336 565 343.6111584 565 353 C 565 362.3888416 542.3903824 370 514.5 370 C 486.6096176 370 464 362.3888416 464 353 Z"/></g><g transform="translate(10,-6) scale(1,1)"><path fill="none" stroke="#000000" d="M 464 353 C 464 343.6111584 486.6096176 336 514.5 336 C 542.3903824 336 565 343.6111584 565 353 C 565 362.3888416 542.3903824 370 514.5 370 C 486.6096176 370 464 362.3888416 464 353 Z" stroke-miterlimit="10"/></g><g transform="translate(10,-6) scale(1,1)"><g><path fill="none" stroke="none"/><text fill="#000000" stroke="none" font-family="Arial" font-size="13px" font-style="normal" font-weight="bold" text-decoration="none" x="488.122314453125" y="358.5">Trả sách</text></g></g><g transform="translate(10,-6) scale(1,1)"><path fill="none" stroke="#000000" d="M 97 339 L 478 185" stroke-miterlimit="10"/></g><g transform="translate(10,-6) scale(1,1)"><path fill="none" stroke="#000000" d="M 97 347 L 463 297" stroke-miterlimit="10"/></g><g transform="translate(10,-6) scale(1,1)"><path fill="none" stroke="#000000" d="M 97 351 L 463 353" stroke-miterlimit="10"/></g><g transform="translate(10,-6) scale(1,1)"><path fill="none" stroke="#000000" d="M 97 355 L 463 399" stroke-miterlimit="10"/></g><g transform="translate(10,-6) scale(1,1)"><path fill="none" stroke="#000000" d="M 648 259 L 578 275" stroke-miterlimit="10" stroke-dasharray="3"/></g><g transform="translate(10,-6) scale(1,1)"><path fill="none" stroke="#000000" d="M 586.969185076075 268.6318197991016 L 578 275 L 588.845154992883 276.8391881851366" stroke-miterlimit="10"/></g><g transform="translate(10,-6) scale(1,1)"><g><path fill="none" stroke="none"/><text fill="#000000" stroke="none" font-family="Arial" font-size="13px" font-style="normal" font-weight="normal" text-decoration="none" x="583.5" y="258">«extend»</text></g></g><g transform="translate(10,-6) scale(1,1)"><path fill="none" stroke="#000000" d="M 566 353 L 928 352 L 928 160 L 629 157" stroke-miterlimit="10" stroke-dasharray="3"/></g><g transform="translate(10,-6) scale(1,1)"><path fill="none" stroke="#000000" d="M 639.2043971962489 152.8926556193585 L 629 157 L 639.1199295196087 161.3112673911685" stroke-miterlimit="10"/></g><g transform="translate(10,-6) scale(1,1)"><g><path fill="none" stroke="none"/><text fill="#000000" stroke="none" font-family="Arial" font-size="13px" font-style="normal" font-weight="normal" text-decoration="none" x="855.5" y="339">«include»</text></g></g><g transform="translate(10,-6) scale(1,1)"><path fill="none" stroke="#000000" d="M 631 409 L 928 408 L 928 160 L 629 157" stroke-miterlimit="10" stroke-dasharray="3"/></g><g transform="translate(10,-6) scale(1,1)"><path fill="none" stroke="#000000" d="M 639.2043971962489 152.8926556193585 L 629 157 L 639.1199295196087 161.3112673911685" stroke-miterlimit="10"/></g><g transform="translate(10,-6) scale(1,1)"><g><path fill="none" stroke="none"/><text fill="#000000" stroke="none" font-family="Arial" font-size="13px" font-style="normal" font-weight="normal" text-decoration="none" x="855.5" y="403">«include»</text></g></g><g transform="translate(10,-6) scale(1,1)"><path fill="none" stroke="#000000" d="M 819 241 L 928 240 L 928 160 L 629 157" stroke-miterlimit="10" stroke-dasharray="3"/></g><g transform="translate(10,-6) scale(1,1)"><path fill="none" stroke="#000000" d="M 639.2043971962489 152.8926556193585 L 629 157 L 639.1199295196087 161.3112673911685" stroke-miterlimit="10"/></g><g transform="translate(10,-6) scale(1,1)"><g><path fill="none" stroke="none"/><text fill="#000000" stroke="none" font-family="Arial" font-size="13px" font-style="normal" font-weight="normal" text-decoration="none" x="855.5" y="235">«include»</text></g></g><g transform="translate(10,-6) scale(1,1)"><path fill="none" stroke="#000000" d="M 578 289 L 928 288 L 928 160 L 629 157" stroke-miterlimit="10" stroke-dasharray="3"/></g><g transform="translate(10,-6) scale(1,1)"><path fill="none" stroke="#000000" d="M 639.2043971962489 152.8926556193585 L 629 157 L 639.1199295196087 161.3112673911685" stroke-miterlimit="10"/></g><g transform="translate(10,-6) scale(1,1)"><g><path fill="none" stroke="none"/><text fill="#000000" stroke="none" font-family="Arial" font-size="13px" font-style="normal" font-weight="normal" text-decoration="none" x="855.5" y="275">«include»</text></g></g><g transform="translate(10,-6) scale(1,1)"><path fill="#ffffff" stroke="none" d="M 64.74040500710227 185.68 C 64.74040500710227 180.886167936 68.62624733204773 177 73.419677734375 177 C 78.21310813670227 177 82.09895046164773 180.886167936 82.09895046164773 185.68 C 82.09895046164773 190.47383206400002 78.21310813670227 194.36 73.419677734375 194.36 C 68.62624733204773 194.36 64.74040500710227 190.47383206400002 64.74040500710227 185.68 Z"/></g><g transform="translate(10,-6) scale(1,1)"><path fill="none" stroke="#000000" d="M 64.74040500710227 185.68 C 64.74040500710227 180.886167936 68.62624733204773 177 73.419677734375 177 C 78.21310813670227 177 82.09895046164773 180.886167936 82.09895046164773 185.68 C 82.09895046164773 190.47383206400002 78.21310813670227 194.36 73.419677734375 194.36 C 68.62624733204773 194.36 64.74040500710227 190.47383206400002 64.74040500710227 185.68 Z" stroke-miterlimit="10"/></g><g transform="translate(10,-6) scale(1,1)"><path fill="none" stroke="#000000" d="M 73.419677734375 194.36 L 73.419677734375 211.64" stroke-miterlimit="10"/></g><g transform="translate(10,-6) scale(1,1)"><path fill="none" stroke="#000000" d="M 64.22985955255682 200.84 L 82.60949591619318 200.84" stroke-miterlimit="10"/></g><g transform="translate(10,-6) scale(1,1)"><path fill="none" stroke="#000000" d="M 73.419677734375 211.64 L 60.656041370738635 229" stroke-miterlimit="10"/></g><g transform="translate(10,-6) scale(1,1)"><path fill="none" stroke="#000000" d="M 73.419677734375 211.64 L 86.18331409801137 229" stroke-miterlimit="10"/></g><g transform="translate(10,-6) scale(1,1)"><g><path fill="none" stroke="none"/><text fill="#000000" stroke="none" font-family="Arial" font-size="13px" font-style="normal" font-weight="bold" text-decoration="none" x="13.891357421875" y="248">Người có tài khoản</text></g></g><g transform="translate(10,-6) scale(1,1)"><path fill="none" stroke="#000000" d="M 69 311 L 71 256" stroke-miterlimit="10"/></g><g transform="translate(10,-6) scale(1,1)"><path fill="#FFFFFF" stroke="none" d="M 78.67485927524098 276.6178693153596 L 71 256 L 61.847909831666534 276.00598024468417"/></g><g transform="translate(10,-6) scale(1,1)"><path fill="none" stroke="#000000" d="M 78.67485927524098 276.6178693153596 L 71 256 L 61.847909831666534 276.00598024468417 L 78.67485927524098 276.6178693153596" stroke-miterlimit="10"/></g><g transform="translate(10,-6) scale(1,1)"><path fill="#C0C0C0" stroke="none" d="M 463 496 C 463 486.6111584 526.5755584 479 605 479 C 683.4244416 479 747 486.6111584 747 496 C 747 505.3888416 683.4244416 513 605 513 C 526.5755584 513 463 505.3888416 463 496 Z" opacity="0.2"/></g><g transform="translate(10,-6) scale(1,1)"><path fill="#ffffff" stroke="none" d="M 456 489 C 456 479.6111584 519.5755584 472 598 472 C 676.4244416 472 740 479.6111584 740 489 C 740 498.3888416 676.4244416 506 598 506 C 519.5755584 506 456 498.3888416 456 489 Z"/></g><g transform="translate(10,-6) scale(1,1)"><path fill="none" stroke="#000000" d="M 456 489 C 456 479.6111584 519.5755584 472 598 472 C 676.4244416 472 740 479.6111584 740 489 C 740 498.3888416 676.4244416 506 598 506 C 519.5755584 506 456 498.3888416 456 489 Z" stroke-miterlimit="10"/></g><g transform="translate(10,-6) scale(1,1)"><g><path fill="none" stroke="none"/><text fill="#000000" stroke="none" font-family="Arial" font-size="13px" font-style="normal" font-weight="bold" text-decoration="none" x="501.918701171875" y="494.5">Thêm vào bộ sưu tập yêu thích</text></g></g><g transform="translate(10,-6) scale(1,1)"><path fill="none" stroke="#000000" d="M 741 489 L 928 488 L 928 160 L 629 157" stroke-miterlimit="10" stroke-dasharray="3"/></g><g transform="translate(10,-6) scale(1,1)"><path fill="none" stroke="#000000" d="M 639.2043971962489 152.8926556193585 L 629 157 L 639.1199295196087 161.3112673911685" stroke-miterlimit="10"/></g><g transform="translate(10,-6) scale(1,1)"><g><path fill="none" stroke="none"/><text fill="#000000" stroke="none" font-family="Arial" font-size="13px" font-style="normal" font-weight="normal" text-decoration="none" x="855.5" y="475">«include»</text></g></g><g transform="translate(10,-6) scale(1,1)"><path fill="none" stroke="#000000" d="M 529 471 L 97 359" stroke-miterlimit="10"/></g></g></svg>