<svg version="1.1" xmlns="http://www.w3.org/2000/svg" xmlns:xlink="http://www.w3.org/1999/xlink" width="1203" height="868"><defs/><g><g transform="translate(2,-38) scale(1,1)"><path fill="#C0C0C0" stroke="none" d="M 159 96.5 C 159 91.2532944 163.2532944 87 168.5 87 C 173.7467056 87 178 91.2532944 178 96.5 C 178 101.7467056 173.7467056 106 168.5 106 C 163.2532944 106 159 101.7467056 159 96.5 Z" opacity="0.2"/></g><g transform="translate(2,-38) scale(1,1)"><path fill="#000000" stroke="none" d="M 152 89.5 C 152 84.2532944 156.2532944 80 161.5 80 C 166.7467056 80 171 84.2532944 171 89.5 C 171 94.7467056 166.7467056 99 161.5 99 C 156.2532944 99 152 94.7467056 152 89.5 Z"/></g><g transform="translate(2,-38) scale(1,1)"><path fill="#C0C0C0" stroke="none" d="M 89 215 L 239.79541015625 215 Q 249.79541015625 215 249.79541015625 225 L 249.79541015625 245 Q 249.79541015625 255 239.79541015625 255 L 89 255 Q 79 255 79 245 L 79 225 Q 79 215 89 215 Z" opacity="0.2"/></g><g transform="translate(2,-38) scale(1,1)"><path fill="#ffffff" stroke="none" d="M 82 208 L 232.79541015625 208 Q 242.79541015625 208 242.79541015625 218 L 242.79541015625 238 Q 242.79541015625 248 232.79541015625 248 L 82 248 Q 72 248 72 238 L 72 218 Q 72 208 82 208 Z"/></g><g transform="translate(2,-38) scale(1,1)"><path fill="none" stroke="#000000" d="M 82 208 L 232.79541015625 208 Q 242.79541015625 208 242.79541015625 218 L 242.79541015625 238 Q 242.79541015625 248 232.79541015625 248 L 82 248 Q 72 248 72 238 L 72 218 Q 72 208 82 208 Z" stroke-miterlimit="10"/></g><g transform="translate(2,-38) scale(1,1)"><g><path fill="none" stroke="none"/><text fill="#000000" stroke="none" font-family="Arial" font-size="13px" font-style="normal" font-weight="bold" text-decoration="none" x="76.5" y="226">Chọn "Thông tin bạn đọc"</text></g></g><g transform="translate(2,-38) scale(1,1)"><path fill="#C0C0C0" stroke="none" d="M 137 143 L 195.3291015625 143 Q 205.3291015625 143 205.3291015625 153 L 205.3291015625 173 Q 205.3291015625 183 195.3291015625 183 L 137 183 Q 127 183 127 173 L 127 153 Q 127 143 137 143 Z" opacity="0.2"/></g><g transform="translate(2,-38) scale(1,1)"><path fill="#ffffff" stroke="none" d="M 130 136 L 188.3291015625 136 Q 198.3291015625 136 198.3291015625 146 L 198.3291015625 166 Q 198.3291015625 176 188.3291015625 176 L 130 176 Q 120 176 120 166 L 120 146 Q 120 136 130 136 Z"/></g><g transform="translate(2,-38) scale(1,1)"><path fill="none" stroke="#000000" d="M 130 136 L 188.3291015625 136 Q 198.3291015625 136 198.3291015625 146 L 198.3291015625 166 Q 198.3291015625 176 188.3291015625 176 L 130 176 Q 120 176 120 166 L 120 146 Q 120 136 130 136 Z" stroke-miterlimit="10"/></g><g transform="translate(2,-38) scale(1,1)"><path fill="none" stroke="#000000" d="M 172.3291015625 163 C 172.3291015625 161.3431456 173.6722471625 160 175.3291015625 160 C 176.9859559625 160 178.3291015625 161.3431456 178.3291015625 163 C 178.3291015625 164.6568544 176.9859559625 166 175.3291015625 166 C 173.6722471625 166 172.3291015625 164.6568544 172.3291015625 163 Z" stroke-miterlimit="10"/></g><g transform="translate(2,-38) scale(1,1)"><path fill="none" stroke="#000000" d="M 178.3291015625 163 L 184.3291015625 163" stroke-miterlimit="10"/></g><g transform="translate(2,-38) scale(1,1)"><path fill="none" stroke="#000000" d="M 184.3291015625 163 C 184.3291015625 161.3431456 185.6722471625 160 187.3291015625 160 C 188.9859559625 160 190.3291015625 161.3431456 190.3291015625 163 C 190.3291015625 164.6568544 188.9859559625 166 187.3291015625 166 C 185.6722471625 166 184.3291015625 164.6568544 184.3291015625 163 Z" stroke-miterlimit="10"/></g><g transform="translate(2,-38) scale(1,1)"><g><path fill="none" stroke="none"/><text fill="#000000" stroke="none" font-family="Arial" font-size="13px" font-style="normal" font-weight="bold" text-decoration="none" x="124.5" y="154">:DangNhap</text></g></g><g transform="translate(2,-38) scale(1,1)"><path fill="#C0C0C0" stroke="none" d="M 89 295 L 248.37109375 295 Q 258.37109375 295 258.37109375 305 L 258.37109375 325 Q 258.37109375 335 248.37109375 335 L 89 335 Q 79 335 79 325 L 79 305 Q 79 295 89 295 Z" opacity="0.2"/></g><g transform="translate(2,-38) scale(1,1)"><path fill="#ffffff" stroke="none" d="M 82 288 L 241.37109375 288 Q 251.37109375 288 251.37109375 298 L 251.37109375 318 Q 251.37109375 328 241.37109375 328 L 82 328 Q 72 328 72 318 L 72 298 Q 72 288 82 288 Z"/></g><g transform="translate(2,-38) scale(1,1)"><path fill="none" stroke="#000000" d="M 82 288 L 241.37109375 288 Q 251.37109375 288 251.37109375 298 L 251.37109375 318 Q 251.37109375 328 241.37109375 328 L 82 328 Q 72 328 72 318 L 72 298 Q 72 288 82 288 Z" stroke-miterlimit="10"/></g><g transform="translate(2,-38) scale(1,1)"><g><path fill="none" stroke="none"/><text fill="#000000" stroke="none" font-family="Arial" font-size="13px" font-style="normal" font-weight="bold" text-decoration="none" x="76.5" y="306">Chọn "Tài liệu đang mượn"</text></g></g><g transform="translate(2,-38) scale(1,1)"><path fill="#C0C0C0" stroke="none" d="M 801 295 L 979.845703125 295 Q 989.845703125 295 989.845703125 305 L 989.845703125 325 Q 989.845703125 335 979.845703125 335 L 801 335 Q 791 335 791 325 L 791 305 Q 791 295 801 295 Z" opacity="0.2"/></g><g transform="translate(2,-38) scale(1,1)"><path fill="#ffffff" stroke="none" d="M 794 288 L 972.845703125 288 Q 982.845703125 288 982.845703125 298 L 982.845703125 318 Q 982.845703125 328 972.845703125 328 L 794 328 Q 784 328 784 318 L 784 298 Q 784 288 794 288 Z"/></g><g transform="translate(2,-38) scale(1,1)"><path fill="none" stroke="#000000" d="M 794 288 L 972.845703125 288 Q 982.845703125 288 982.845703125 298 L 982.845703125 318 Q 982.845703125 328 972.845703125 328 L 794 328 Q 784 328 784 318 L 784 298 Q 784 288 794 288 Z" stroke-miterlimit="10"/></g><g transform="translate(2,-38) scale(1,1)"><g><path fill="none" stroke="none"/><text fill="#000000" stroke="none" font-family="Arial" font-size="13px" font-style="normal" font-weight="bold" text-decoration="none" x="788.5" y="306.5">Sử dụng phương thức hiển thị</text></g></g><g transform="translate(2,-38) scale(1,1)"><path fill="#C0C0C0" stroke="none" d="M 417 375 L 574.8857421875 375 Q 584.8857421875 375 584.8857421875 385 L 584.8857421875 405 Q 584.8857421875 415 574.8857421875 415 L 417 415 Q 407 415 407 405 L 407 385 Q 407 375 417 375 Z" opacity="0.2"/></g><g transform="translate(2,-38) scale(1,1)"><path fill="#ffffff" stroke="none" d="M 410 368 L 567.8857421875 368 Q 577.8857421875 368 577.8857421875 378 L 577.8857421875 398 Q 577.8857421875 408 567.8857421875 408 L 410 408 Q 400 408 400 398 L 400 378 Q 400 368 410 368 Z"/></g><g transform="translate(2,-38) scale(1,1)"><path fill="none" stroke="#000000" d="M 410 368 L 567.8857421875 368 Q 577.8857421875 368 577.8857421875 378 L 577.8857421875 398 Q 577.8857421875 408 567.8857421875 408 L 410 408 Q 400 408 400 398 L 400 378 Q 400 368 410 368 Z" stroke-miterlimit="10"/></g><g transform="translate(2,-38) scale(1,1)"><g><path fill="none" stroke="none"/><text fill="#000000" stroke="none" font-family="Arial" font-size="13px" font-style="normal" font-weight="bold" text-decoration="none" x="404.5" y="386.5">Hiển thị tài liệu đang mượn</text></g></g><g transform="translate(2,-38) scale(1,1)"><path fill="#C0C0C0" stroke="none" d="M 97 471 L 234.8271484375 471 Q 244.8271484375 471 244.8271484375 481 L 244.8271484375 501 Q 244.8271484375 511 234.8271484375 511 L 97 511 Q 87 511 87 501 L 87 481 Q 87 471 97 471 Z" opacity="0.2"/></g><g transform="translate(2,-38) scale(1,1)"><path fill="#ffffff" stroke="none" d="M 90 464 L 227.8271484375 464 Q 237.8271484375 464 237.8271484375 474 L 237.8271484375 494 Q 237.8271484375 504 227.8271484375 504 L 90 504 Q 80 504 80 494 L 80 474 Q 80 464 90 464 Z"/></g><g transform="translate(2,-38) scale(1,1)"><path fill="none" stroke="#000000" d="M 90 464 L 227.8271484375 464 Q 237.8271484375 464 237.8271484375 474 L 237.8271484375 494 Q 237.8271484375 504 227.8271484375 504 L 90 504 Q 80 504 80 494 L 80 474 Q 80 464 90 464 Z" stroke-miterlimit="10"/></g><g transform="translate(2,-38) scale(1,1)"><g><path fill="none" stroke="none"/><text fill="#000000" stroke="none" font-family="Arial" font-size="13px" font-style="normal" font-weight="bold" text-decoration="none" x="84.5" y="482">Chọn lệnh "Xin gia hạn"</text></g></g><g transform="translate(2,-38) scale(1,1)"><path fill="#C0C0C0" stroke="none" d="M 407 471 L 407 511 L 582.72900390625 511 L 592.97900390625 491.5 L 582.72900390625 471" opacity="0.2"/></g><g transform="translate(2,-38) scale(1,1)"><path fill="#ffffff" stroke="none" d="M 400 464 L 400 504 L 575.72900390625 504 L 585.97900390625 484.5 L 575.72900390625 464"/></g><g transform="translate(2,-38) scale(1,1)"><path fill="none" stroke="#000000" d="M 400 464 L 400 504 L 575.72900390625 504 L 585.97900390625 484.5 L 575.72900390625 464 L 400 464" stroke-miterlimit="10"/></g><g transform="translate(2,-38) scale(1,1)"><g><path fill="none" stroke="none"/><text fill="#000000" stroke="none" font-family="Arial" font-size="13px" font-style="normal" font-weight="bold" text-decoration="none" x="404.5" y="482">Nhận thông tin "Xin gia hạn"</text></g></g><g transform="translate(2,-38) scale(1,1)"><path fill="#C0C0C0" stroke="none" d="M 753 471 L 1012.181640625 471 Q 1022.181640625 471 1022.181640625 481 L 1022.181640625 501 Q 1022.181640625 511 1012.181640625 511 L 753 511 Q 743 511 743 501 L 743 481 Q 743 471 753 471 Z" opacity="0.2"/></g><g transform="translate(2,-38) scale(1,1)"><path fill="#ffffff" stroke="none" d="M 746 464 L 1005.181640625 464 Q 1015.181640625 464 1015.181640625 474 L 1015.181640625 494 Q 1015.181640625 504 1005.181640625 504 L 746 504 Q 736 504 736 494 L 736 474 Q 736 464 746 464 Z"/></g><g transform="translate(2,-38) scale(1,1)"><path fill="none" stroke="#000000" d="M 746 464 L 1005.181640625 464 Q 1015.181640625 464 1015.181640625 474 L 1015.181640625 494 Q 1015.181640625 504 1005.181640625 504 L 746 504 Q 736 504 736 494 L 736 474 Q 736 464 746 464 Z" stroke-miterlimit="10"/></g><g transform="translate(2,-38) scale(1,1)"><g><path fill="none" stroke="none"/><text fill="#000000" stroke="none" font-family="Arial" font-size="13px" font-style="normal" font-weight="bold" text-decoration="none" x="740.5" y="482.5">Kiểm tra thông tin gia hạn "Tài liệu gia hạn"</text></g></g><g transform="translate(2,-38) scale(1,1)"><path fill="#C0C0C0" stroke="none" d="M 871 584.5 L 882.5 575 L 893 584.5 L 882.5 593 L 871 584.5" opacity="0.2"/></g><g transform="translate(2,-38) scale(1,1)"><path fill="#ffffff" stroke="none" d="M 864 577 L 875 568 L 886 577 L 875 586 L 864 577"/></g><g transform="translate(2,-38) scale(1,1)"><path fill="none" stroke="#000000" d="M 864 577 L 875 568 L 886 577 L 875 586 L 864 577 L 864 577" stroke-miterlimit="10"/></g><g transform="translate(2,-38) scale(1,1)"><path fill="none" stroke="#000000" d="M 863 577 L 48 576 L 48 384 L 399 387" stroke-miterlimit="10"/></g><g transform="translate(2,-38) scale(1,1)"><path fill="none" stroke="#000000" d="M 388.8017188504626 391.1225067125464 L 399 387 L 388.87367379078654 382.7037786946438" stroke-miterlimit="10"/></g><g transform="translate(2,-38) scale(1,1)"><path fill="#C0C0C0" stroke="none" d="M 850 631 L 913 631 Q 916 631 916 634 L 916 633 Q 916 636 913 636 L 850 636 Q 847 636 847 633 L 847 634 Q 847 631 850 631 Z" opacity="0.2"/></g><g transform="translate(2,-38) scale(1,1)"><path fill="#000000" stroke="none" d="M 843 624 L 906 624 Q 909 624 909 627 L 909 627 Q 909 630 906 630 L 843 630 Q 840 630 840 627 L 840 627 Q 840 624 843 624 Z"/></g><g transform="translate(2,-38) scale(1,1)"><path fill="#C0C0C0" stroke="none" d="M 665 695 L 923.98486328125 695 Q 933.98486328125 695 933.98486328125 705 L 933.98486328125 725 Q 933.98486328125 735 923.98486328125 735 L 665 735 Q 655 735 655 725 L 655 705 Q 655 695 665 695 Z" opacity="0.2"/></g><g transform="translate(2,-38) scale(1,1)"><path fill="#ffffff" stroke="none" d="M 658 688 L 916.98486328125 688 Q 926.98486328125 688 926.98486328125 698 L 926.98486328125 718 Q 926.98486328125 728 916.98486328125 728 L 658 728 Q 648 728 648 718 L 648 698 Q 648 688 658 688 Z"/></g><g transform="translate(2,-38) scale(1,1)"><path fill="none" stroke="#000000" d="M 658 688 L 916.98486328125 688 Q 926.98486328125 688 926.98486328125 698 L 926.98486328125 718 Q 926.98486328125 728 916.98486328125 728 L 658 728 Q 648 728 648 718 L 648 698 Q 648 688 658 688 Z" stroke-miterlimit="10"/></g><g transform="translate(2,-38) scale(1,1)"><g><path fill="none" stroke="none"/><text fill="#000000" stroke="none" font-family="Arial" font-size="13px" font-style="normal" font-weight="bold" text-decoration="none" x="652.5" y="706.5">Cập nhật thông tin gia hạn vào phiếu mượn</text></g></g><g transform="translate(2,-38) scale(1,1)"><path fill="#C0C0C0" stroke="none" d="M 977 695 L 1183.4833984375 695 Q 1193.4833984375 695 1193.4833984375 705 L 1193.4833984375 725 Q 1193.4833984375 735 1183.4833984375 735 L 977 735 Q 967 735 967 725 L 967 705 Q 967 695 977 695 Z" opacity="0.2"/></g><g transform="translate(2,-38) scale(1,1)"><path fill="#ffffff" stroke="none" d="M 970 688 L 1176.4833984375 688 Q 1186.4833984375 688 1186.4833984375 698 L 1186.4833984375 718 Q 1186.4833984375 728 1176.4833984375 728 L 970 728 Q 960 728 960 718 L 960 698 Q 960 688 970 688 Z"/></g><g transform="translate(2,-38) scale(1,1)"><path fill="none" stroke="#000000" d="M 970 688 L 1176.4833984375 688 Q 1186.4833984375 688 1186.4833984375 698 L 1186.4833984375 718 Q 1186.4833984375 728 1176.4833984375 728 L 970 728 Q 960 728 960 718 L 960 698 Q 960 688 970 688 Z" stroke-miterlimit="10"/></g><g transform="translate(2,-38) scale(1,1)"><g><path fill="none" stroke="none"/><text fill="#000000" stroke="none" font-family="Arial" font-size="13px" font-style="normal" font-weight="bold" text-decoration="none" x="964.5" y="706">Gửi gmail tin "gia hạn" cho độc giả</text></g></g><g transform="translate(2,-38) scale(1,1)"><path fill="#C0C0C0" stroke="none" d="M 401 695 L 593.70263671875 695 Q 603.70263671875 695 603.70263671875 705 L 603.70263671875 725 Q 603.70263671875 735 593.70263671875 735 L 401 735 Q 391 735 391 725 L 391 705 Q 391 695 401 695 Z" opacity="0.2"/></g><g transform="translate(2,-38) scale(1,1)"><path fill="#ffffff" stroke="none" d="M 394 688 L 586.70263671875 688 Q 596.70263671875 688 596.70263671875 698 L 596.70263671875 718 Q 596.70263671875 728 586.70263671875 728 L 394 728 Q 384 728 384 718 L 384 698 Q 384 688 394 688 Z"/></g><g transform="translate(2,-38) scale(1,1)"><path fill="none" stroke="#000000" d="M 394 688 L 586.70263671875 688 Q 596.70263671875 688 596.70263671875 698 L 596.70263671875 718 Q 596.70263671875 728 586.70263671875 728 L 394 728 Q 384 728 384 718 L 384 698 Q 384 688 394 688 Z" stroke-miterlimit="10"/></g><g transform="translate(2,-38) scale(1,1)"><g><path fill="none" stroke="none"/><text fill="#000000" stroke="none" font-family="Arial" font-size="13px" font-style="normal" font-weight="bold" text-decoration="none" x="388.5" y="706">Thông báo "Gia hạn" thành công</text></g></g><g transform="translate(2,-38) scale(1,1)"><path fill="none" stroke="#000000" d="M 161 100 L 160 135" stroke-miterlimit="10"/></g><g transform="translate(2,-38) scale(1,1)"><path fill="none" stroke="#000000" d="M 156.08244305941218 124.7212477597107 L 160 135 L 164.4980443328709 124.96169351038095" stroke-miterlimit="10"/></g><g transform="translate(2,-38) scale(1,1)"><path fill="none" stroke="#000000" d="M 158 177 L 158 207" stroke-miterlimit="10"/></g><g transform="translate(2,-38) scale(1,1)"><path fill="none" stroke="#000000" d="M 153.790482243984 196.83732514237585 L 158 207 L 162.209517756016 196.83732514237585" stroke-miterlimit="10"/></g><g transform="translate(2,-38) scale(1,1)"><path fill="none" stroke="#000000" d="M 158 249 L 160 287" stroke-miterlimit="10"/></g><g transform="translate(2,-38) scale(1,1)"><path fill="none" stroke="#000000" d="M 155.2621621840279 277.07261903473307 L 160 287 L 163.66956115212656 276.63012435220156" stroke-miterlimit="10"/></g><g transform="translate(2,-38) scale(1,1)"><path fill="none" stroke="#000000" d="M 252 308 L 783 308" stroke-miterlimit="10"/></g><g transform="translate(2,-38) scale(1,1)"><path fill="none" stroke="#000000" d="M 772.8373251423759 312.209517756016 L 783 308 L 772.8373251423758 303.790482243984" stroke-miterlimit="10"/></g><g transform="translate(2,-38) scale(1,1)"><path fill="none" stroke="#000000" d="M 882 329 L 880 384 L 579 387" stroke-miterlimit="10"/></g><g transform="translate(2,-38) scale(1,1)"><path fill="none" stroke="#000000" d="M 589.1202168894034 382.68940722041225 L 579 387 L 589.204123374956 391.10802460419546" stroke-miterlimit="10"/></g><g transform="translate(2,-38) scale(1,1)"><path fill="none" stroke="#000000" d="M 488 409 L 488 440 L 160 440 L 159 463" stroke-miterlimit="10"/></g><g transform="translate(2,-38) scale(1,1)"><path fill="none" stroke="#000000" d="M 155.23589374918507 452.6640673312673 L 159 463 L 163.64698302489055 453.02976686499363" stroke-miterlimit="10"/></g><g transform="translate(2,-38) scale(1,1)"><path fill="none" stroke="#000000" d="M 239 484 L 399 484" stroke-miterlimit="10"/></g><g transform="translate(2,-38) scale(1,1)"><path fill="none" stroke="#000000" d="M 388.83732514237585 488.209517756016 L 399 484 L 388.83732514237585 479.790482243984" stroke-miterlimit="10"/></g><g transform="translate(2,-38) scale(1,1)"><path fill="none" stroke="#000000" d="M 587 484 L 735 484" stroke-miterlimit="10"/></g><g transform="translate(2,-38) scale(1,1)"><path fill="none" stroke="#000000" d="M 724.8373251423759 488.209517756016 L 735 484 L 724.8373251423758 479.790482243984" stroke-miterlimit="10"/></g><g transform="translate(2,-38) scale(1,1)"><path fill="none" stroke="#000000" d="M 875 505 L 875 567" stroke-miterlimit="10"/></g><g transform="translate(2,-38) scale(1,1)"><path fill="none" stroke="#000000" d="M 870.790482243984 556.8373251423759 L 875 567 L 879.209517756016 556.8373251423759" stroke-miterlimit="10"/></g><g transform="translate(2,-38) scale(1,1)"><path fill="none" stroke="#000000" d="M 875 587 L 874 623" stroke-miterlimit="10"/></g><g transform="translate(2,-38) scale(1,1)"><path fill="none" stroke="#000000" d="M 870.0742930232062 612.7243576973333 L 874 623 L 878.4900823290208 612.9581296224949" stroke-miterlimit="10"/></g><g transform="translate(2,-38) scale(1,1)"><path fill="none" stroke="#000000" d="M 870 630 L 809 687" stroke-miterlimit="10"/></g><g transform="translate(2,-38) scale(1,1)"><path fill="none" stroke="#000000" d="M 813.551400963361 676.9857726573281 L 809 687 L 819.2994545474386 683.1371984227445" stroke-miterlimit="10"/></g><g transform="translate(2,-38) scale(1,1)"><path fill="none" stroke="#000000" d="M 884 630 L 1022 687" stroke-miterlimit="10"/></g><g transform="translate(2,-38) scale(1,1)"><path fill="none" stroke="#000000" d="M 1011.0000054905685 687.0109905630457 L 1022 687 L 1014.2140577877075 679.2296007910248" stroke-miterlimit="10"/></g><g transform="translate(2,-38) scale(1,1)"><path fill="none" stroke="#000000" d="M 855 630 L 588 687" stroke-miterlimit="10"/></g><g transform="translate(2,-38) scale(1,1)"><path fill="none" stroke="#000000" d="M 597.0598620550015 680.7614986139022 L 588 687 L 598.8175765302577 688.9950032611548" stroke-miterlimit="10"/></g><g transform="translate(2,-38) scale(1,1)"><path fill="#C0C0C0" stroke="none" d="M 850 791 L 913 791 Q 916 791 916 794 L 916 793 Q 916 796 913 796 L 850 796 Q 847 796 847 793 L 847 794 Q 847 791 850 791 Z" opacity="0.2"/></g><g transform="translate(2,-38) scale(1,1)"><path fill="#000000" stroke="none" d="M 843 784 L 906 784 Q 909 784 909 787 L 909 787 Q 909 790 906 790 L 843 790 Q 840 790 840 787 L 840 787 Q 840 784 843 784 Z"/></g><g transform="translate(2,-38) scale(1,1)"><path fill="none" stroke="#000000" d="M 593 729 L 859 783" stroke-miterlimit="10"/></g><g transform="translate(2,-38) scale(1,1)"><path fill="none" stroke="#000000" d="M 848.2029984881812 785.1035109587978 L 859 783 L 849.8779601512454 776.8527738777776" stroke-miterlimit="10"/></g><g transform="translate(2,-38) scale(1,1)"><path fill="none" stroke="#000000" d="M 810 729 L 871 783" stroke-miterlimit="10"/></g><g transform="translate(2,-38) scale(1,1)"><path fill="none" stroke="#000000" d="M 860.6003417218134 779.4157137813863 L 871 783 L 866.1808042003665 773.1118580185762" stroke-miterlimit="10"/></g><g transform="translate(2,-38) scale(1,1)"><path fill="none" stroke="#000000" d="M 1019 729 L 882 783" stroke-miterlimit="10"/></g><g transform="translate(2,-38) scale(1,1)"><path fill="none" stroke="#000000" d="M 889.91108333126 775.3570450396551 L 882 783 L 892.998365950829 783.1895953893026" stroke-miterlimit="10"/></g><g transform="translate(2,-38) scale(1,1)"><path fill="#C0C0C0" stroke="none" d="M 871 867.5 C 871 860.59644 876.59644 855 883.5 855 C 890.40356 855 896 860.59644 896 867.5 C 896 874.40356 890.40356 880 883.5 880 C 876.59644 880 871 874.40356 871 867.5 Z" opacity="0.2"/></g><g transform="translate(2,-38) scale(1,1)"><path fill="none" stroke="#000000" d="M 864 860.5 C 864 853.59644 869.59644 848 876.5 848 C 883.40356 848 889 853.59644 889 860.5 C 889 867.40356 883.40356 873 876.5 873 C 869.59644 873 864 867.40356 864 860.5 Z" stroke-miterlimit="10"/></g><g transform="translate(2,-38) scale(1,1)"><path fill="#000000" stroke="none" d="M 869 860.5 C 869 856.357864 872.357864 853 876.5 853 C 880.642136 853 884 856.357864 884 860.5 C 884 864.642136 880.642136 868 876.5 868 C 872.357864 868 869 864.642136 869 860.5 Z"/></g><g transform="translate(2,-38) scale(1,1)"><path fill="none" stroke="#000000" d="M 874 790 L 876 847" stroke-miterlimit="10"/></g><g transform="translate(2,-38) scale(1,1)"><path fill="none" stroke="#000000" d="M 871.4367053428537 836.9911867900305 L 876 847 L 879.8505630957784 836.6959637109805" stroke-miterlimit="10"/></g><g transform="translate(2,-38) scale(1,1)"><rect fill="#ffffff" stroke="none" x="8" y="48" width="311" height="21"/></g><g transform="translate(2,-38) scale(1,1)"><path fill="none" stroke="#000000" d="M 8 48 L 319 48 L 319 69 L 8 69 L 8 48 Z Z" stroke-miterlimit="10" stroke-width="2"/></g><g transform="translate(2,-38) scale(1,1)"><path fill="none" stroke="#000000" d="M 8 896 L 8 48 L 319 48 L 319 896" stroke-miterlimit="10" stroke-width="2"/></g><g transform="translate(2,-38) scale(1,1)"><g><path fill="none" stroke="none"/><text fill="#000000" stroke="none" font-family="Arial" font-size="13px" font-style="normal" font-weight="normal" text-decoration="none" x="140.02001953125" y="62">Độc Giả</text></g></g><g transform="translate(2,-38) scale(1,1)"><rect fill="#ffffff" stroke="none" x="320" y="48" width="295" height="21"/></g><g transform="translate(2,-38) scale(1,1)"><path fill="none" stroke="#000000" d="M 320 48 L 615 48 L 615 69 L 320 69 L 320 48 Z Z" stroke-miterlimit="10" stroke-width="2"/></g><g transform="translate(2,-38) scale(1,1)"><path fill="none" stroke="#000000" d="M 320 896 L 320 48 L 615 48 L 615 896" stroke-miterlimit="10" stroke-width="2"/></g><g transform="translate(2,-38) scale(1,1)"><g><path fill="none" stroke="none"/><text fill="#000000" stroke="none" font-family="Arial" font-size="13px" font-style="normal" font-weight="normal" text-decoration="none" x="440.40185546875" y="62">GiaoDiện</text></g></g><g transform="translate(2,-38) scale(1,1)"><rect fill="#ffffff" stroke="none" x="616" y="48" width="575" height="21"/></g><g transform="translate(2,-38) scale(1,1)"><path fill="none" stroke="#000000" d="M 616 48 L 1191 48 L 1191 69 L 616 69 L 616 48 Z Z" stroke-miterlimit="10" stroke-width="2"/></g><g transform="translate(2,-38) scale(1,1)"><path fill="none" stroke="#000000" d="M 616 896 L 616 48 L 1191 48 L 1191 896" stroke-miterlimit="10" stroke-width="2"/></g><g transform="translate(2,-38) scale(1,1)"><g><path fill="none" stroke="none"/><text fill="#000000" stroke="none" font-family="Arial" font-size="13px" font-style="normal" font-weight="normal" text-decoration="none" x="888.6845703125" y="62">Sách</text></g></g><g transform="translate(2,-38) scale(1,1)"><g><path fill="none" stroke="none"/><text fill="#000000" stroke="none" font-family="Arial" font-size="13px" font-style="normal" font-weight="normal" text-decoration="none" x="893" y="598">true</text></g></g><g transform="translate(2,-38) scale(1,1)"><g><path fill="none" stroke="none"/><text fill="#000000" stroke="none" font-family="Arial" font-size="13px" font-style="normal" font-weight="normal" text-decoration="none" x="821" y="559">false</text></g></g></g></svg>