<svg version="1.1" xmlns="http://www.w3.org/2000/svg" xmlns:xlink="http://www.w3.org/1999/xlink" width="1411" height="1564"><defs/><g><g transform="translate(2,-6) scale(1,1)"><path fill="#C0C0C0" stroke="none" d="M 143 80.5 C 143 75.2532944 147.2532944 71 152.5 71 C 157.7467056 71 162 75.2532944 162 80.5 C 162 85.7467056 157.7467056 90 152.5 90 C 147.2532944 90 143 85.7467056 143 80.5 Z" opacity="0.2"/></g><g transform="translate(2,-6) scale(1,1)"><path fill="#000000" stroke="none" d="M 136 73.5 C 136 68.2532944 140.2532944 64 145.5 64 C 150.7467056 64 155 68.2532944 155 73.5 C 155 78.7467056 150.7467056 83 145.5 83 C 140.2532944 83 136 78.7467056 136 73.5 Z"/></g><g transform="translate(2,-6) scale(1,1)"><path fill="#C0C0C0" stroke="none" d="M 1087 1507.5 C 1087 1500.59644 1092.59644 1495 1099.5 1495 C 1106.40356 1495 1112 1500.59644 1112 1507.5 C 1112 1514.40356 1106.40356 1520 1099.5 1520 C 1092.59644 1520 1087 1514.40356 1087 1507.5 Z" opacity="0.2"/></g><g transform="translate(2,-6) scale(1,1)"><path fill="none" stroke="#000000" d="M 1080 1500.5 C 1080 1493.59644 1085.59644 1488 1092.5 1488 C 1099.40356 1488 1105 1493.59644 1105 1500.5 C 1105 1507.40356 1099.40356 1513 1092.5 1513 C 1085.59644 1513 1080 1507.40356 1080 1500.5 Z" stroke-miterlimit="10"/></g><g transform="translate(2,-6) scale(1,1)"><path fill="#000000" stroke="none" d="M 1085 1500.5 C 1085 1496.357864 1088.357864 1493 1092.5 1493 C 1096.642136 1493 1100 1496.357864 1100 1500.5 C 1100 1504.642136 1096.642136 1508 1092.5 1508 C 1088.357864 1508 1085 1504.642136 1085 1500.5 Z"/></g><g transform="translate(2,-6) scale(1,1)"><path fill="#C0C0C0" stroke="none" d="M 57 183 L 251.181640625 183 Q 261.181640625 183 261.181640625 193 L 261.181640625 213 Q 261.181640625 223 251.181640625 223 L 57 223 Q 47 223 47 213 L 47 193 Q 47 183 57 183 Z" opacity="0.2"/></g><g transform="translate(2,-6) scale(1,1)"><path fill="#ffffff" stroke="none" d="M 50 176 L 244.181640625 176 Q 254.181640625 176 254.181640625 186 L 254.181640625 206 Q 254.181640625 216 244.181640625 216 L 50 216 Q 40 216 40 206 L 40 186 Q 40 176 50 176 Z"/></g><g transform="translate(2,-6) scale(1,1)"><path fill="none" stroke="#000000" d="M 50 176 L 244.181640625 176 Q 254.181640625 176 254.181640625 186 L 254.181640625 206 Q 254.181640625 216 244.181640625 216 L 50 216 Q 40 216 40 206 L 40 186 Q 40 176 50 176 Z" stroke-miterlimit="10"/></g><g transform="translate(2,-6) scale(1,1)"><g><path fill="none" stroke="none"/><text fill="#000000" stroke="none" font-family="Arial" font-size="13px" font-style="normal" font-weight="bold" text-decoration="none" x="44.5" y="194">Chọn "tìm tài liệu trong thư viện"</text></g></g><g transform="translate(2,-6) scale(1,1)"><path fill="#C0C0C0" stroke="none" d="M 121 123 L 180 123 Q 190 123 190 133 L 190 153 Q 190 163 180 163 L 121 163 Q 111 163 111 153 L 111 133 Q 111 123 121 123 Z" opacity="0.2"/></g><g transform="translate(2,-6) scale(1,1)"><path fill="#ffffff" stroke="none" d="M 114 116 L 173 116 Q 183 116 183 126 L 183 146 Q 183 156 173 156 L 114 156 Q 104 156 104 146 L 104 126 Q 104 116 114 116 Z"/></g><g transform="translate(2,-6) scale(1,1)"><path fill="none" stroke="#000000" d="M 114 116 L 173 116 Q 183 116 183 126 L 183 146 Q 183 156 173 156 L 114 156 Q 104 156 104 146 L 104 126 Q 104 116 114 116 Z" stroke-miterlimit="10"/></g><g transform="translate(2,-6) scale(1,1)"><path fill="none" stroke="#000000" d="M 157 143 C 157 141.3431456 158.3431456 140 160 140 C 161.6568544 140 163 141.3431456 163 143 C 163 144.6568544 161.6568544 146 160 146 C 158.3431456 146 157 144.6568544 157 143 Z" stroke-miterlimit="10"/></g><g transform="translate(2,-6) scale(1,1)"><path fill="none" stroke="#000000" d="M 163 143 L 169 143" stroke-miterlimit="10"/></g><g transform="translate(2,-6) scale(1,1)"><path fill="none" stroke="#000000" d="M 169 143 C 169 141.3431456 170.3431456 140 172 140 C 173.6568544 140 175 141.3431456 175 143 C 175 144.6568544 173.6568544 146 172 146 C 170.3431456 146 169 144.6568544 169 143 Z" stroke-miterlimit="10"/></g><g transform="translate(2,-6) scale(1,1)"><g><path fill="none" stroke="none"/><text fill="#000000" stroke="none" font-family="Arial" font-size="13px" font-style="normal" font-weight="bold" text-decoration="none" x="108.83544921875" y="134">:DangNhap</text></g></g><g transform="translate(2,-6) scale(1,1)"><path fill="none" stroke="#000000" d="M 145 84 L 144 115" stroke-miterlimit="10"/></g><g transform="translate(2,-6) scale(1,1)"><path fill="none" stroke="#000000" d="M 140.12032849992457 104.70688827168856 L 144 115 L 148.53498707612027 104.97832887092068" stroke-miterlimit="10"/></g><g transform="translate(2,-6) scale(1,1)"><path fill="none" stroke="#000000" d="M 144 157 L 146 175" stroke-miterlimit="10"/></g><g transform="translate(2,-6) scale(1,1)"><path fill="none" stroke="#000000" d="M 140.693949077946 165.36434622806684 L 146 175 L 149.06149153499416 164.4346192883948" stroke-miterlimit="10"/></g><g transform="translate(2,-6) scale(1,1)"><path fill="#C0C0C0" stroke="none" d="M 73 271 L 239.72802734375 271 Q 249.72802734375 271 249.72802734375 281 L 249.72802734375 301 Q 249.72802734375 311 239.72802734375 311 L 73 311 Q 63 311 63 301 L 63 281 Q 63 271 73 271 Z" opacity="0.2"/></g><g transform="translate(2,-6) scale(1,1)"><path fill="#ffffff" stroke="none" d="M 66 264 L 232.72802734375 264 Q 242.72802734375 264 242.72802734375 274 L 242.72802734375 294 Q 242.72802734375 304 232.72802734375 304 L 66 304 Q 56 304 56 294 L 56 274 Q 56 264 66 264 Z"/></g><g transform="translate(2,-6) scale(1,1)"><path fill="none" stroke="#000000" d="M 66 264 L 232.72802734375 264 Q 242.72802734375 264 242.72802734375 274 L 242.72802734375 294 Q 242.72802734375 304 232.72802734375 304 L 66 304 Q 56 304 56 294 L 56 274 Q 56 264 66 264 Z" stroke-miterlimit="10"/></g><g transform="translate(2,-6) scale(1,1)"><g><path fill="none" stroke="none"/><text fill="#000000" stroke="none" font-family="Arial" font-size="13px" font-style="normal" font-weight="bold" text-decoration="none" x="60.5" y="282.5">Nhập từ khóa vào ô tìm kiếm</text></g></g><g transform="translate(2,-6) scale(1,1)"><path fill="#C0C0C0" stroke="none" d="M 479 271 L 479 311 L 676.75 311 L 687 291.5 L 676.75 271" opacity="0.2"/></g><g transform="translate(2,-6) scale(1,1)"><path fill="#ffffff" stroke="none" d="M 472 264 L 472 304 L 669.75 304 L 680 284.5 L 669.75 264"/></g><g transform="translate(2,-6) scale(1,1)"><path fill="none" stroke="#000000" d="M 472 264 L 472 304 L 669.75 304 L 680 284.5 L 669.75 264 L 472 264" stroke-miterlimit="10"/></g><g transform="translate(2,-6) scale(1,1)"><g><path fill="none" stroke="none"/><text fill="#000000" stroke="none" font-family="Arial" font-size="13px" font-style="normal" font-weight="bold" text-decoration="none" x="499.755126953125" y="282.5">Nhận "từ khóa tìm kiếm"</text></g></g><g transform="translate(2,-6) scale(1,1)"><path fill="#C0C0C0" stroke="none" d="M 953 271 L 1118.1220703125 271 Q 1128.1220703125 271 1128.1220703125 281 L 1128.1220703125 301 Q 1128.1220703125 311 1118.1220703125 311 L 953 311 Q 943 311 943 301 L 943 281 Q 943 271 953 271 Z" opacity="0.2"/></g><g transform="translate(2,-6) scale(1,1)"><path fill="#ffffff" stroke="none" d="M 946 264 L 1111.1220703125 264 Q 1121.1220703125 264 1121.1220703125 274 L 1121.1220703125 294 Q 1121.1220703125 304 1111.1220703125 304 L 946 304 Q 936 304 936 294 L 936 274 Q 936 264 946 264 Z"/></g><g transform="translate(2,-6) scale(1,1)"><path fill="none" stroke="#000000" d="M 946 264 L 1111.1220703125 264 Q 1121.1220703125 264 1121.1220703125 274 L 1121.1220703125 294 Q 1121.1220703125 304 1111.1220703125 304 L 946 304 Q 936 304 936 294 L 936 274 Q 936 264 946 264 Z" stroke-miterlimit="10"/></g><g transform="translate(2,-6) scale(1,1)"><g><path fill="none" stroke="none"/><text fill="#000000" stroke="none" font-family="Arial" font-size="13px" font-style="normal" font-weight="bold" text-decoration="none" x="940.5" y="282.5">Dùng phương thức tìm kiếm</text></g></g><g transform="translate(2,-6) scale(1,1)"><path fill="#C0C0C0" stroke="none" d="M 57 423 L 272.05908203125 423 Q 282.05908203125 423 282.05908203125 433 L 282.05908203125 453 Q 282.05908203125 463 272.05908203125 463 L 57 463 Q 47 463 47 453 L 47 433 Q 47 423 57 423 Z" opacity="0.2"/></g><g transform="translate(2,-6) scale(1,1)"><path fill="#ffffff" stroke="none" d="M 50 416 L 265.05908203125 416 Q 275.05908203125 416 275.05908203125 426 L 275.05908203125 446 Q 275.05908203125 456 265.05908203125 456 L 50 456 Q 40 456 40 446 L 40 426 Q 40 416 50 416 Z"/></g><g transform="translate(2,-6) scale(1,1)"><path fill="none" stroke="#000000" d="M 50 416 L 265.05908203125 416 Q 275.05908203125 416 275.05908203125 426 L 275.05908203125 446 Q 275.05908203125 456 265.05908203125 456 L 50 456 Q 40 456 40 446 L 40 426 Q 40 416 50 416 Z" stroke-miterlimit="10"/></g><g transform="translate(2,-6) scale(1,1)"><g><path fill="none" stroke="none"/><text fill="#000000" stroke="none" font-family="Arial" font-size="13px" font-style="normal" font-weight="bold" text-decoration="none" x="44.5" y="434">Chọn loại hình tại bộ lọc Loại tài liệu</text></g></g><g transform="translate(2,-6) scale(1,1)"><path fill="#C0C0C0" stroke="none" d="M 497 343 L 639.1435546875 343 Q 649.1435546875 343 649.1435546875 353 L 649.1435546875 373 Q 649.1435546875 383 639.1435546875 383 L 497 383 Q 487 383 487 373 L 487 353 Q 487 343 497 343 Z" opacity="0.2"/></g><g transform="translate(2,-6) scale(1,1)"><path fill="#ffffff" stroke="none" d="M 490 336 L 632.1435546875 336 Q 642.1435546875 336 642.1435546875 346 L 642.1435546875 366 Q 642.1435546875 376 632.1435546875 376 L 490 376 Q 480 376 480 366 L 480 346 Q 480 336 490 336 Z"/></g><g transform="translate(2,-6) scale(1,1)"><path fill="none" stroke="#000000" d="M 490 336 L 632.1435546875 336 Q 642.1435546875 336 642.1435546875 346 L 642.1435546875 366 Q 642.1435546875 376 632.1435546875 376 L 490 376 Q 480 376 480 366 L 480 346 Q 480 336 490 336 Z" stroke-miterlimit="10"/></g><g transform="translate(2,-6) scale(1,1)"><g><path fill="none" stroke="none"/><text fill="#000000" stroke="none" font-family="Arial" font-size="13px" font-style="normal" font-weight="bold" text-decoration="none" x="484.5" y="354.5">Hiển thị kết quả tìm kiếm</text></g></g><g transform="translate(2,-6) scale(1,1)"><path fill="#C0C0C0" stroke="none" d="M 503 423 L 503 463 L 639.7734375 463 L 650.0234375 443.5 L 639.7734375 423" opacity="0.2"/></g><g transform="translate(2,-6) scale(1,1)"><path fill="#ffffff" stroke="none" d="M 496 416 L 496 456 L 632.7734375 456 L 643.0234375 436.5 L 632.7734375 416"/></g><g transform="translate(2,-6) scale(1,1)"><path fill="none" stroke="#000000" d="M 496 416 L 496 456 L 632.7734375 456 L 643.0234375 436.5 L 632.7734375 416 L 496 416" stroke-miterlimit="10"/></g><g transform="translate(2,-6) scale(1,1)"><g><path fill="none" stroke="none"/><text fill="#000000" stroke="none" font-family="Arial" font-size="13px" font-style="normal" font-weight="bold" text-decoration="none" x="500.5" y="434">Nhận "từ khóa bộ lọc"</text></g></g><g transform="translate(2,-6) scale(1,1)"><path fill="#C0C0C0" stroke="none" d="M 985 423 L 1116.162109375 423 Q 1126.162109375 423 1126.162109375 433 L 1126.162109375 453 Q 1126.162109375 463 1116.162109375 463 L 985 463 Q 975 463 975 453 L 975 433 Q 975 423 985 423 Z" opacity="0.2"/></g><g transform="translate(2,-6) scale(1,1)"><path fill="#ffffff" stroke="none" d="M 978 416 L 1109.162109375 416 Q 1119.162109375 416 1119.162109375 426 L 1119.162109375 446 Q 1119.162109375 456 1109.162109375 456 L 978 456 Q 968 456 968 446 L 968 426 Q 968 416 978 416 Z"/></g><g transform="translate(2,-6) scale(1,1)"><path fill="none" stroke="#000000" d="M 978 416 L 1109.162109375 416 Q 1119.162109375 416 1119.162109375 426 L 1119.162109375 446 Q 1119.162109375 456 1109.162109375 456 L 978 456 Q 968 456 968 446 L 968 426 Q 968 416 978 416 Z" stroke-miterlimit="10"/></g><g transform="translate(2,-6) scale(1,1)"><g><path fill="none" stroke="none"/><text fill="#000000" stroke="none" font-family="Arial" font-size="13px" font-style="normal" font-weight="bold" text-decoration="none" x="972.5" y="434">Dùng phương thức lọc</text></g></g><g transform="translate(2,-6) scale(1,1)"><path fill="#C0C0C0" stroke="none" d="M 473 503 L 685.9453125 503 Q 695.9453125 503 695.9453125 513 L 695.9453125 533 Q 695.9453125 543 685.9453125 543 L 473 543 Q 463 543 463 533 L 463 513 Q 463 503 473 503 Z" opacity="0.2"/></g><g transform="translate(2,-6) scale(1,1)"><path fill="#ffffff" stroke="none" d="M 466 496 L 678.9453125 496 Q 688.9453125 496 688.9453125 506 L 688.9453125 526 Q 688.9453125 536 678.9453125 536 L 466 536 Q 456 536 456 526 L 456 506 Q 456 496 466 496 Z"/></g><g transform="translate(2,-6) scale(1,1)"><path fill="none" stroke="#000000" d="M 466 496 L 678.9453125 496 Q 688.9453125 496 688.9453125 506 L 688.9453125 526 Q 688.9453125 536 678.9453125 536 L 466 536 Q 456 536 456 526 L 456 506 Q 456 496 466 496 Z" stroke-miterlimit="10"/></g><g transform="translate(2,-6) scale(1,1)"><g><path fill="none" stroke="none"/><text fill="#000000" stroke="none" font-family="Arial" font-size="13px" font-style="normal" font-weight="bold" text-decoration="none" x="460.5" y="514.5">Hiển thị kết quả tìm kiếm sau khi lọc</text></g></g><g transform="translate(2,-6) scale(1,1)"><path fill="#C0C0C0" stroke="none" d="M 73 575 L 236.73193359375 575 Q 246.73193359375 575 246.73193359375 585 L 246.73193359375 605 Q 246.73193359375 615 236.73193359375 615 L 73 615 Q 63 615 63 605 L 63 585 Q 63 575 73 575 Z" opacity="0.2"/></g><g transform="translate(2,-6) scale(1,1)"><path fill="#ffffff" stroke="none" d="M 66 568 L 229.73193359375 568 Q 239.73193359375 568 239.73193359375 578 L 239.73193359375 598 Q 239.73193359375 608 229.73193359375 608 L 66 608 Q 56 608 56 598 L 56 578 Q 56 568 66 568 Z"/></g><g transform="translate(2,-6) scale(1,1)"><path fill="none" stroke="#000000" d="M 66 568 L 229.73193359375 568 Q 239.73193359375 568 239.73193359375 578 L 239.73193359375 598 Q 239.73193359375 608 229.73193359375 608 L 66 608 Q 56 608 56 598 L 56 578 Q 56 568 66 568 Z" stroke-miterlimit="10"/></g><g transform="translate(2,-6) scale(1,1)"><g><path fill="none" stroke="none"/><text fill="#000000" stroke="none" font-family="Arial" font-size="13px" font-style="normal" font-weight="bold" text-decoration="none" x="60.5" y="586">Chọn "Đăng ký mượn sách"</text></g></g><g transform="translate(2,-6) scale(1,1)"><path fill="#C0C0C0" stroke="none" d="M 497 575 L 659.265625 575 Q 669.265625 575 669.265625 585 L 669.265625 605 Q 669.265625 615 659.265625 615 L 497 615 Q 487 615 487 605 L 487 585 Q 487 575 497 575 Z" opacity="0.2"/></g><g transform="translate(2,-6) scale(1,1)"><path fill="#ffffff" stroke="none" d="M 490 568 L 652.265625 568 Q 662.265625 568 662.265625 578 L 662.265625 598 Q 662.265625 608 652.265625 608 L 490 608 Q 480 608 480 598 L 480 578 Q 480 568 490 568 Z"/></g><g transform="translate(2,-6) scale(1,1)"><path fill="none" stroke="#000000" d="M 490 568 L 652.265625 568 Q 662.265625 568 662.265625 578 L 662.265625 598 Q 662.265625 608 652.265625 608 L 490 608 Q 480 608 480 598 L 480 578 Q 480 568 490 568 Z" stroke-miterlimit="10"/></g><g transform="translate(2,-6) scale(1,1)"><g><path fill="none" stroke="none"/><text fill="#000000" stroke="none" font-family="Arial" font-size="13px" font-style="normal" font-weight="bold" text-decoration="none" x="484.5" y="586.5">Hiển thị form "Phiếu mượn"</text></g></g><g transform="translate(2,-6) scale(1,1)"><path fill="#C0C0C0" stroke="none" d="M 49 735 L 318.109375 735 Q 328.109375 735 328.109375 745 L 328.109375 765 Q 328.109375 775 318.109375 775 L 49 775 Q 39 775 39 765 L 39 745 Q 39 735 49 735 Z" opacity="0.2"/></g><g transform="translate(2,-6) scale(1,1)"><path fill="#ffffff" stroke="none" d="M 42 728 L 311.109375 728 Q 321.109375 728 321.109375 738 L 321.109375 758 Q 321.109375 768 311.109375 768 L 42 768 Q 32 768 32 758 L 32 738 Q 32 728 42 728 Z"/></g><g transform="translate(2,-6) scale(1,1)"><path fill="none" stroke="#000000" d="M 42 728 L 311.109375 728 Q 321.109375 728 321.109375 738 L 321.109375 758 Q 321.109375 768 311.109375 768 L 42 768 Q 32 768 32 758 L 32 738 Q 32 728 42 728 Z" stroke-miterlimit="10"/></g><g transform="translate(2,-6) scale(1,1)"><g><path fill="none" stroke="none"/><text fill="#000000" stroke="none" font-family="Arial" font-size="13px" font-style="normal" font-weight="bold" text-decoration="none" x="36.5" y="746.5">Thêm các sách cần mượn vào "Phiếu mượn"</text></g></g><g transform="translate(2,-6) scale(1,1)"><path fill="#C0C0C0" stroke="none" d="M 479 735 L 479 775 L 662.54931640625 775 L 672.79931640625 755.5 L 662.54931640625 735" opacity="0.2"/></g><g transform="translate(2,-6) scale(1,1)"><path fill="#ffffff" stroke="none" d="M 472 728 L 472 768 L 655.54931640625 768 L 665.79931640625 748.5 L 655.54931640625 728"/></g><g transform="translate(2,-6) scale(1,1)"><path fill="none" stroke="#000000" d="M 472 728 L 472 768 L 655.54931640625 768 L 665.79931640625 748.5 L 655.54931640625 728 L 472 728" stroke-miterlimit="10"/></g><g transform="translate(2,-6) scale(1,1)"><g><path fill="none" stroke="none"/><text fill="#000000" stroke="none" font-family="Arial" font-size="13px" font-style="normal" font-weight="bold" text-decoration="none" x="476.5" y="746.5">Nhận thông tin "Phiếu mượn"</text></g></g><g transform="translate(2,-6) scale(1,1)"><path fill="#C0C0C0" stroke="none" d="M 409 1343 L 683.21923828125 1343 Q 693.21923828125 1343 693.21923828125 1353 L 693.21923828125 1373 Q 693.21923828125 1383 683.21923828125 1383 L 409 1383 Q 399 1383 399 1373 L 399 1353 Q 399 1343 409 1343 Z" opacity="0.2"/></g><g transform="translate(2,-6) scale(1,1)"><path fill="#ffffff" stroke="none" d="M 402 1336 L 676.21923828125 1336 Q 686.21923828125 1336 686.21923828125 1346 L 686.21923828125 1366 Q 686.21923828125 1376 676.21923828125 1376 L 402 1376 Q 392 1376 392 1366 L 392 1346 Q 392 1336 402 1336 Z"/></g><g transform="translate(2,-6) scale(1,1)"><path fill="none" stroke="#000000" d="M 402 1336 L 676.21923828125 1336 Q 686.21923828125 1336 686.21923828125 1346 L 686.21923828125 1366 Q 686.21923828125 1376 676.21923828125 1376 L 402 1376 Q 392 1376 392 1366 L 392 1346 Q 392 1336 402 1336 Z" stroke-miterlimit="10"/></g><g transform="translate(2,-6) scale(1,1)"><g><path fill="none" stroke="none"/><text fill="#000000" stroke="none" font-family="Arial" font-size="13px" font-style="normal" font-weight="bold" text-decoration="none" x="396.5" y="1354">Thông báo  "Đăng ký mượn sách" thành công</text></g></g><g transform="translate(2,-6) scale(1,1)"><path fill="#C0C0C0" stroke="none" d="M 1089 1343 L 1366.84375 1343 Q 1376.84375 1343 1376.84375 1353 L 1376.84375 1373 Q 1376.84375 1383 1366.84375 1383 L 1089 1383 Q 1079 1383 1079 1373 L 1079 1353 Q 1079 1343 1089 1343 Z" opacity="0.2"/></g><g transform="translate(2,-6) scale(1,1)"><path fill="#ffffff" stroke="none" d="M 1082 1336 L 1359.84375 1336 Q 1369.84375 1336 1369.84375 1346 L 1369.84375 1366 Q 1369.84375 1376 1359.84375 1376 L 1082 1376 Q 1072 1376 1072 1366 L 1072 1346 Q 1072 1336 1082 1336 Z"/></g><g transform="translate(2,-6) scale(1,1)"><path fill="none" stroke="#000000" d="M 1082 1336 L 1359.84375 1336 Q 1369.84375 1336 1369.84375 1346 L 1369.84375 1366 Q 1369.84375 1376 1359.84375 1376 L 1082 1376 Q 1072 1376 1072 1366 L 1072 1346 Q 1072 1336 1082 1336 Z" stroke-miterlimit="10"/></g><g transform="translate(2,-6) scale(1,1)"><g><path fill="none" stroke="none"/><text fill="#000000" stroke="none" font-family="Arial" font-size="13px" font-style="normal" font-weight="bold" text-decoration="none" x="1076.5" y="1354.5">Gửi gmail thông tin "Phiếu mượn" cho độc giả</text></g></g><g transform="translate(2,-6) scale(1,1)"><path fill="#C0C0C0" stroke="none" d="M 873 1343 L 1026.53759765625 1343 Q 1036.53759765625 1343 1036.53759765625 1353 L 1036.53759765625 1373 Q 1036.53759765625 1383 1026.53759765625 1383 L 873 1383 Q 863 1383 863 1373 L 863 1353 Q 863 1343 873 1343 Z" opacity="0.2"/></g><g transform="translate(2,-6) scale(1,1)"><path fill="#ffffff" stroke="none" d="M 866 1336 L 1019.53759765625 1336 Q 1029.53759765625 1336 1029.53759765625 1346 L 1029.53759765625 1366 Q 1029.53759765625 1376 1019.53759765625 1376 L 866 1376 Q 856 1376 856 1366 L 856 1346 Q 856 1336 866 1336 Z"/></g><g transform="translate(2,-6) scale(1,1)"><path fill="none" stroke="#000000" d="M 866 1336 L 1019.53759765625 1336 Q 1029.53759765625 1336 1029.53759765625 1346 L 1029.53759765625 1366 Q 1029.53759765625 1376 1019.53759765625 1376 L 866 1376 Q 856 1376 856 1366 L 856 1346 Q 856 1336 866 1336 Z" stroke-miterlimit="10"/></g><g transform="translate(2,-6) scale(1,1)"><g><path fill="none" stroke="none"/><text fill="#000000" stroke="none" font-family="Arial" font-size="13px" font-style="normal" font-weight="bold" text-decoration="none" x="860.5" y="1354.5">Lưu thông tin phiếu mượn</text></g></g><g transform="translate(2,-6) scale(1,1)"><path fill="#C0C0C0" stroke="none" d="M 937 735 L 1195.31201171875 735 Q 1205.31201171875 735 1205.31201171875 745 L 1205.31201171875 765 Q 1205.31201171875 775 1195.31201171875 775 L 937 775 Q 927 775 927 765 L 927 745 Q 927 735 937 735 Z" opacity="0.2"/></g><g transform="translate(2,-6) scale(1,1)"><path fill="#ffffff" stroke="none" d="M 930 728 L 1188.31201171875 728 Q 1198.31201171875 728 1198.31201171875 738 L 1198.31201171875 758 Q 1198.31201171875 768 1188.31201171875 768 L 930 768 Q 920 768 920 758 L 920 738 Q 920 728 930 728 Z"/></g><g transform="translate(2,-6) scale(1,1)"><path fill="none" stroke="#000000" d="M 930 728 L 1188.31201171875 728 Q 1198.31201171875 728 1198.31201171875 738 L 1198.31201171875 758 Q 1198.31201171875 768 1188.31201171875 768 L 930 768 Q 920 768 920 758 L 920 738 Q 920 728 930 728 Z" stroke-miterlimit="10"/></g><g transform="translate(2,-6) scale(1,1)"><g><path fill="none" stroke="none"/><text fill="#000000" stroke="none" font-family="Arial" font-size="13px" font-style="normal" font-weight="bold" text-decoration="none" x="924.5" y="746.5">Kiểm tra số lượng từng sách còn trong kho</text></g></g><g transform="translate(2,-6) scale(1,1)"><path fill="#C0C0C0" stroke="none" d="M 977 879 L 1166.1416015625 879 Q 1176.1416015625 879 1176.1416015625 889 L 1176.1416015625 909 Q 1176.1416015625 919 1166.1416015625 919 L 977 919 Q 967 919 967 909 L 967 889 Q 967 879 977 879 Z" opacity="0.2"/></g><g transform="translate(2,-6) scale(1,1)"><path fill="#ffffff" stroke="none" d="M 970 872 L 1159.1416015625 872 Q 1169.1416015625 872 1169.1416015625 882 L 1169.1416015625 902 Q 1169.1416015625 912 1159.1416015625 912 L 970 912 Q 960 912 960 902 L 960 882 Q 960 872 970 872 Z"/></g><g transform="translate(2,-6) scale(1,1)"><path fill="none" stroke="#000000" d="M 970 872 L 1159.1416015625 872 Q 1169.1416015625 872 1169.1416015625 882 L 1169.1416015625 902 Q 1169.1416015625 912 1159.1416015625 912 L 970 912 Q 960 912 960 902 L 960 882 Q 960 872 970 872 Z" stroke-miterlimit="10"/></g><g transform="translate(2,-6) scale(1,1)"><g><path fill="none" stroke="none"/><text fill="#000000" stroke="none" font-family="Arial" font-size="13px" font-style="normal" font-weight="bold" text-decoration="none" x="964.5" y="890.5">Kiểm tra từng sách có bản cứng</text></g></g><g transform="translate(2,-6) scale(1,1)"><path fill="#C0C0C0" stroke="none" d="M 953 1031 L 1206.900390625 1031 Q 1216.900390625 1031 1216.900390625 1041 L 1216.900390625 1061 Q 1216.900390625 1071 1206.900390625 1071 L 953 1071 Q 943 1071 943 1061 L 943 1041 Q 943 1031 953 1031 Z" opacity="0.2"/></g><g transform="translate(2,-6) scale(1,1)"><path fill="#ffffff" stroke="none" d="M 946 1024 L 1199.900390625 1024 Q 1209.900390625 1024 1209.900390625 1034 L 1209.900390625 1054 Q 1209.900390625 1064 1199.900390625 1064 L 946 1064 Q 936 1064 936 1054 L 936 1034 Q 936 1024 946 1024 Z"/></g><g transform="translate(2,-6) scale(1,1)"><path fill="none" stroke="#000000" d="M 946 1024 L 1199.900390625 1024 Q 1209.900390625 1024 1209.900390625 1034 L 1209.900390625 1054 Q 1209.900390625 1064 1199.900390625 1064 L 946 1064 Q 936 1064 936 1054 L 936 1034 Q 936 1024 946 1024 Z" stroke-miterlimit="10"/></g><g transform="translate(2,-6) scale(1,1)"><g><path fill="none" stroke="none"/><text fill="#000000" stroke="none" font-family="Arial" font-size="13px" font-style="normal" font-weight="bold" text-decoration="none" x="940.5" y="1042.5">Kiểm tra từng sách có được mượn đem về</text></g></g><g transform="translate(2,-6) scale(1,1)"><path fill="#C0C0C0" stroke="none" d="M 1055 832.5 L 1066.5 823 L 1077 832.5 L 1066.5 841 L 1055 832.5" opacity="0.2"/></g><g transform="translate(2,-6) scale(1,1)"><path fill="#ffffff" stroke="none" d="M 1048 825 L 1059 816 L 1070 825 L 1059 834 L 1048 825"/></g><g transform="translate(2,-6) scale(1,1)"><path fill="none" stroke="#000000" d="M 1048 825 L 1059 816 L 1070 825 L 1059 834 L 1048 825 L 1048 825" stroke-miterlimit="10"/></g><g transform="translate(2,-6) scale(1,1)"><path fill="#C0C0C0" stroke="none" d="M 457 959 L 653.15576171875 959 Q 663.15576171875 959 663.15576171875 969 L 663.15576171875 989 Q 663.15576171875 999 653.15576171875 999 L 457 999 Q 447 999 447 989 L 447 969 Q 447 959 457 959 Z" opacity="0.2"/></g><g transform="translate(2,-6) scale(1,1)"><path fill="#ffffff" stroke="none" d="M 450 952 L 646.15576171875 952 Q 656.15576171875 952 656.15576171875 962 L 656.15576171875 982 Q 656.15576171875 992 646.15576171875 992 L 450 992 Q 440 992 440 982 L 440 962 Q 440 952 450 952 Z"/></g><g transform="translate(2,-6) scale(1,1)"><path fill="none" stroke="#000000" d="M 450 952 L 646.15576171875 952 Q 656.15576171875 952 656.15576171875 962 L 656.15576171875 982 Q 656.15576171875 992 646.15576171875 992 L 450 992 Q 440 992 440 982 L 440 962 Q 440 952 450 952 Z" stroke-miterlimit="10"/></g><g transform="translate(2,-6) scale(1,1)"><g><path fill="none" stroke="none"/><text fill="#000000" stroke="none" font-family="Arial" font-size="13px" font-style="normal" font-weight="bold" text-decoration="none" x="444.5" y="970.5">Thông báo sách không thể mượn</text></g></g><g transform="translate(2,-6) scale(1,1)"><path fill="#C0C0C0" stroke="none" d="M 1071 1128.5 L 1082.5 1119 L 1093 1128.5 L 1082.5 1137 L 1071 1128.5" opacity="0.2"/></g><g transform="translate(2,-6) scale(1,1)"><path fill="#ffffff" stroke="none" d="M 1064 1121 L 1075 1112 L 1086 1121 L 1075 1130 L 1064 1121"/></g><g transform="translate(2,-6) scale(1,1)"><path fill="none" stroke="#000000" d="M 1064 1121 L 1075 1112 L 1086 1121 L 1075 1130 L 1064 1121 L 1064 1121" stroke-miterlimit="10"/></g><g transform="translate(2,-6) scale(1,1)"><path fill="#C0C0C0" stroke="none" d="M 1063 976.5 L 1074.5 967 L 1085 976.5 L 1074.5 985 L 1063 976.5" opacity="0.2"/></g><g transform="translate(2,-6) scale(1,1)"><path fill="#ffffff" stroke="none" d="M 1056 969 L 1067 960 L 1078 969 L 1067 978 L 1056 969"/></g><g transform="translate(2,-6) scale(1,1)"><path fill="none" stroke="#000000" d="M 1056 969 L 1067 960 L 1078 969 L 1067 978 L 1056 969 L 1056 969" stroke-miterlimit="10"/></g><g transform="translate(2,-6) scale(1,1)"><path fill="none" stroke="#000000" d="M 1059 769 L 1059 815" stroke-miterlimit="10"/></g><g transform="translate(2,-6) scale(1,1)"><path fill="none" stroke="#000000" d="M 1054.7904822439841 804.8373251423759 L 1059 815 L 1063.2095177560159 804.8373251423759" stroke-miterlimit="10"/></g><g transform="translate(2,-6) scale(1,1)"><path fill="none" stroke="#000000" d="M 1065 913 L 1067 959" stroke-miterlimit="10"/></g><g transform="translate(2,-6) scale(1,1)"><path fill="none" stroke="#000000" d="M 1062.3530169751095 949.0297668649936 L 1067 959 L 1070.7641062508148 948.6640673312673" stroke-miterlimit="10"/></g><g transform="translate(2,-6) scale(1,1)"><path fill="none" stroke="#000000" d="M 1073 1065 L 1075 1111" stroke-miterlimit="10"/></g><g transform="translate(2,-6) scale(1,1)"><path fill="none" stroke="#000000" d="M 1070.3530169751095 1101.0297668649937 L 1075 1111 L 1078.7641062508148 1100.6640673312672" stroke-miterlimit="10"/></g><g transform="translate(2,-6) scale(1,1)"><path fill="none" stroke="#000000" d="M 1068 979 L 1071 1023" stroke-miterlimit="10"/></g><g transform="translate(2,-6) scale(1,1)"><path fill="none" stroke="#000000" d="M 1066.108928123078 1013.1472127854712 L 1071 1023 L 1074.5084625615389 1012.5745172555761" stroke-miterlimit="10"/></g><g transform="translate(2,-6) scale(1,1)"><path fill="none" stroke="#000000" d="M 1060 835 L 1062 871" stroke-miterlimit="10"/></g><g transform="translate(2,-6) scale(1,1)"><path fill="none" stroke="#000000" d="M 1057.2332396407342 861.0864741046724 L 1062 871 L 1065.6393128117265 860.6194700396172" stroke-miterlimit="10"/></g><g transform="translate(2,-6) scale(1,1)"><path fill="none" stroke="#000000" d="M 1047 825 L 872 824 L 872 968 L 657 971" stroke-miterlimit="10"/></g><g transform="translate(2,-6) scale(1,1)"><path fill="none" stroke="#000000" d="M 667.1029539266865 966.649101017577 L 657 971 L 667.2204174063043 975.0673170568464" stroke-miterlimit="10"/></g><g transform="translate(2,-6) scale(1,1)"><path fill="none" stroke="#000000" d="M 1055 969 L 657 971" stroke-miterlimit="10"/></g><g transform="translate(2,-6) scale(1,1)"><path fill="none" stroke="#000000" d="M 667.1413934582108 966.7394673190131 L 657 971 L 667.1836996351745 975.1583965347891" stroke-miterlimit="10"/></g><g transform="translate(2,-6) scale(1,1)"><path fill="none" stroke="#000000" d="M 1063 1120 L 872 1112 L 872 968 L 657 971" stroke-miterlimit="10"/></g><g transform="translate(2,-6) scale(1,1)"><path fill="none" stroke="#000000" d="M 667.1029539266865 966.649101017577 L 657 971 L 667.2204174063043 975.0673170568464" stroke-miterlimit="10"/></g><g transform="translate(2,-6) scale(1,1)"><path fill="#C0C0C0" stroke="none" d="M 991 1183 L 991 1223 L 1179.62109375 1223 L 1189.87109375 1203.5 L 1179.62109375 1183" opacity="0.2"/></g><g transform="translate(2,-6) scale(1,1)"><path fill="#ffffff" stroke="none" d="M 984 1176 L 984 1216 L 1172.62109375 1216 L 1182.87109375 1196.5 L 1172.62109375 1176"/></g><g transform="translate(2,-6) scale(1,1)"><path fill="none" stroke="#000000" d="M 984 1176 L 984 1216 L 1172.62109375 1216 L 1182.87109375 1196.5 L 1172.62109375 1176 L 984 1176" stroke-miterlimit="10"/></g><g transform="translate(2,-6) scale(1,1)"><g><path fill="none" stroke="none"/><text fill="#000000" stroke="none" font-family="Arial" font-size="13px" font-style="normal" font-weight="bold" text-decoration="none" x="988.5" y="1194.5">Tạo "Phiếu mượn" thành công</text></g></g><g transform="translate(2,-6) scale(1,1)"><path fill="#C0C0C0" stroke="none" d="M 1034 1271 L 1164 1271 Q 1167 1271 1167 1274 L 1167 1273 Q 1167 1276 1164 1276 L 1034 1276 Q 1031 1276 1031 1273 L 1031 1274 Q 1031 1271 1034 1271 Z" opacity="0.2"/></g><g transform="translate(2,-6) scale(1,1)"><path fill="#000000" stroke="none" d="M 1027 1264 L 1157 1264 Q 1160 1264 1160 1267 L 1160 1267 Q 1160 1270 1157 1270 L 1027 1270 Q 1024 1270 1024 1267 L 1024 1267 Q 1024 1264 1027 1264 Z"/></g><g transform="translate(2,-6) scale(1,1)"><path fill="#C0C0C0" stroke="none" d="M 1034 1447 L 1163 1447 Q 1166 1447 1166 1450 L 1166 1449 Q 1166 1452 1163 1452 L 1034 1452 Q 1031 1452 1031 1449 L 1031 1450 Q 1031 1447 1034 1447 Z" opacity="0.2"/></g><g transform="translate(2,-6) scale(1,1)"><path fill="#000000" stroke="none" d="M 1027 1440 L 1156 1440 Q 1159 1440 1159 1443 L 1159 1443 Q 1159 1446 1156 1446 L 1027 1446 Q 1024 1446 1024 1443 L 1024 1443 Q 1024 1440 1027 1440 Z"/></g><g transform="translate(2,-6) scale(1,1)"><path fill="none" stroke="#000000" d="M 147 217 L 149 263" stroke-miterlimit="10"/></g><g transform="translate(2,-6) scale(1,1)"><path fill="none" stroke="#000000" d="M 144.35301697510945 253.02976686499363 L 149 263 L 152.76410625081493 252.6640673312673" stroke-miterlimit="10"/></g><g transform="translate(2,-6) scale(1,1)"><path fill="none" stroke="#000000" d="M 244 284 L 471 284" stroke-miterlimit="10"/></g><g transform="translate(2,-6) scale(1,1)"><path fill="none" stroke="#000000" d="M 460.83732514237585 288.209517756016 L 471 284 L 460.83732514237585 279.790482243984" stroke-miterlimit="10"/></g><g transform="translate(2,-6) scale(1,1)"><path fill="none" stroke="#000000" d="M 681 284 L 935 284" stroke-miterlimit="10"/></g><g transform="translate(2,-6) scale(1,1)"><path fill="none" stroke="#000000" d="M 924.8373251423759 288.209517756016 L 935 284 L 924.8373251423758 279.790482243984" stroke-miterlimit="10"/></g><g transform="translate(2,-6) scale(1,1)"><path fill="none" stroke="#000000" d="M 1029 305 L 1032 360 L 643 357" stroke-miterlimit="10"/></g><g transform="translate(2,-6) scale(1,1)"><path fill="none" stroke="#000000" d="M 653.1948358342377 352.86898047536175 L 643 357 L 653.1299094705588 361.28776563238733" stroke-miterlimit="10"/></g><g transform="translate(2,-6) scale(1,1)"><path fill="none" stroke="#000000" d="M 479 355 L 160 352 L 158 415" stroke-miterlimit="10"/></g><g transform="translate(2,-6) scale(1,1)"><path fill="none" stroke="#000000" d="M 154.11506398936774 404.7088741046816 L 158 415 L 162.52986030903023 404.976010495782" stroke-miterlimit="10"/></g><g transform="translate(2,-6) scale(1,1)"><path fill="none" stroke="#000000" d="M 276 436 L 495 436" stroke-miterlimit="10"/></g><g transform="translate(2,-6) scale(1,1)"><path fill="none" stroke="#000000" d="M 484.83732514237585 440.209517756016 L 495 436 L 484.83732514237585 431.790482243984" stroke-miterlimit="10"/></g><g transform="translate(2,-6) scale(1,1)"><path fill="none" stroke="#000000" d="M 644 436 L 967 436" stroke-miterlimit="10"/></g><g transform="translate(2,-6) scale(1,1)"><path fill="none" stroke="#000000" d="M 956.8373251423759 440.209517756016 L 967 436 L 956.8373251423758 431.790482243984" stroke-miterlimit="10"/></g><g transform="translate(2,-6) scale(1,1)"><path fill="none" stroke="#000000" d="M 1044 457 L 1048 520 L 690 517" stroke-miterlimit="10"/></g><g transform="translate(2,-6) scale(1,1)"><path fill="none" stroke="#000000" d="M 700.1975921020227 512.8757891275098 L 690 517 L 700.1270440020957 521.2945290521335" stroke-miterlimit="10"/></g><g transform="translate(2,-6) scale(1,1)"><path fill="none" stroke="#000000" d="M 455 515 L 144 512 L 146 567" stroke-miterlimit="10"/></g><g transform="translate(2,-6) scale(1,1)"><path fill="none" stroke="#000000" d="M 141.42395491583326 556.9970098776579 L 146 567 L 149.8374296376205 556.6910653423201" stroke-miterlimit="10"/></g><g transform="translate(2,-6) scale(1,1)"><path fill="none" stroke="#000000" d="M 241 588 L 479 588" stroke-miterlimit="10"/></g><g transform="translate(2,-6) scale(1,1)"><path fill="none" stroke="#000000" d="M 468.83732514237585 592.209517756016 L 479 588 L 468.83732514237585 583.790482243984" stroke-miterlimit="10"/></g><g transform="translate(2,-6) scale(1,1)"><path fill="none" stroke="#000000" d="M 519 609 L 228 727" stroke-miterlimit="10"/></g><g transform="translate(2,-6) scale(1,1)"><path fill="none" stroke="#000000" d="M 235.83599678854875 719.2800806785399 L 228 727 L 238.99969376895635 727.0820791641213" stroke-miterlimit="10"/></g><g transform="translate(2,-6) scale(1,1)"><path fill="none" stroke="#000000" d="M 322 748 L 471 748" stroke-miterlimit="10"/></g><g transform="translate(2,-6) scale(1,1)"><path fill="none" stroke="#000000" d="M 460.83732514237585 752.209517756016 L 471 748 L 460.83732514237585 743.790482243984" stroke-miterlimit="10"/></g><g transform="translate(2,-6) scale(1,1)"><path fill="none" stroke="#000000" d="M 667 748 L 919 748" stroke-miterlimit="10"/></g><g transform="translate(2,-6) scale(1,1)"><path fill="none" stroke="#000000" d="M 908.8373251423759 752.209517756016 L 919 748 L 908.8373251423758 743.790482243984" stroke-miterlimit="10"/></g><g transform="translate(2,-6) scale(1,1)"><path fill="none" stroke="#000000" d="M 439 973 L 176 976 L 176 769" stroke-miterlimit="10"/></g><g transform="translate(2,-6) scale(1,1)"><path fill="none" stroke="#000000" d="M 180.209517756016 779.1626748576241 L 176 769 L 171.790482243984 779.1626748576241" stroke-miterlimit="10"/></g><g transform="translate(2,-6) scale(1,1)"><path fill="none" stroke="#000000" d="M 1076 1131 L 1081 1175" stroke-miterlimit="10"/></g><g transform="translate(2,-6) scale(1,1)"><path fill="none" stroke="#000000" d="M 1075.669936589622 1165.377608195394 L 1081 1175 L 1084.0351345146382 1164.4270175220965" stroke-miterlimit="10"/></g><g transform="translate(2,-6) scale(1,1)"><path fill="none" stroke="#000000" d="M 1086 1217 L 1092 1263" stroke-miterlimit="10"/></g><g transform="translate(2,-6) scale(1,1)"><path fill="none" stroke="#000000" d="M 1086.5114083882077 1253.46714302431 L 1092 1263 L 1094.85972746373 1252.378231840546" stroke-miterlimit="10"/></g><g transform="translate(2,-6) scale(1,1)"><path fill="none" stroke="#000000" d="M 1085 1270 L 977 1335" stroke-miterlimit="10"/></g><g transform="translate(2,-6) scale(1,1)"><path fill="none" stroke="#000000" d="M 983.5366118517235 1326.1528136958743 L 977 1335 L 987.877987996406 1333.36617713627" stroke-miterlimit="10"/></g><g transform="translate(2,-6) scale(1,1)"><path fill="none" stroke="#000000" d="M 1067 1270 L 668 1335" stroke-miterlimit="10"/></g><g transform="translate(2,-6) scale(1,1)"><path fill="none" stroke="#000000" d="M 677.3536098590188 1329.2112192470895 L 668 1335 L 678.7072870850707 1337.5207148347004" stroke-miterlimit="10"/></g><g transform="translate(2,-6) scale(1,1)"><path fill="none" stroke="#000000" d="M 1098 1270 L 1190 1335" stroke-miterlimit="10"/></g><g transform="translate(2,-6) scale(1,1)"><path fill="none" stroke="#000000" d="M 1179.2708971601305 1332.573819410781 L 1190 1335 L 1184.1289473729005 1325.6978098788604" stroke-miterlimit="10"/></g><g transform="translate(2,-6) scale(1,1)"><path fill="none" stroke="#000000" d="M 978 1377 L 1086 1439" stroke-miterlimit="10"/></g><g transform="translate(2,-6) scale(1,1)"><path fill="none" stroke="#000000" d="M 1075.0906065981064 1437.5910515968565 L 1086 1439 L 1079.282170917094 1430.2896169766846" stroke-miterlimit="10"/></g><g transform="translate(2,-6) scale(1,1)"><path fill="none" stroke="#000000" d="M 1189 1377 L 1096 1439" stroke-miterlimit="10"/></g><g transform="translate(2,-6) scale(1,1)"><path fill="none" stroke="#000000" d="M 1102.1208362812704 1429.8602317743891 L 1096 1439 L 1106.7908769318217 1436.8652927502162" stroke-miterlimit="10"/></g><g transform="translate(2,-6) scale(1,1)"><path fill="none" stroke="#000000" d="M 674 1377 L 1072 1439" stroke-miterlimit="10"/></g><g transform="translate(2,-6) scale(1,1)"><path fill="none" stroke="#000000" d="M 1061.310495106335 1441.5950886551934 L 1072 1439 L 1062.6063738162952 1433.2763833880304" stroke-miterlimit="10"/></g><g transform="translate(2,-6) scale(1,1)"><path fill="none" stroke="#000000" d="M 1091 1446 L 1092 1487" stroke-miterlimit="10"/></g><g transform="translate(2,-6) scale(1,1)"><path fill="none" stroke="#000000" d="M 1087.543937348628 1476.9429872403855 L 1092 1487 L 1095.9604698026258 1476.7377059610199" stroke-miterlimit="10"/></g><g transform="translate(2,-6) scale(1,1)"><path fill="none" stroke="#000000" d="M 1091 1446 L 1092 1487" stroke-miterlimit="10"/></g><g transform="translate(2,-6) scale(1,1)"><path fill="none" stroke="#000000" d="M 1087.543937348628 1476.9429872403855 L 1092 1487 L 1095.9604698026258 1476.7377059610199" stroke-miterlimit="10"/></g><g transform="translate(2,-6) scale(1,1)"><g><path fill="none" stroke="none"/><text fill="#000000" stroke="none" font-family="Arial" font-size="13px" font-style="normal" font-weight="normal" text-decoration="none" x="1077" y="846">true</text></g></g><g transform="translate(2,-6) scale(1,1)"><g><path fill="none" stroke="none"/><text fill="#000000" stroke="none" font-family="Arial" font-size="13px" font-style="normal" font-weight="normal" text-decoration="none" x="989" y="815">false</text></g></g><g transform="translate(2,-6) scale(1,1)"><g><path fill="none" stroke="none"/><text fill="#000000" stroke="none" font-family="Arial" font-size="13px" font-style="normal" font-weight="normal" text-decoration="none" x="1093" y="1006">true</text></g></g><g transform="translate(2,-6) scale(1,1)"><g><path fill="none" stroke="none"/><text fill="#000000" stroke="none" font-family="Arial" font-size="13px" font-style="normal" font-weight="normal" text-decoration="none" x="989" y="959">false</text></g></g><g transform="translate(2,-6) scale(1,1)"><g><path fill="none" stroke="none"/><text fill="#000000" stroke="none" font-family="Arial" font-size="13px" font-style="normal" font-weight="normal" text-decoration="none" x="1101" y="1158">true</text></g></g><g transform="translate(2,-6) scale(1,1)"><g><path fill="none" stroke="none"/><text fill="#000000" stroke="none" font-family="Arial" font-size="13px" font-style="normal" font-weight="normal" text-decoration="none" x="989" y="1111">false</text></g></g><g transform="translate(2,-6) scale(1,1)"><rect fill="#ffffff" stroke="none" x="8" y="16" width="351" height="21"/></g><g transform="translate(2,-6) scale(1,1)"><path fill="none" stroke="#000000" d="M 8 16 L 359 16 L 359 37 L 8 37 L 8 16 Z Z" stroke-miterlimit="10" stroke-width="2"/></g><g transform="translate(2,-6) scale(1,1)"><path fill="none" stroke="#000000" d="M 8 1560 L 8 16 L 359 16 L 359 1560" stroke-miterlimit="10" stroke-width="2"/></g><g transform="translate(2,-6) scale(1,1)"><g><path fill="none" stroke="none"/><text fill="#000000" stroke="none" font-family="Arial" font-size="13px" font-style="normal" font-weight="normal" text-decoration="none" x="160.02001953125" y="30">Độc Giả</text></g></g><g transform="translate(2,-6) scale(1,1)"><rect fill="#ffffff" stroke="none" x="360" y="16" width="431" height="21"/></g><g transform="translate(2,-6) scale(1,1)"><path fill="none" stroke="#000000" d="M 360 16 L 791 16 L 791 37 L 360 37 L 360 16 Z Z" stroke-miterlimit="10" stroke-width="2"/></g><g transform="translate(2,-6) scale(1,1)"><path fill="none" stroke="#000000" d="M 360 1559 L 360 16 L 791 16 L 791 1559" stroke-miterlimit="10" stroke-width="2"/></g><g transform="translate(2,-6) scale(1,1)"><g><path fill="none" stroke="none"/><text fill="#000000" stroke="none" font-family="Arial" font-size="13px" font-style="normal" font-weight="normal" text-decoration="none" x="546.595947265625" y="30">Giao Diện</text></g></g><g transform="translate(2,-6) scale(1,1)"><rect fill="#ffffff" stroke="none" x="792" y="16" width="607" height="21"/></g><g transform="translate(2,-6) scale(1,1)"><path fill="none" stroke="#000000" d="M 792 16 L 1399 16 L 1399 37 L 792 37 L 792 16 Z Z" stroke-miterlimit="10" stroke-width="2"/></g><g transform="translate(2,-6) scale(1,1)"><path fill="none" stroke="#000000" d="M 792 1559 L 792 16 L 1399 16 L 1399 1559" stroke-miterlimit="10" stroke-width="2"/></g><g transform="translate(2,-6) scale(1,1)"><g><path fill="none" stroke="none"/><text fill="#000000" stroke="none" font-family="Arial" font-size="13px" font-style="normal" font-weight="normal" text-decoration="none" x="1080.6845703125" y="30">Sách</text></g></g></g></svg>