<svg version="1.1" xmlns="http://www.w3.org/2000/svg" xmlns:xlink="http://www.w3.org/1999/xlink" width="835" height="700"><defs/><g><g transform="translate(-22,10) scale(1,1)"><rect fill="#C0C0C0" stroke="none" x="183" y="7" width="671" height="680" opacity="0.2"/></g><g transform="translate(-22,10) scale(1,1)"><rect fill="#ffffff" stroke="none" x="176" y="0" width="671" height="680"/></g><g transform="translate(-22,10) scale(1,1)"><path fill="none" stroke="#000000" d="M 176 0 L 847 0 L 847 680 L 176 680 L 176 0 Z Z" stroke-miterlimit="10"/></g><g transform="translate(-22,10) scale(1,1)"><g><path fill="none" stroke="none"/><text fill="#000000" stroke="none" font-family="Arial" font-size="13px" font-style="normal" font-weight="bold" text-decoration="none" x="384.0390625" y="18">Nhiệm vụ của actor "Người có tài khoản"</text></g></g><g transform="translate(-22,10) scale(1,1)"><path fill="#ffffff" stroke="none" d="M 87.34904758522727 289.68 C 87.34904758522727 284.886167936 91.23488991017273 281 96.0283203125 281 C 100.82175071482727 281 104.70759303977273 284.886167936 104.70759303977273 289.68 C 104.70759303977273 294.473832064 100.82175071482727 298.36 96.0283203125 298.36 C 91.23488991017273 298.36 87.34904758522727 294.473832064 87.34904758522727 289.68 Z"/></g><g transform="translate(-22,10) scale(1,1)"><path fill="none" stroke="#000000" d="M 87.34904758522727 289.68 C 87.34904758522727 284.886167936 91.23488991017273 281 96.0283203125 281 C 100.82175071482727 281 104.70759303977273 284.886167936 104.70759303977273 289.68 C 104.70759303977273 294.473832064 100.82175071482727 298.36 96.0283203125 298.36 C 91.23488991017273 298.36 87.34904758522727 294.473832064 87.34904758522727 289.68 Z" stroke-miterlimit="10"/></g><g transform="translate(-22,10) scale(1,1)"><path fill="none" stroke="#000000" d="M 96.0283203125 298.36 L 96.0283203125 315.64" stroke-miterlimit="10"/></g><g transform="translate(-22,10) scale(1,1)"><path fill="none" stroke="#000000" d="M 86.83850213068182 304.84 L 105.21813849431818 304.84" stroke-miterlimit="10"/></g><g transform="translate(-22,10) scale(1,1)"><path fill="none" stroke="#000000" d="M 96.0283203125 315.64 L 83.26468394886363 333" stroke-miterlimit="10"/></g><g transform="translate(-22,10) scale(1,1)"><path fill="none" stroke="#000000" d="M 96.0283203125 315.64 L 108.79195667613637 333" stroke-miterlimit="10"/></g><g transform="translate(-22,10) scale(1,1)"><g><path fill="none" stroke="none"/><text fill="#000000" stroke="none" font-family="Arial" font-size="13px" font-style="normal" font-weight="bold" text-decoration="none" x="36.5" y="352">Người có tài khoản</text></g></g><g transform="translate(-22,10) scale(1,1)"><path fill="#C0C0C0" stroke="none" d="M 263 80 C 263 70.6111584 307.77152 63 363 63 C 418.22848 63 463 70.6111584 463 80 C 463 89.3888416 418.22848 97 363 97 C 307.77152 97 263 89.3888416 263 80 Z" opacity="0.2"/></g><g transform="translate(-22,10) scale(1,1)"><path fill="#ffffff" stroke="none" d="M 256 73 C 256 63.6111584 300.77152 56 356 56 C 411.22848 56 456 63.6111584 456 73 C 456 82.3888416 411.22848 90 356 90 C 300.77152 90 256 82.3888416 256 73 Z"/></g><g transform="translate(-22,10) scale(1,1)"><path fill="none" stroke="#000000" d="M 256 73 C 256 63.6111584 300.77152 56 356 56 C 411.22848 56 456 63.6111584 456 73 C 456 82.3888416 411.22848 90 356 90 C 300.77152 90 256 82.3888416 256 73 Z" stroke-miterlimit="10"/></g><g transform="translate(-22,10) scale(1,1)"><g><path fill="none" stroke="none"/><text fill="#000000" stroke="none" font-family="Arial" font-size="13px" font-style="normal" font-weight="bold" text-decoration="none" x="289.603515625" y="78.5">Xác thực người dùng</text></g></g><g transform="translate(-22,10) scale(1,1)"><path fill="#C0C0C0" stroke="none" d="M 439 147 C 439 131.5360256 482.2045168 119 535.5 119 C 588.7954832 119 632 131.5360256 632 147 C 632 162.4639744 588.7954832 175 535.5 175 C 482.2045168 175 439 162.4639744 439 147 Z" opacity="0.2"/></g><g transform="translate(-22,10) scale(1,1)"><path fill="#ffffff" stroke="none" d="M 432 140 C 432 124.5360256 475.2045168 112 528.5 112 C 581.7954832 112 625 124.5360256 625 140 C 625 155.4639744 581.7954832 168 528.5 168 C 475.2045168 168 432 155.4639744 432 140 Z"/></g><g transform="translate(-22,10) scale(1,1)"><path fill="none" stroke="#000000" d="M 432 140 C 432 124.5360256 475.2045168 112 528.5 112 C 581.7954832 112 625 124.5360256 625 140 C 625 155.4639744 581.7954832 168 528.5 168 C 475.2045168 168 432 155.4639744 432 140 Z" stroke-miterlimit="10"/></g><g transform="translate(-22,10) scale(1,1)"><g><path fill="none" stroke="none"/><text fill="#000000" stroke="none" font-family="Arial" font-size="13px" font-style="normal" font-weight="bold" text-decoration="none" x="464.5791015625" y="145.5">Đăng nhập tài khoản</text></g></g><g transform="translate(-22,10) scale(1,1)"><path fill="#C0C0C0" stroke="none" d="M 463 216 C 463 206.6111584 504.8613712 199 556.5 199 C 608.1386288 199 650 206.6111584 650 216 C 650 225.3888416 608.1386288 233 556.5 233 C 504.8613712 233 463 225.3888416 463 216 Z" opacity="0.2"/></g><g transform="translate(-22,10) scale(1,1)"><path fill="#ffffff" stroke="none" d="M 456 209 C 456 199.6111584 497.8613712 192 549.5 192 C 601.1386288 192 643 199.6111584 643 209 C 643 218.3888416 601.1386288 226 549.5 226 C 497.8613712 226 456 218.3888416 456 209 Z"/></g><g transform="translate(-22,10) scale(1,1)"><path fill="none" stroke="#000000" d="M 456 209 C 456 199.6111584 497.8613712 192 549.5 192 C 601.1386288 192 643 199.6111584 643 209 C 643 218.3888416 601.1386288 226 549.5 226 C 497.8613712 226 456 218.3888416 456 209 Z" stroke-miterlimit="10"/></g><g transform="translate(-22,10) scale(1,1)"><g><path fill="none" stroke="none"/><text fill="#000000" stroke="none" font-family="Arial" font-size="13px" font-style="normal" font-weight="bold" text-decoration="none" x="487.740478515625" y="215">Đăng xuất tài khoản</text></g></g><g transform="translate(-22,10) scale(1,1)"><path fill="#C0C0C0" stroke="none" d="M 551 328 C 551 318.6111584 579.6537728 311 615 311 C 650.3462272 311 679 318.6111584 679 328 C 679 337.3888416 650.3462272 345 615 345 C 579.6537728 345 551 337.3888416 551 328 Z" opacity="0.2"/></g><g transform="translate(-22,10) scale(1,1)"><path fill="#ffffff" stroke="none" d="M 544 321 C 544 311.6111584 572.6537728 304 608 304 C 643.3462272 304 672 311.6111584 672 321 C 672 330.3888416 643.3462272 338 608 338 C 572.6537728 338 544 330.3888416 544 321 Z"/></g><g transform="translate(-22,10) scale(1,1)"><path fill="none" stroke="#000000" d="M 544 321 C 544 311.6111584 572.6537728 304 608 304 C 643.3462272 304 672 311.6111584 672 321 C 672 330.3888416 643.3462272 338 608 338 C 572.6537728 338 544 330.3888416 544 321 Z" stroke-miterlimit="10"/></g><g transform="translate(-22,10) scale(1,1)"><g><path fill="none" stroke="none"/><text fill="#000000" stroke="none" font-family="Arial" font-size="13px" font-style="normal" font-weight="bold" text-decoration="none" x="567.187744140625" y="327">Đổi mật khẩu</text></g></g><g transform="translate(-22,10) scale(1,1)"><path fill="#C0C0C0" stroke="none" d="M 535 272 C 535 262.6111584 574.17508 255 622.5 255 C 670.82492 255 710 262.6111584 710 272 C 710 281.3888416 670.82492 289 622.5 289 C 574.17508 289 535 281.3888416 535 272 Z" opacity="0.2"/></g><g transform="translate(-22,10) scale(1,1)"><path fill="#ffffff" stroke="none" d="M 528 265 C 528 255.6111584 567.17508 248 615.5 248 C 663.82492 248 703 255.6111584 703 265 C 703 274.3888416 663.82492 282 615.5 282 C 567.17508 282 528 274.3888416 528 265 Z"/></g><g transform="translate(-22,10) scale(1,1)"><path fill="none" stroke="#000000" d="M 528 265 C 528 255.6111584 567.17508 248 615.5 248 C 663.82492 248 703 255.6111584 703 265 C 703 274.3888416 663.82492 282 615.5 282 C 567.17508 282 528 274.3888416 528 265 Z" stroke-miterlimit="10"/></g><g transform="translate(-22,10) scale(1,1)"><g><path fill="none" stroke="none"/><text fill="#000000" stroke="none" font-family="Arial" font-size="13px" font-style="normal" font-weight="bold" text-decoration="none" x="558.094970703125" y="270.5">Cập nhật thông tin</text></g></g><g transform="translate(-22,10) scale(1,1)"><path fill="#C0C0C0" stroke="none" d="M 503 504 C 503 494.6111584 525.6096176 487 553.5 487 C 581.3903824 487 604 494.6111584 604 504 C 604 513.3888416 581.3903824 521 553.5 521 C 525.6096176 521 503 513.3888416 503 504 Z" opacity="0.2"/></g><g transform="translate(-22,10) scale(1,1)"><path fill="#ffffff" stroke="none" d="M 496 497 C 496 487.6111584 518.6096176 480 546.5 480 C 574.3903824 480 597 487.6111584 597 497 C 597 506.3888416 574.3903824 514 546.5 514 C 518.6096176 514 496 506.3888416 496 497 Z"/></g><g transform="translate(-22,10) scale(1,1)"><path fill="none" stroke="#000000" d="M 496 497 C 496 487.6111584 518.6096176 480 546.5 480 C 574.3903824 480 597 487.6111584 597 497 C 597 506.3888416 574.3903824 514 546.5 514 C 518.6096176 514 496 506.3888416 496 497 Z" stroke-miterlimit="10"/></g><g transform="translate(-22,10) scale(1,1)"><g><path fill="none" stroke="none"/><text fill="#000000" stroke="none" font-family="Arial" font-size="13px" font-style="normal" font-weight="bold" text-decoration="none" x="524.832275390625" y="503.5">Báo lỗi</text></g></g><g transform="translate(-22,10) scale(1,1)"><path fill="#C0C0C0" stroke="none" d="M 503 448 C 503 438.6111584 525.6096176 431 553.5 431 C 581.3903824 431 604 438.6111584 604 448 C 604 457.3888416 581.3903824 465 553.5 465 C 525.6096176 465 503 457.3888416 503 448 Z" opacity="0.2"/></g><g transform="translate(-22,10) scale(1,1)"><path fill="#ffffff" stroke="none" d="M 496 441 C 496 431.6111584 518.6096176 424 546.5 424 C 574.3903824 424 597 431.6111584 597 441 C 597 450.3888416 574.3903824 458 546.5 458 C 518.6096176 458 496 450.3888416 496 441 Z"/></g><g transform="translate(-22,10) scale(1,1)"><path fill="none" stroke="#000000" d="M 496 441 C 496 431.6111584 518.6096176 424 546.5 424 C 574.3903824 424 597 431.6111584 597 441 C 597 450.3888416 574.3903824 458 546.5 458 C 518.6096176 458 496 450.3888416 496 441 Z" stroke-miterlimit="10"/></g><g transform="translate(-22,10) scale(1,1)"><g><path fill="none" stroke="none"/><text fill="#000000" stroke="none" font-family="Arial" font-size="13px" font-style="normal" font-weight="bold" text-decoration="none" x="528.082275390625" y="446.5">Góp ý</text></g></g><g transform="translate(-22,10) scale(1,1)"><path fill="#C0C0C0" stroke="none" d="M 495 392 C 495 382.6111584 520.0720512 375 551 375 C 581.9279488 375 607 382.6111584 607 392 C 607 401.3888416 581.9279488 409 551 409 C 520.0720512 409 495 401.3888416 495 392 Z" opacity="0.2"/></g><g transform="translate(-22,10) scale(1,1)"><path fill="#ffffff" stroke="none" d="M 488 385 C 488 375.6111584 513.0720512 368 544 368 C 574.9279488 368 600 375.6111584 600 385 C 600 394.3888416 574.9279488 402 544 402 C 513.0720512 402 488 394.3888416 488 385 Z"/></g><g transform="translate(-22,10) scale(1,1)"><path fill="none" stroke="#000000" d="M 488 385 C 488 375.6111584 513.0720512 368 544 368 C 574.9279488 368 600 375.6111584 600 385 C 600 394.3888416 574.9279488 402 544 402 C 513.0720512 402 488 394.3888416 488 385 Z" stroke-miterlimit="10"/></g><g transform="translate(-22,10) scale(1,1)"><g><path fill="none" stroke="none"/><text fill="#000000" stroke="none" font-family="Arial" font-size="13px" font-style="normal" font-weight="bold" text-decoration="none" x="508.96728515625" y="390.5">Đặt câu hỏi</text></g></g><g transform="translate(-22,10) scale(1,1)"><path fill="none" stroke="#000000" d="M 402 91 L 454 111" stroke-miterlimit="10" stroke-dasharray="3"/></g><g transform="translate(-22,10) scale(1,1)"><path fill="none" stroke="#000000" d="M 443.0035832659772 111.28074723810597 L 454 111 L 446.0258408827551 103.42287743448341" stroke-miterlimit="10"/></g><g transform="translate(-22,10) scale(1,1)"><g><path fill="none" stroke="none"/><text fill="#000000" stroke="none" font-family="Arial" font-size="13px" font-style="normal" font-weight="normal" text-decoration="none" x="431.5" y="99">«include»</text></g></g><g transform="translate(-22,10) scale(1,1)"><path fill="none" stroke="#000000" d="M 644 209 L 832 208 L 832 136 L 626 139" stroke-miterlimit="10" stroke-dasharray="3"/></g><g transform="translate(-22,10) scale(1,1)"><path fill="none" stroke="#000000" d="M 636.1003002013299 134.6429441312952 L 626 139 L 636.2228945151501 143.06108701361043" stroke-miterlimit="10"/></g><g transform="translate(-22,10) scale(1,1)"><g><path fill="none" stroke="none"/><text fill="#000000" stroke="none" font-family="Arial" font-size="13px" font-style="normal" font-weight="normal" text-decoration="none" x="759.5" y="203">«include»</text></g></g><g transform="translate(-22,10) scale(1,1)"><path fill="none" stroke="#000000" d="M 161 292 L 458 169" stroke-miterlimit="10"/></g><g transform="translate(-22,10) scale(1,1)"><path fill="none" stroke="#000000" d="M 161 303 L 475 227" stroke-miterlimit="10"/></g><g transform="translate(-22,10) scale(1,1)"><path fill="none" stroke="#000000" d="M 161 329 L 487 377" stroke-miterlimit="10"/></g><g transform="translate(-22,10) scale(1,1)"><path fill="none" stroke="#000000" d="M 161 337 L 495 427" stroke-miterlimit="10"/></g><g transform="translate(-22,10) scale(1,1)"><path fill="none" stroke="#000000" d="M 161 345 L 500 479" stroke-miterlimit="10"/></g><g transform="translate(-22,10) scale(1,1)"><path fill="none" stroke="#000000" d="M 704 265 L 832 264 L 832 136 L 626 139" stroke-miterlimit="10" stroke-dasharray="3"/></g><g transform="translate(-22,10) scale(1,1)"><path fill="none" stroke="#000000" d="M 636.1003002013299 134.6429441312952 L 626 139 L 636.2228945151501 143.06108701361043" stroke-miterlimit="10"/></g><g transform="translate(-22,10) scale(1,1)"><g><path fill="none" stroke="none"/><text fill="#000000" stroke="none" font-family="Arial" font-size="13px" font-style="normal" font-weight="normal" text-decoration="none" x="759.5" y="259">«include»</text></g></g><g transform="translate(-22,10) scale(1,1)"><path fill="none" stroke="#000000" d="M 673 321 L 832 320 L 832 136 L 626 139" stroke-miterlimit="10" stroke-dasharray="3"/></g><g transform="translate(-22,10) scale(1,1)"><path fill="none" stroke="#000000" d="M 636.1003002013299 134.6429441312952 L 626 139 L 636.2228945151501 143.06108701361043" stroke-miterlimit="10"/></g><g transform="translate(-22,10) scale(1,1)"><g><path fill="none" stroke="none"/><text fill="#000000" stroke="none" font-family="Arial" font-size="13px" font-style="normal" font-weight="normal" text-decoration="none" x="759.5" y="319">«include»</text></g></g><g transform="translate(-22,10) scale(1,1)"><path fill="none" stroke="#000000" d="M 601 385 L 832 384 L 832 136 L 626 139" stroke-miterlimit="10" stroke-dasharray="3"/></g><g transform="translate(-22,10) scale(1,1)"><path fill="none" stroke="#000000" d="M 636.1003002013299 134.6429441312952 L 626 139 L 636.2228945151501 143.06108701361043" stroke-miterlimit="10"/></g><g transform="translate(-22,10) scale(1,1)"><g><path fill="none" stroke="none"/><text fill="#000000" stroke="none" font-family="Arial" font-size="13px" font-style="normal" font-weight="normal" text-decoration="none" x="759.5" y="379">«include»</text></g></g><g transform="translate(-22,10) scale(1,1)"><path fill="none" stroke="#000000" d="M 598 441 L 832 440 L 832 136 L 626 139" stroke-miterlimit="10" stroke-dasharray="3"/></g><g transform="translate(-22,10) scale(1,1)"><path fill="none" stroke="#000000" d="M 636.1003002013299 134.6429441312952 L 626 139 L 636.2228945151501 143.06108701361043" stroke-miterlimit="10"/></g><g transform="translate(-22,10) scale(1,1)"><g><path fill="none" stroke="none"/><text fill="#000000" stroke="none" font-family="Arial" font-size="13px" font-style="normal" font-weight="normal" text-decoration="none" x="759.5" y="435">«include»</text></g></g><g transform="translate(-22,10) scale(1,1)"><path fill="none" stroke="#000000" d="M 598 497 L 832 496 L 832 136 L 626 139" stroke-miterlimit="10" stroke-dasharray="3"/></g><g transform="translate(-22,10) scale(1,1)"><path fill="none" stroke="#000000" d="M 636.1003002013299 134.6429441312952 L 626 139 L 636.2228945151501 143.06108701361043" stroke-miterlimit="10"/></g><g transform="translate(-22,10) scale(1,1)"><g><path fill="none" stroke="none"/><text fill="#000000" stroke="none" font-family="Arial" font-size="13px" font-style="normal" font-weight="normal" text-decoration="none" x="759.5" y="491">«include»</text></g></g><g transform="translate(-22,10) scale(1,1)"><path fill="#C0C0C0" stroke="none" d="M 607 80 C 607 70.6111584 651.9953776 63 707.5 63 C 763.0046224 63 808 70.6111584 808 80 C 808 89.3888416 763.0046224 97 707.5 97 C 651.9953776 97 607 89.3888416 607 80 Z" opacity="0.2"/></g><g transform="translate(-22,10) scale(1,1)"><path fill="#ffffff" stroke="none" d="M 600 73 C 600 63.6111584 644.9953776 56 700.5 56 C 756.0046224 56 801 63.6111584 801 73 C 801 82.3888416 756.0046224 90 700.5 90 C 644.9953776 90 600 82.3888416 600 73 Z"/></g><g transform="translate(-22,10) scale(1,1)"><path fill="none" stroke="#000000" d="M 600 73 C 600 63.6111584 644.9953776 56 700.5 56 C 756.0046224 56 801 63.6111584 801 73 C 801 82.3888416 756.0046224 90 700.5 90 C 644.9953776 90 600 82.3888416 600 73 Z" stroke-miterlimit="10"/></g><g transform="translate(-22,10) scale(1,1)"><g><path fill="none" stroke="none"/><text fill="#000000" stroke="none" font-family="Arial" font-size="13px" font-style="normal" font-weight="bold" text-decoration="none" x="634.0654296875" y="79.5">Hiển thị thông báo lỗi</text></g></g><g transform="translate(-22,10) scale(1,1)"><path fill="none" stroke="#000000" d="M 599 73 L 457 73" stroke-miterlimit="10" stroke-dasharray="3"/></g><g transform="translate(-22,10) scale(1,1)"><path fill="none" stroke="#000000" d="M 467.16267485762415 68.79048224398402 L 457 73 L 467.16267485762415 77.20951775601598" stroke-miterlimit="10"/></g><g transform="translate(-22,10) scale(1,1)"><g><path fill="none" stroke="none"/><text fill="#000000" stroke="none" font-family="Arial" font-size="13px" font-style="normal" font-weight="normal" text-decoration="none" x="519.5" y="67">«extend»</text></g></g><g transform="translate(-22,10) scale(1,1)"><path fill="#C0C0C0" stroke="none" d="M 487 552 C 487 542.6111584 518.1162064 535 556.5 535 C 594.8837936 535 626 542.6111584 626 552 C 626 561.3888416 594.8837936 569 556.5 569 C 518.1162064 569 487 561.3888416 487 552 Z" opacity="0.2"/></g><g transform="translate(-22,10) scale(1,1)"><path fill="#ffffff" stroke="none" d="M 480 545 C 480 535.6111584 511.1162064 528 549.5 528 C 587.8837936 528 619 535.6111584 619 545 C 619 554.3888416 587.8837936 562 549.5 562 C 511.1162064 562 480 554.3888416 480 545 Z"/></g><g transform="translate(-22,10) scale(1,1)"><path fill="none" stroke="#000000" d="M 480 545 C 480 535.6111584 511.1162064 528 549.5 528 C 587.8837936 528 619 535.6111584 619 545 C 619 554.3888416 587.8837936 562 549.5 562 C 511.1162064 562 480 554.3888416 480 545 Z" stroke-miterlimit="10"/></g><g transform="translate(-22,10) scale(1,1)"><g><path fill="none" stroke="none"/><text fill="#000000" stroke="none" font-family="Arial" font-size="13px" font-style="normal" font-weight="bold" text-decoration="none" x="504.701416015625" y="551">Tìm kiếm sách</text></g></g><g transform="translate(-22,10) scale(1,1)"><path fill="#C0C0C0" stroke="none" d="M 471 600 C 471 590.6111584 504.8024976 583 546.5 583 C 588.1975024 583 622 590.6111584 622 600 C 622 609.3888416 588.1975024 617 546.5 617 C 504.8024976 617 471 609.3888416 471 600 Z" opacity="0.2"/></g><g transform="translate(-22,10) scale(1,1)"><path fill="#ffffff" stroke="none" d="M 464 593 C 464 583.6111584 497.8024976 576 539.5 576 C 581.1975024 576 615 583.6111584 615 593 C 615 602.3888416 581.1975024 610 539.5 610 C 497.8024976 610 464 602.3888416 464 593 Z"/></g><g transform="translate(-22,10) scale(1,1)"><path fill="none" stroke="#000000" d="M 464 593 C 464 583.6111584 497.8024976 576 539.5 576 C 581.1975024 576 615 583.6111584 615 593 C 615 602.3888416 581.1975024 610 539.5 610 C 497.8024976 610 464 602.3888416 464 593 Z" stroke-miterlimit="10"/></g><g transform="translate(-22,10) scale(1,1)"><g><path fill="none" stroke="none"/><text fill="#000000" stroke="none" font-family="Arial" font-size="13px" font-style="normal" font-weight="bold" text-decoration="none" x="490.470703125" y="599.5">Hệ thống hỗ trợ</text></g></g><g transform="translate(-22,10) scale(1,1)"><path fill="#C0C0C0" stroke="none" d="M 479 664 C 479 654.6111584 501.6096176 647 529.5 647 C 557.3903824 647 580 654.6111584 580 664 C 580 673.3888416 557.3903824 681 529.5 681 C 501.6096176 681 479 673.3888416 479 664 Z" opacity="0.2"/></g><g transform="translate(-22,10) scale(1,1)"><path fill="#ffffff" stroke="none" d="M 472 657 C 472 647.6111584 494.6096176 640 522.5 640 C 550.3903824 640 573 647.6111584 573 657 C 573 666.3888416 550.3903824 674 522.5 674 C 494.6096176 674 472 666.3888416 472 657 Z"/></g><g transform="translate(-22,10) scale(1,1)"><path fill="none" stroke="#000000" d="M 472 657 C 472 647.6111584 494.6096176 640 522.5 640 C 550.3903824 640 573 647.6111584 573 657 C 573 666.3888416 550.3903824 674 522.5 674 C 494.6096176 674 472 666.3888416 472 657 Z" stroke-miterlimit="10"/></g><g transform="translate(-22,10) scale(1,1)"><g><path fill="none" stroke="none"/><text fill="#000000" stroke="none" font-family="Arial" font-size="13px" font-style="normal" font-weight="bold" text-decoration="none" x="496.503173828125" y="663.5">Nhắn tin</text></g></g><g transform="translate(-22,10) scale(1,1)"><path fill="#C0C0C0" stroke="none" d="M 335 664 C 335 654.6111584 357.6096176 647 385.5 647 C 413.3903824 647 436 654.6111584 436 664 C 436 673.3888416 413.3903824 681 385.5 681 C 357.6096176 681 335 673.3888416 335 664 Z" opacity="0.2"/></g><g transform="translate(-22,10) scale(1,1)"><path fill="#ffffff" stroke="none" d="M 328 657 C 328 647.6111584 350.6096176 640 378.5 640 C 406.3903824 640 429 647.6111584 429 657 C 429 666.3888416 406.3903824 674 378.5 674 C 350.6096176 674 328 666.3888416 328 657 Z"/></g><g transform="translate(-22,10) scale(1,1)"><path fill="none" stroke="#000000" d="M 328 657 C 328 647.6111584 350.6096176 640 378.5 640 C 406.3903824 640 429 647.6111584 429 657 C 429 666.3888416 406.3903824 674 378.5 674 C 350.6096176 674 328 666.3888416 328 657 Z" stroke-miterlimit="10"/></g><g transform="translate(-22,10) scale(1,1)"><g><path fill="none" stroke="none"/><text fill="#000000" stroke="none" font-family="Arial" font-size="13px" font-style="normal" font-weight="bold" text-decoration="none" x="352.5" y="662.5">Gọi điện</text></g></g><g transform="translate(-22,10) scale(1,1)"><path fill="#C0C0C0" stroke="none" d="M 639 664 C 639 654.6111584 661.6096176 647 689.5 647 C 717.3903824 647 740 654.6111584 740 664 C 740 673.3888416 717.3903824 681 689.5 681 C 661.6096176 681 639 673.3888416 639 664 Z" opacity="0.2"/></g><g transform="translate(-22,10) scale(1,1)"><path fill="#ffffff" stroke="none" d="M 632 657 C 632 647.6111584 654.6096176 640 682.5 640 C 710.3903824 640 733 647.6111584 733 657 C 733 666.3888416 710.3903824 674 682.5 674 C 654.6096176 674 632 666.3888416 632 657 Z"/></g><g transform="translate(-22,10) scale(1,1)"><path fill="none" stroke="#000000" d="M 632 657 C 632 647.6111584 654.6096176 640 682.5 640 C 710.3903824 640 733 647.6111584 733 657 C 733 666.3888416 710.3903824 674 682.5 674 C 654.6096176 674 632 666.3888416 632 657 Z" stroke-miterlimit="10"/></g><g transform="translate(-22,10) scale(1,1)"><g><path fill="none" stroke="none"/><text fill="#000000" stroke="none" font-family="Arial" font-size="13px" font-style="normal" font-weight="bold" text-decoration="none" x="660.4736328125" y="663">Bản đồ</text></g></g><g transform="translate(-22,10) scale(1,1)"><path fill="none" stroke="#000000" d="M 513 527 L 161 351" stroke-miterlimit="10"/></g><g transform="translate(-22,10) scale(1,1)"><path fill="none" stroke="#000000" d="M 510 575 L 161 359" stroke-miterlimit="10"/></g><g transform="translate(-22,10) scale(1,1)"><path fill="none" stroke="#000000" d="M 620 545 L 832 544 L 832 136 L 626 139" stroke-miterlimit="10" stroke-dasharray="3"/></g><g transform="translate(-22,10) scale(1,1)"><path fill="none" stroke="#000000" d="M 636.1003002013299 134.6429441312952 L 626 139 L 636.2228945151501 143.06108701361043" stroke-miterlimit="10"/></g><g transform="translate(-22,10) scale(1,1)"><g><path fill="none" stroke="none"/><text fill="#000000" stroke="none" font-family="Arial" font-size="13px" font-style="normal" font-weight="normal" text-decoration="none" x="759.5" y="539">«include»</text></g></g><g transform="translate(-22,10) scale(1,1)"><path fill="none" stroke="#000000" d="M 616 593 L 832 592 L 832 136 L 626 139" stroke-miterlimit="10" stroke-dasharray="3"/></g><g transform="translate(-22,10) scale(1,1)"><path fill="none" stroke="#000000" d="M 636.1003002013299 134.6429441312952 L 626 139 L 636.2228945151501 143.06108701361043" stroke-miterlimit="10"/></g><g transform="translate(-22,10) scale(1,1)"><g><path fill="none" stroke="none"/><text fill="#000000" stroke="none" font-family="Arial" font-size="13px" font-style="normal" font-weight="normal" text-decoration="none" x="759.5" y="579">«include»</text></g></g><g transform="translate(-22,10) scale(1,1)"><path fill="none" stroke="#000000" d="M 423 639 L 494 611" stroke-miterlimit="10" stroke-dasharray="3"/></g><g transform="translate(-22,10) scale(1,1)"><path fill="none" stroke="#000000" d="M 486.09027687137996 618.6443626306301 L 494 611 L 483.00160048447714 610.8123617924123" stroke-miterlimit="10"/></g><g transform="translate(-22,10) scale(1,1)"><g><path fill="none" stroke="none"/><text fill="#000000" stroke="none" font-family="Arial" font-size="13px" font-style="normal" font-weight="normal" text-decoration="none" x="383.5" y="626">«extend»</text></g></g><g transform="translate(-22,10) scale(1,1)"><path fill="none" stroke="#000000" d="M 527 639 L 534 611" stroke-miterlimit="10" stroke-dasharray="3"/></g><g transform="translate(-22,10) scale(1,1)"><path fill="none" stroke="#000000" d="M 535.6190213815926 621.8802008145965 L 534 611 L 527.4513572211376 619.8382847744828" stroke-miterlimit="10"/></g><g transform="translate(-22,10) scale(1,1)"><g><path fill="none" stroke="none"/><text fill="#000000" stroke="none" font-family="Arial" font-size="13px" font-style="normal" font-weight="normal" text-decoration="none" x="538.5" y="632">«extend»</text></g></g><g transform="translate(-22,10) scale(1,1)"><path fill="none" stroke="#000000" d="M 642 639 L 579 611" stroke-miterlimit="10" stroke-dasharray="3"/></g><g transform="translate(-22,10) scale(1,1)"><path fill="none" stroke="#000000" d="M 589.9964167340228 611.280747238106 L 579 611 L 586.5771225655166 618.9741591172449" stroke-miterlimit="10"/></g><g transform="translate(-22,10) scale(1,1)"><g><path fill="none" stroke="none"/><text fill="#000000" stroke="none" font-family="Arial" font-size="13px" font-style="normal" font-weight="normal" text-decoration="none" x="626.5" y="629">«extend»</text></g></g><g transform="translate(-22,10) scale(1,1)"><path fill="#C0C0C0" stroke="none" d="M 295 314.5 C 295 303.7304464 332.1603616 295 378 295 C 423.8396384 295 461 303.7304464 461 314.5 C 461 325.2695536 423.8396384 334 378 334 C 332.1603616 334 295 325.2695536 295 314.5 Z" opacity="0.2"/></g><g transform="translate(-22,10) scale(1,1)"><path fill="#ffffff" stroke="none" d="M 288 307.5 C 288 296.7304464 325.1603616 288 371 288 C 416.8396384 288 454 296.7304464 454 307.5 C 454 318.2695536 416.8396384 327 371 327 C 325.1603616 327 288 318.2695536 288 307.5 Z"/></g><g transform="translate(-22,10) scale(1,1)"><path fill="none" stroke="#000000" d="M 288 307.5 C 288 296.7304464 325.1603616 288 371 288 C 416.8396384 288 454 296.7304464 454 307.5 C 454 318.2695536 416.8396384 327 371 327 C 325.1603616 327 288 318.2695536 288 307.5 Z" stroke-miterlimit="10"/></g><g transform="translate(-22,10) scale(1,1)"><g><path fill="none" stroke="none"/><text fill="#000000" stroke="none" font-family="Arial" font-size="13px" font-style="normal" font-weight="bold" text-decoration="none" x="316.82275390625" y="313">Quản lý tài khoản</text></g></g><g transform="translate(-22,10) scale(1,1)"><path fill="none" stroke="#000000" d="M 527 280 L 455 293" stroke-miterlimit="10" stroke-dasharray="3"/></g><g transform="translate(-22,10) scale(1,1)"><path fill="none" stroke="#000000" d="M 464.2530071967159 287.0517348901109 L 455 293 L 465.74892273066365 295.3368055396678" stroke-miterlimit="10"/></g><g transform="translate(-22,10) scale(1,1)"><g><path fill="none" stroke="none"/><text fill="#000000" stroke="none" font-family="Arial" font-size="13px" font-style="normal" font-weight="normal" text-decoration="none" x="462.5" y="279">«extend»</text></g></g><g transform="translate(-22,10) scale(1,1)"><path fill="none" stroke="#000000" d="M 543 317 L 455 312" stroke-miterlimit="10" stroke-dasharray="3"/></g><g transform="translate(-22,10) scale(1,1)"><path fill="none" stroke="#000000" d="M 465.3851023671706 308.3737555483134 L 455 312 L 464.90751834917046 316.77923426511506" stroke-miterlimit="10"/></g><g transform="translate(-22,10) scale(1,1)"><g><path fill="none" stroke="none"/><text fill="#000000" stroke="none" font-family="Arial" font-size="13px" font-style="normal" font-weight="normal" text-decoration="none" x="471.5" y="334">«extend»</text></g></g><g transform="translate(-22,10) scale(1,1)"><path fill="none" stroke="#000000" d="M 287 311 L 161 316" stroke-miterlimit="10"/></g></g></svg>