<svg version="1.1" xmlns="http://www.w3.org/2000/svg" xmlns:xlink="http://www.w3.org/1999/xlink" width="883" height="587"><defs/><g><g transform="translate(-38,-14) scale(1,1)"><rect fill="#C0C0C0" stroke="none" x="151" y="31" width="767" height="567" opacity="0.2"/></g><g transform="translate(-38,-14) scale(1,1)"><rect fill="#ffffff" stroke="none" x="144" y="24" width="767" height="567"/></g><g transform="translate(-38,-14) scale(1,1)"><path fill="none" stroke="#000000" d="M 144 24 L 911 24 L 911 591 L 144 591 L 144 24 Z Z" stroke-miterlimit="10"/></g><g transform="translate(-38,-14) scale(1,1)"><g><path fill="none" stroke="none"/><text fill="#000000" stroke="none" font-family="Arial" font-size="13px" font-style="normal" font-weight="bold" text-decoration="none" x="419.83740234375" y="42">Nhiệm vụ của actor "Quản trị viên"</text></g></g><g transform="translate(-38,-14) scale(1,1)"><path fill="#ffffff" stroke="none" d="M 83.55070774147727 313.68 C 83.55070774147727 308.886167936 87.43655006642273 305 92.22998046875 305 C 97.02341087107727 305 100.90925319602273 308.886167936 100.90925319602273 313.68 C 100.90925319602273 318.473832064 97.02341087107727 322.36 92.22998046875 322.36 C 87.43655006642273 322.36 83.55070774147727 318.473832064 83.55070774147727 313.68 Z"/></g><g transform="translate(-38,-14) scale(1,1)"><path fill="none" stroke="#000000" d="M 83.55070774147727 313.68 C 83.55070774147727 308.886167936 87.43655006642273 305 92.22998046875 305 C 97.02341087107727 305 100.90925319602273 308.886167936 100.90925319602273 313.68 C 100.90925319602273 318.473832064 97.02341087107727 322.36 92.22998046875 322.36 C 87.43655006642273 322.36 83.55070774147727 318.473832064 83.55070774147727 313.68 Z" stroke-miterlimit="10"/></g><g transform="translate(-38,-14) scale(1,1)"><path fill="none" stroke="#000000" d="M 92.22998046875 322.36 L 92.22998046875 339.64" stroke-miterlimit="10"/></g><g transform="translate(-38,-14) scale(1,1)"><path fill="none" stroke="#000000" d="M 83.04016228693182 328.84 L 101.41979865056818 328.84" stroke-miterlimit="10"/></g><g transform="translate(-38,-14) scale(1,1)"><path fill="none" stroke="#000000" d="M 92.22998046875 339.64 L 79.46634410511363 357" stroke-miterlimit="10"/></g><g transform="translate(-38,-14) scale(1,1)"><path fill="none" stroke="#000000" d="M 92.22998046875 339.64 L 104.99361683238637 357" stroke-miterlimit="10"/></g><g transform="translate(-38,-14) scale(1,1)"><g><path fill="none" stroke="none"/><text fill="#000000" stroke="none" font-family="Arial" font-size="13px" font-style="normal" font-weight="bold" text-decoration="none" x="52.5" y="376">Quản trị viên</text></g></g><g transform="translate(-38,-14) scale(1,1)"><path fill="#C0C0C0" stroke="none" d="M 351 159 C 351 141.3268864 375.1766208 127 405 127 C 434.8233792 127 459 141.3268864 459 159 C 459 176.6731136 434.8233792 191 405 191 C 375.1766208 191 351 176.6731136 351 159 Z" opacity="0.2"/></g><g transform="translate(-38,-14) scale(1,1)"><path fill="#ffffff" stroke="none" d="M 344 152 C 344 134.3268864 368.1766208 120 398 120 C 427.8233792 120 452 134.3268864 452 152 C 452 169.6731136 427.8233792 184 398 184 C 368.1766208 184 344 169.6731136 344 152 Z"/></g><g transform="translate(-38,-14) scale(1,1)"><path fill="none" stroke="#000000" d="M 344 152 C 344 134.3268864 368.1766208 120 398 120 C 427.8233792 120 452 134.3268864 452 152 C 452 169.6731136 427.8233792 184 398 184 C 368.1766208 184 344 169.6731136 344 152 Z" stroke-miterlimit="10"/></g><g transform="translate(-38,-14) scale(1,1)"><g><path fill="none" stroke="none"/><text fill="#000000" stroke="none" font-family="Arial" font-size="13px" font-style="normal" font-weight="bold" text-decoration="none" x="364.417724609375" y="157.5">Đăng nhập</text></g></g><g transform="translate(-38,-14) scale(1,1)"><path fill="#C0C0C0" stroke="none" d="M 295 328 C 295 318.6111584 337.3090864 311 389.5 311 C 441.6909136 311 484 318.6111584 484 328 C 484 337.3888416 441.6909136 345 389.5 345 C 337.3090864 345 295 337.3888416 295 328 Z" opacity="0.2"/></g><g transform="translate(-38,-14) scale(1,1)"><path fill="#ffffff" stroke="none" d="M 288 321 C 288 311.6111584 330.3090864 304 382.5 304 C 434.6909136 304 477 311.6111584 477 321 C 477 330.3888416 434.6909136 338 382.5 338 C 330.3090864 338 288 330.3888416 288 321 Z"/></g><g transform="translate(-38,-14) scale(1,1)"><path fill="none" stroke="#000000" d="M 288 321 C 288 311.6111584 330.3090864 304 382.5 304 C 434.6909136 304 477 311.6111584 477 321 C 477 330.3888416 434.6909136 338 382.5 338 C 330.3090864 338 288 330.3888416 288 321 Z" stroke-miterlimit="10"/></g><g transform="translate(-38,-14) scale(1,1)"><g><path fill="none" stroke="none"/><text fill="#000000" stroke="none" font-family="Arial" font-size="13px" font-style="normal" font-weight="bold" text-decoration="none" x="320.093017578125" y="326.5">Quản lý người dùng</text></g></g><g transform="translate(-38,-14) scale(1,1)"><path fill="#C0C0C0" stroke="none" d="M 583 256 C 583 246.6111584 621.2796496 239 668.5 239 C 715.7203504 239 754 246.6111584 754 256 C 754 265.3888416 715.7203504 273 668.5 273 C 621.2796496 273 583 265.3888416 583 256 Z" opacity="0.2"/></g><g transform="translate(-38,-14) scale(1,1)"><path fill="#ffffff" stroke="none" d="M 576 249 C 576 239.6111584 614.2796496 232 661.5 232 C 708.7203504 232 747 239.6111584 747 249 C 747 258.3888416 708.7203504 266 661.5 266 C 614.2796496 266 576 258.3888416 576 249 Z"/></g><g transform="translate(-38,-14) scale(1,1)"><path fill="none" stroke="#000000" d="M 576 249 C 576 239.6111584 614.2796496 232 661.5 232 C 708.7203504 232 747 239.6111584 747 249 C 747 258.3888416 708.7203504 266 661.5 266 C 614.2796496 266 576 258.3888416 576 249 Z" stroke-miterlimit="10"/></g><g transform="translate(-38,-14) scale(1,1)"><g><path fill="none" stroke="none"/><text fill="#000000" stroke="none" font-family="Arial" font-size="13px" font-style="normal" font-weight="bold" text-decoration="none" x="605.59619140625" y="254.5">Thêm người dùng</text></g></g><g transform="translate(-38,-14) scale(1,1)"><path fill="#C0C0C0" stroke="none" d="M 583 328 C 583 318.6111584 617.697928 311 660.5 311 C 703.302072 311 738 318.6111584 738 328 C 738 337.3888416 703.302072 345 660.5 345 C 617.697928 345 583 337.3888416 583 328 Z" opacity="0.2"/></g><g transform="translate(-38,-14) scale(1,1)"><path fill="#ffffff" stroke="none" d="M 576 321 C 576 311.6111584 610.697928 304 653.5 304 C 696.302072 304 731 311.6111584 731 321 C 731 330.3888416 696.302072 338 653.5 338 C 610.697928 338 576 330.3888416 576 321 Z"/></g><g transform="translate(-38,-14) scale(1,1)"><path fill="none" stroke="#000000" d="M 576 321 C 576 311.6111584 610.697928 304 653.5 304 C 696.302072 304 731 311.6111584 731 321 C 731 330.3888416 696.302072 338 653.5 338 C 610.697928 338 576 330.3888416 576 321 Z" stroke-miterlimit="10"/></g><g transform="translate(-38,-14) scale(1,1)"><g><path fill="none" stroke="none"/><text fill="#000000" stroke="none" font-family="Arial" font-size="13px" font-style="normal" font-weight="bold" text-decoration="none" x="603.0107421875" y="326.5">Xóa người dùng</text></g></g><g transform="translate(-38,-14) scale(1,1)"><path fill="#C0C0C0" stroke="none" d="M 583 392 C 583 382.6111584 633.5918176 375 696 375 C 758.4081824 375 809 382.6111584 809 392 C 809 401.3888416 758.4081824 409 696 409 C 633.5918176 409 583 401.3888416 583 392 Z" opacity="0.2"/></g><g transform="translate(-38,-14) scale(1,1)"><path fill="#ffffff" stroke="none" d="M 576 385 C 576 375.6111584 626.5918176 368 689 368 C 751.4081824 368 802 375.6111584 802 385 C 802 394.3888416 751.4081824 402 689 402 C 626.5918176 402 576 394.3888416 576 385 Z"/></g><g transform="translate(-38,-14) scale(1,1)"><path fill="none" stroke="#000000" d="M 576 385 C 576 375.6111584 626.5918176 368 689 368 C 751.4081824 368 802 375.6111584 802 385 C 802 394.3888416 751.4081824 402 689 402 C 626.5918176 402 576 394.3888416 576 385 Z" stroke-miterlimit="10"/></g><g transform="translate(-38,-14) scale(1,1)"><g><path fill="none" stroke="none"/><text fill="#000000" stroke="none" font-family="Arial" font-size="13px" font-style="normal" font-weight="bold" text-decoration="none" x="613.593017578125" y="391">Phân quyền người dùng</text></g></g><g transform="translate(-38,-14) scale(1,1)"><path fill="#C0C0C0" stroke="none" d="M 327 536 C 327 526.6111584 361.4740704 519 404 519 C 446.5259296 519 481 526.6111584 481 536 C 481 545.3888416 446.5259296 553 404 553 C 361.4740704 553 327 545.3888416 327 536 Z" opacity="0.2"/></g><g transform="translate(-38,-14) scale(1,1)"><path fill="#ffffff" stroke="none" d="M 320 529 C 320 519.6111584 354.4740704 512 397 512 C 439.5259296 512 474 519.6111584 474 529 C 474 538.3888416 439.5259296 546 397 546 C 354.4740704 546 320 538.3888416 320 529 Z"/></g><g transform="translate(-38,-14) scale(1,1)"><path fill="none" stroke="#000000" d="M 320 529 C 320 519.6111584 354.4740704 512 397 512 C 439.5259296 512 474 519.6111584 474 529 C 474 538.3888416 439.5259296 546 397 546 C 354.4740704 546 320 538.3888416 320 529 Z" stroke-miterlimit="10"/></g><g transform="translate(-38,-14) scale(1,1)"><g><path fill="none" stroke="none"/><text fill="#000000" stroke="none" font-family="Arial" font-size="13px" font-style="normal" font-weight="bold" text-decoration="none" x="347.1708984375" y="535">Bảo trì hệ thống</text></g></g><g transform="translate(-38,-14) scale(1,1)"><path fill="#C0C0C0" stroke="none" d="M 583 536 C 583 526.6111584 616.1309248 519 657 519 C 697.8690752 519 731 526.6111584 731 536 C 731 545.3888416 697.8690752 553 657 553 C 616.1309248 553 583 545.3888416 583 536 Z" opacity="0.2"/></g><g transform="translate(-38,-14) scale(1,1)"><path fill="#ffffff" stroke="none" d="M 576 529 C 576 519.6111584 609.1309248 512 650 512 C 690.8690752 512 724 519.6111584 724 529 C 724 538.3888416 690.8690752 546 650 546 C 609.1309248 546 576 538.3888416 576 529 Z"/></g><g transform="translate(-38,-14) scale(1,1)"><path fill="none" stroke="#000000" d="M 576 529 C 576 519.6111584 609.1309248 512 650 512 C 690.8690752 512 724 519.6111584 724 529 C 724 538.3888416 690.8690752 546 650 546 C 609.1309248 546 576 538.3888416 576 529 Z" stroke-miterlimit="10"/></g><g transform="translate(-38,-14) scale(1,1)"><g><path fill="none" stroke="none"/><text fill="#000000" stroke="none" font-family="Arial" font-size="13px" font-style="normal" font-weight="bold" text-decoration="none" x="602.3037109375" y="534.5">Sao lưu dữ liệu</text></g></g><g transform="translate(-38,-14) scale(1,1)"><path fill="#C0C0C0" stroke="none" d="M 583 456 C 583 446.6111584 626.4283743999999 439 680 439 C 733.5716256000001 439 777 446.6111584 777 456 C 777 465.3888416 733.5716256000001 473 680 473 C 626.4283743999999 473 583 465.3888416 583 456 Z" opacity="0.2"/></g><g transform="translate(-38,-14) scale(1,1)"><path fill="#ffffff" stroke="none" d="M 576 449 C 576 439.6111584 619.4283743999999 432 673 432 C 726.5716256000001 432 770 439.6111584 770 449 C 770 458.3888416 726.5716256000001 466 673 466 C 619.4283743999999 466 576 458.3888416 576 449 Z"/></g><g transform="translate(-38,-14) scale(1,1)"><path fill="none" stroke="#000000" d="M 576 449 C 576 439.6111584 619.4283743999999 432 673 432 C 726.5716256000001 432 770 439.6111584 770 449 C 770 458.3888416 726.5716256000001 466 673 466 C 619.4283743999999 466 576 458.3888416 576 449 Z" stroke-miterlimit="10"/></g><g transform="translate(-38,-14) scale(1,1)"><g><path fill="none" stroke="none"/><text fill="#000000" stroke="none" font-family="Arial" font-size="13px" font-style="normal" font-weight="bold" text-decoration="none" x="608.7109375" y="455">Khóa quyền truy cập</text></g></g><g transform="translate(-38,-14) scale(1,1)"><path fill="none" stroke="#000000" d="M 748 249 L 880 248 L 880 144 L 453 151" stroke-miterlimit="10" stroke-dasharray="3"/></g><g transform="translate(-38,-14) scale(1,1)"><path fill="none" stroke="#000000" d="M 463.0923103321481 146.62446892827663 L 453 151 L 463.230308765809 155.04237338159294" stroke-miterlimit="10"/></g><g transform="translate(-38,-14) scale(1,1)"><g><path fill="none" stroke="none"/><text fill="#000000" stroke="none" font-family="Arial" font-size="13px" font-style="normal" font-weight="normal" text-decoration="none" x="807.5" y="243">«include»</text></g></g><g transform="translate(-38,-14) scale(1,1)"><path fill="none" stroke="#000000" d="M 732 321 L 880 320 L 880 144 L 453 151" stroke-miterlimit="10" stroke-dasharray="3"/></g><g transform="translate(-38,-14) scale(1,1)"><path fill="none" stroke="#000000" d="M 463.0923103321481 146.62446892827663 L 453 151 L 463.230308765809 155.04237338159294" stroke-miterlimit="10"/></g><g transform="translate(-38,-14) scale(1,1)"><g><path fill="none" stroke="none"/><text fill="#000000" stroke="none" font-family="Arial" font-size="13px" font-style="normal" font-weight="normal" text-decoration="none" x="807.5" y="307">«include»</text></g></g><g transform="translate(-38,-14) scale(1,1)"><path fill="none" stroke="#000000" d="M 803 384 L 880 384 L 880 144 L 453 151" stroke-miterlimit="10" stroke-dasharray="3"/></g><g transform="translate(-38,-14) scale(1,1)"><path fill="none" stroke="#000000" d="M 463.0923103321481 146.62446892827663 L 453 151 L 463.230308765809 155.04237338159294" stroke-miterlimit="10"/></g><g transform="translate(-38,-14) scale(1,1)"><g><path fill="none" stroke="none"/><text fill="#000000" stroke="none" font-family="Arial" font-size="13px" font-style="normal" font-weight="normal" text-decoration="none" x="807.5" y="371">«include»</text></g></g><g transform="translate(-38,-14) scale(1,1)"><path fill="none" stroke="#000000" d="M 771 449 L 880 448 L 880 144 L 453 151" stroke-miterlimit="10" stroke-dasharray="3"/></g><g transform="translate(-38,-14) scale(1,1)"><path fill="none" stroke="#000000" d="M 463.0923103321481 146.62446892827663 L 453 151 L 463.230308765809 155.04237338159294" stroke-miterlimit="10"/></g><g transform="translate(-38,-14) scale(1,1)"><g><path fill="none" stroke="none"/><text fill="#000000" stroke="none" font-family="Arial" font-size="13px" font-style="normal" font-weight="normal" text-decoration="none" x="807.5" y="435">«include»</text></g></g><g transform="translate(-38,-14) scale(1,1)"><path fill="none" stroke="#000000" d="M 725 529 L 880 528 L 880 144 L 453 151" stroke-miterlimit="10" stroke-dasharray="3"/></g><g transform="translate(-38,-14) scale(1,1)"><path fill="none" stroke="#000000" d="M 463.0923103321481 146.62446892827663 L 453 151 L 463.230308765809 155.04237338159294" stroke-miterlimit="10"/></g><g transform="translate(-38,-14) scale(1,1)"><g><path fill="none" stroke="none"/><text fill="#000000" stroke="none" font-family="Arial" font-size="13px" font-style="normal" font-weight="normal" text-decoration="none" x="807.5" y="515">«include»</text></g></g><g transform="translate(-38,-14) scale(1,1)"><path fill="none" stroke="#000000" d="M 575 529 L 475 529" stroke-miterlimit="10" stroke-dasharray="3"/></g><g transform="translate(-38,-14) scale(1,1)"><path fill="none" stroke="#000000" d="M 485.16267485762415 524.790482243984 L 475 529 L 485.16267485762415 533.209517756016" stroke-miterlimit="10"/></g><g transform="translate(-38,-14) scale(1,1)"><g><path fill="none" stroke="none"/><text fill="#000000" stroke="none" font-family="Arial" font-size="13px" font-style="normal" font-weight="normal" text-decoration="none" x="497.5" y="564">«extend»</text></g></g><g transform="translate(-38,-14) scale(1,1)"><path fill="none" stroke="#000000" d="M 591 267 L 452 303" stroke-miterlimit="10" stroke-dasharray="3"/></g><g transform="translate(-38,-14) scale(1,1)"><path fill="none" stroke="#000000" d="M 460.78266204591927 296.3769457659499 L 452 303 L 462.8934864506023 304.52707332847615" stroke-miterlimit="10"/></g><g transform="translate(-38,-14) scale(1,1)"><g><path fill="none" stroke="none"/><text fill="#000000" stroke="none" font-family="Arial" font-size="13px" font-style="normal" font-weight="normal" text-decoration="none" x="500.5" y="267">«extend»</text></g></g><g transform="translate(-38,-14) scale(1,1)"><path fill="none" stroke="#000000" d="M 575 321 L 478 321" stroke-miterlimit="10" stroke-dasharray="3"/></g><g transform="translate(-38,-14) scale(1,1)"><path fill="none" stroke="#000000" d="M 488.16267485762415 316.790482243984 L 478 321 L 488.16267485762415 325.209517756016" stroke-miterlimit="10"/></g><g transform="translate(-38,-14) scale(1,1)"><g><path fill="none" stroke="none"/><text fill="#000000" stroke="none" font-family="Arial" font-size="13px" font-style="normal" font-weight="normal" text-decoration="none" x="487.5" y="314">«extend»</text></g></g><g transform="translate(-38,-14) scale(1,1)"><path fill="none" stroke="#000000" d="M 603 367 L 468 339" stroke-miterlimit="10" stroke-dasharray="3"/></g><g transform="translate(-38,-14) scale(1,1)"><path fill="none" stroke="#000000" d="M 478.8057864647527 336.94209356914183 L 468 339 L 477.09600447758766 345.18568529297323" stroke-miterlimit="10"/></g><g transform="translate(-38,-14) scale(1,1)"><g><path fill="none" stroke="none"/><text fill="#000000" stroke="none" font-family="Arial" font-size="13px" font-style="normal" font-weight="normal" text-decoration="none" x="519.5" y="347">«extend»</text></g></g><g transform="translate(-38,-14) scale(1,1)"><path fill="none" stroke="#000000" d="M 632 431 L 423 339" stroke-miterlimit="10" stroke-dasharray="3"/></g><g transform="translate(-38,-14) scale(1,1)"><path fill="none" stroke="#000000" d="M 433.9973458145736 339.2416299540223 L 423 339 L 430.60543962151155 346.9471559795654" stroke-miterlimit="10"/></g><g transform="translate(-38,-14) scale(1,1)"><g><path fill="none" stroke="none"/><text fill="#000000" stroke="none" font-family="Arial" font-size="13px" font-style="normal" font-weight="normal" text-decoration="none" x="479.5" y="403">«extend»</text></g></g><g transform="translate(-38,-14) scale(1,1)"><path fill="none" stroke="#000000" d="M 137 340 L 287 328" stroke-miterlimit="10"/></g><g transform="translate(-38,-14) scale(1,1)"><path fill="none" stroke="#000000" d="M 137 315 L 345 185" stroke-miterlimit="10"/></g><g transform="translate(-38,-14) scale(1,1)"><path fill="none" stroke="#000000" d="M 137 371 L 367 511" stroke-miterlimit="10"/></g><g transform="translate(-38,-14) scale(1,1)"><path fill="#ffffff" stroke="none" d="M 84.37980930397727 185.68 C 84.37980930397727 180.886167936 88.26565162892273 177 93.05908203125 177 C 97.85251243357727 177 101.73835475852273 180.886167936 101.73835475852273 185.68 C 101.73835475852273 190.47383206400002 97.85251243357727 194.36 93.05908203125 194.36 C 88.26565162892273 194.36 84.37980930397727 190.47383206400002 84.37980930397727 185.68 Z"/></g><g transform="translate(-38,-14) scale(1,1)"><path fill="none" stroke="#000000" d="M 84.37980930397727 185.68 C 84.37980930397727 180.886167936 88.26565162892273 177 93.05908203125 177 C 97.85251243357727 177 101.73835475852273 180.886167936 101.73835475852273 185.68 C 101.73835475852273 190.47383206400002 97.85251243357727 194.36 93.05908203125 194.36 C 88.26565162892273 194.36 84.37980930397727 190.47383206400002 84.37980930397727 185.68 Z" stroke-miterlimit="10"/></g><g transform="translate(-38,-14) scale(1,1)"><path fill="none" stroke="#000000" d="M 93.05908203125 194.36 L 93.05908203125 211.64" stroke-miterlimit="10"/></g><g transform="translate(-38,-14) scale(1,1)"><path fill="none" stroke="#000000" d="M 83.86926384943182 200.84 L 102.24890021306818 200.84" stroke-miterlimit="10"/></g><g transform="translate(-38,-14) scale(1,1)"><path fill="none" stroke="#000000" d="M 93.05908203125 211.64 L 80.29544566761363 229" stroke-miterlimit="10"/></g><g transform="translate(-38,-14) scale(1,1)"><path fill="none" stroke="#000000" d="M 93.05908203125 211.64 L 105.82271839488637 229" stroke-miterlimit="10"/></g><g transform="translate(-38,-14) scale(1,1)"><g><path fill="none" stroke="none"/><text fill="#000000" stroke="none" font-family="Arial" font-size="13px" font-style="normal" font-weight="bold" text-decoration="none" x="68.5" y="248">Thủ thư</text></g></g><g transform="translate(-38,-14) scale(1,1)"><path fill="none" stroke="#000000" d="M 92 303 L 93 256" stroke-miterlimit="10"/></g><g transform="translate(-38,-14) scale(1,1)"><path fill="#FFFFFF" stroke="none" d="M 100.9847741394848 276.4998385833014 L 93 256 L 84.1505130647906 276.1416628157548"/></g><g transform="translate(-38,-14) scale(1,1)"><path fill="none" stroke="#000000" d="M 100.9847741394848 276.4998385833014 L 93 256 L 84.1505130647906 276.1416628157548 L 100.9847741394848 276.4998385833014" stroke-miterlimit="10"/></g></g></svg>