<svg version="1.1" xmlns="http://www.w3.org/2000/svg" xmlns:xlink="http://www.w3.org/1999/xlink" width="915" height="667"><defs/><g><g transform="translate(10,-22) scale(1,1)"><rect fill="#C0C0C0" stroke="none" x="143" y="39" width="759" height="647" opacity="0.2"/></g><g transform="translate(10,-22) scale(1,1)"><rect fill="#ffffff" stroke="none" x="136" y="32" width="759" height="647"/></g><g transform="translate(10,-22) scale(1,1)"><path fill="none" stroke="#000000" d="M 136 32 L 895 32 L 895 679 L 136 679 L 136 32 Z Z" stroke-miterlimit="10"/></g><g transform="translate(10,-22) scale(1,1)"><g><path fill="none" stroke="none"/><text fill="#000000" stroke="none" font-family="Arial" font-size="13px" font-style="normal" font-weight="bold" text-decoration="none" x="423.00830078125" y="50">Nhiệm vụ của actor "Thủ thư"</text></g></g><g transform="translate(10,-22) scale(1,1)"><path fill="#ffffff" stroke="none" d="M 60.37980930397727 289.68 C 60.37980930397727 284.886167936 64.26565162892273 281 69.05908203125 281 C 73.85251243357727 281 77.73835475852273 284.886167936 77.73835475852273 289.68 C 77.73835475852273 294.473832064 73.85251243357727 298.36 69.05908203125 298.36 C 64.26565162892273 298.36 60.37980930397727 294.473832064 60.37980930397727 289.68 Z"/></g><g transform="translate(10,-22) scale(1,1)"><path fill="none" stroke="#000000" d="M 60.37980930397727 289.68 C 60.37980930397727 284.886167936 64.26565162892273 281 69.05908203125 281 C 73.85251243357727 281 77.73835475852273 284.886167936 77.73835475852273 289.68 C 77.73835475852273 294.473832064 73.85251243357727 298.36 69.05908203125 298.36 C 64.26565162892273 298.36 60.37980930397727 294.473832064 60.37980930397727 289.68 Z" stroke-miterlimit="10"/></g><g transform="translate(10,-22) scale(1,1)"><path fill="none" stroke="#000000" d="M 69.05908203125 298.36 L 69.05908203125 315.64" stroke-miterlimit="10"/></g><g transform="translate(10,-22) scale(1,1)"><path fill="none" stroke="#000000" d="M 59.86926384943182 304.84 L 78.24890021306818 304.84" stroke-miterlimit="10"/></g><g transform="translate(10,-22) scale(1,1)"><path fill="none" stroke="#000000" d="M 69.05908203125 315.64 L 56.295445667613635 333" stroke-miterlimit="10"/></g><g transform="translate(10,-22) scale(1,1)"><path fill="none" stroke="#000000" d="M 69.05908203125 315.64 L 81.82271839488637 333" stroke-miterlimit="10"/></g><g transform="translate(10,-22) scale(1,1)"><g><path fill="none" stroke="none"/><text fill="#000000" stroke="none" font-family="Arial" font-size="13px" font-style="normal" font-weight="bold" text-decoration="none" x="44.5" y="352">Thủ thư</text></g></g><g transform="translate(10,-22) scale(1,1)"><path fill="#C0C0C0" stroke="none" d="M 279 328 C 279 318.6111584 307.4299152 311 342.5 311 C 377.5700848 311 406 318.6111584 406 328 C 406 337.3888416 377.5700848 345 342.5 345 C 307.4299152 345 279 337.3888416 279 328 Z" opacity="0.2"/></g><g transform="translate(10,-22) scale(1,1)"><path fill="#ffffff" stroke="none" d="M 272 321 C 272 311.6111584 300.4299152 304 335.5 304 C 370.5700848 304 399 311.6111584 399 321 C 399 330.3888416 370.5700848 338 335.5 338 C 300.4299152 338 272 330.3888416 272 321 Z"/></g><g transform="translate(10,-22) scale(1,1)"><path fill="none" stroke="#000000" d="M 272 321 C 272 311.6111584 300.4299152 304 335.5 304 C 370.5700848 304 399 311.6111584 399 321 C 399 330.3888416 370.5700848 338 335.5 338 C 300.4299152 338 272 330.3888416 272 321 Z" stroke-miterlimit="10"/></g><g transform="translate(10,-22) scale(1,1)"><g><path fill="none" stroke="none"/><text fill="#000000" stroke="none" font-family="Arial" font-size="13px" font-style="normal" font-weight="bold" text-decoration="none" x="295.0400390625" y="326.5">Quản lý sách</text></g></g><g transform="translate(10,-22) scale(1,1)"><path fill="#C0C0C0" stroke="none" d="M 583 304 C 583 294.6111584 607.4004784 287 637.5 287 C 667.5995216 287 692 294.6111584 692 304 C 692 313.3888416 667.5995216 321 637.5 321 C 607.4004784 321 583 313.3888416 583 304 Z" opacity="0.2"/></g><g transform="translate(10,-22) scale(1,1)"><path fill="#ffffff" stroke="none" d="M 576 297 C 576 287.6111584 600.4004784 280 630.5 280 C 660.5995216 280 685 287.6111584 685 297 C 685 306.3888416 660.5995216 314 630.5 314 C 600.4004784 314 576 306.3888416 576 297 Z"/></g><g transform="translate(10,-22) scale(1,1)"><path fill="none" stroke="#000000" d="M 576 297 C 576 287.6111584 600.4004784 280 630.5 280 C 660.5995216 280 685 287.6111584 685 297 C 685 306.3888416 660.5995216 314 630.5 314 C 600.4004784 314 576 306.3888416 576 297 Z" stroke-miterlimit="10"/></g><g transform="translate(10,-22) scale(1,1)"><g><path fill="none" stroke="none"/><text fill="#000000" stroke="none" font-family="Arial" font-size="13px" font-style="normal" font-weight="bold" text-decoration="none" x="596.543212890625" y="302.5">Thêm sách</text></g></g><g transform="translate(10,-22) scale(1,1)"><path fill="#C0C0C0" stroke="none" d="M 583 256 C 583 246.6111584 613.8923488 239 652 239 C 690.1076512 239 721 246.6111584 721 256 C 721 265.3888416 690.1076512 273 652 273 C 613.8923488 273 583 265.3888416 583 256 Z" opacity="0.2"/></g><g transform="translate(10,-22) scale(1,1)"><path fill="#ffffff" stroke="none" d="M 576 249 C 576 239.6111584 606.8923488 232 645 232 C 683.1076512 232 714 239.6111584 714 249 C 714 258.3888416 683.1076512 266 645 266 C 606.8923488 266 576 258.3888416 576 249 Z"/></g><g transform="translate(10,-22) scale(1,1)"><path fill="none" stroke="#000000" d="M 576 249 C 576 239.6111584 606.8923488 232 645 232 C 683.1076512 232 714 239.6111584 714 249 C 714 258.3888416 683.1076512 266 645 266 C 606.8923488 266 576 258.3888416 576 249 Z" stroke-miterlimit="10"/></g><g transform="translate(10,-22) scale(1,1)"><g><path fill="none" stroke="none"/><text fill="#000000" stroke="none" font-family="Arial" font-size="13px" font-style="normal" font-weight="bold" text-decoration="none" x="600.57275390625" y="254.5">Cập nhật sách</text></g></g><g transform="translate(10,-22) scale(1,1)"><path fill="#C0C0C0" stroke="none" d="M 583 208 C 583 198.6111584 605.6096176 191 633.5 191 C 661.3903824 191 684 198.6111584 684 208 C 684 217.3888416 661.3903824 225 633.5 225 C 605.6096176 225 583 217.3888416 583 208 Z" opacity="0.2"/></g><g transform="translate(10,-22) scale(1,1)"><path fill="#ffffff" stroke="none" d="M 576 201 C 576 191.6111584 598.6096176 184 626.5 184 C 654.3903824 184 677 191.6111584 677 201 C 677 210.3888416 654.3903824 218 626.5 218 C 598.6096176 218 576 210.3888416 576 201 Z"/></g><g transform="translate(10,-22) scale(1,1)"><path fill="none" stroke="#000000" d="M 576 201 C 576 191.6111584 598.6096176 184 626.5 184 C 654.3903824 184 677 191.6111584 677 201 C 677 210.3888416 654.3903824 218 626.5 218 C 598.6096176 218 576 210.3888416 576 201 Z" stroke-miterlimit="10"/></g><g transform="translate(10,-22) scale(1,1)"><g><path fill="none" stroke="none"/><text fill="#000000" stroke="none" font-family="Arial" font-size="13px" font-style="normal" font-weight="bold" text-decoration="none" x="597.957763671875" y="206.5">Xóa sách</text></g></g><g transform="translate(10,-22) scale(1,1)"><path fill="#C0C0C0" stroke="none" d="M 439 552 C 439 542.6111584 477.055792 535 524 535 C 570.944208 535 609 542.6111584 609 552 C 609 561.3888416 570.944208 569 524 569 C 477.055792 569 439 561.3888416 439 552 Z" opacity="0.2"/></g><g transform="translate(10,-22) scale(1,1)"><path fill="#ffffff" stroke="none" d="M 432 545 C 432 535.6111584 470.055792 528 517 528 C 563.944208 528 602 535.6111584 602 545 C 602 554.3888416 563.944208 562 517 562 C 470.055792 562 432 554.3888416 432 545 Z"/></g><g transform="translate(10,-22) scale(1,1)"><path fill="none" stroke="#000000" d="M 432 545 C 432 535.6111584 470.055792 528 517 528 C 563.944208 528 602 535.6111584 602 545 C 602 554.3888416 563.944208 562 517 562 C 470.055792 562 432 554.3888416 432 545 Z" stroke-miterlimit="10"/></g><g transform="translate(10,-22) scale(1,1)"><g><path fill="none" stroke="none"/><text fill="#000000" stroke="none" font-family="Arial" font-size="13px" font-style="normal" font-weight="bold" text-decoration="none" x="461.369140625" y="551.5">Giải đáp thắc mắc</text></g></g><g transform="translate(10,-22) scale(1,1)"><path fill="#C0C0C0" stroke="none" d="M 423 640 C 423 630.6111584 470.010096 623 528 623 C 585.989904 623 633 630.6111584 633 640 C 633 649.3888416 585.989904 657 528 657 C 470.010096 657 423 649.3888416 423 640 Z" opacity="0.2"/></g><g transform="translate(10,-22) scale(1,1)"><path fill="#ffffff" stroke="none" d="M 416 633 C 416 623.6111584 463.010096 616 521 616 C 578.989904 616 626 623.6111584 626 633 C 626 642.3888416 578.989904 650 521 650 C 463.010096 650 416 642.3888416 416 633 Z"/></g><g transform="translate(10,-22) scale(1,1)"><path fill="none" stroke="#000000" d="M 416 633 C 416 623.6111584 463.010096 616 521 616 C 578.989904 616 626 623.6111584 626 633 C 626 642.3888416 578.989904 650 521 650 C 463.010096 650 416 642.3888416 416 633 Z" stroke-miterlimit="10"/></g><g transform="translate(10,-22) scale(1,1)"><g><path fill="none" stroke="none"/><text fill="#000000" stroke="none" font-family="Arial" font-size="13px" font-style="normal" font-weight="bold" text-decoration="none" x="451.274169921875" y="639">Phê duyệt các yêu cầu</text></g></g><g transform="translate(10,-22) scale(1,1)"><path fill="#C0C0C0" stroke="none" d="M 383 128 C 383 109.7746016 407.1766208 95 437 95 C 466.8233792 95 491 109.7746016 491 128 C 491 146.2253984 466.8233792 161 437 161 C 407.1766208 161 383 146.2253984 383 128 Z" opacity="0.2"/></g><g transform="translate(10,-22) scale(1,1)"><path fill="#ffffff" stroke="none" d="M 376 121 C 376 102.7746016 400.1766208 88 430 88 C 459.8233792 88 484 102.7746016 484 121 C 484 139.2253984 459.8233792 154 430 154 C 400.1766208 154 376 139.2253984 376 121 Z"/></g><g transform="translate(10,-22) scale(1,1)"><path fill="none" stroke="#000000" d="M 376 121 C 376 102.7746016 400.1766208 88 430 88 C 459.8233792 88 484 102.7746016 484 121 C 484 139.2253984 459.8233792 154 430 154 C 400.1766208 154 376 139.2253984 376 121 Z" stroke-miterlimit="10"/></g><g transform="translate(10,-22) scale(1,1)"><g><path fill="none" stroke="none"/><text fill="#000000" stroke="none" font-family="Arial" font-size="13px" font-style="normal" font-weight="bold" text-decoration="none" x="396.417724609375" y="126.5">Đăng nhập</text></g></g><g transform="translate(10,-22) scale(1,1)"><path fill="#C0C0C0" stroke="none" d="M 591 416 C 591 406.6111584 641.8156752 399 704.5 399 C 767.1843248 399 818 406.6111584 818 416 C 818 425.3888416 767.1843248 433 704.5 433 C 641.8156752 433 591 425.3888416 591 416 Z" opacity="0.2"/></g><g transform="translate(10,-22) scale(1,1)"><path fill="#ffffff" stroke="none" d="M 584 409 C 584 399.6111584 634.8156752 392 697.5 392 C 760.1843248 392 811 399.6111584 811 409 C 811 418.3888416 760.1843248 426 697.5 426 C 634.8156752 426 584 418.3888416 584 409 Z"/></g><g transform="translate(10,-22) scale(1,1)"><path fill="none" stroke="#000000" d="M 584 409 C 584 399.6111584 634.8156752 392 697.5 392 C 760.1843248 392 811 399.6111584 811 409 C 811 418.3888416 760.1843248 426 697.5 426 C 634.8156752 426 584 418.3888416 584 409 Z" stroke-miterlimit="10"/></g><g transform="translate(10,-22) scale(1,1)"><g><path fill="none" stroke="none"/><text fill="#000000" stroke="none" font-family="Arial" font-size="13px" font-style="normal" font-weight="bold" text-decoration="none" x="621.65185546875" y="415">Thống kê sách yêu thích</text></g></g><g transform="translate(10,-22) scale(1,1)"><path fill="none" stroke="#000000" d="M 99 319 L 271 321" stroke-miterlimit="10"/></g><g transform="translate(10,-22) scale(1,1)"><path fill="none" stroke="#000000" d="M 99 334 L 481 527" stroke-miterlimit="10"/></g><g transform="translate(10,-22) scale(1,1)"><path fill="none" stroke="#000000" d="M 99 340 L 495 615" stroke-miterlimit="10"/></g><g transform="translate(10,-22) scale(1,1)"><path fill="#C0C0C0" stroke="none" d="M 583 368 C 583 358.6111584 637.3973968 351 704.5 351 C 771.6026032 351 826 358.6111584 826 368 C 826 377.3888416 771.6026032 385 704.5 385 C 637.3973968 385 583 377.3888416 583 368 Z" opacity="0.2"/></g><g transform="translate(10,-22) scale(1,1)"><path fill="#ffffff" stroke="none" d="M 576 361 C 576 351.6111584 630.3973968 344 697.5 344 C 764.6026032 344 819 351.6111584 819 361 C 819 370.3888416 764.6026032 378 697.5 378 C 630.3973968 378 576 370.3888416 576 361 Z"/></g><g transform="translate(10,-22) scale(1,1)"><path fill="none" stroke="#000000" d="M 576 361 C 576 351.6111584 630.3973968 344 697.5 344 C 764.6026032 344 819 351.6111584 819 361 C 819 370.3888416 764.6026032 378 697.5 378 C 630.3973968 378 576 370.3888416 576 361 Z" stroke-miterlimit="10"/></g><g transform="translate(10,-22) scale(1,1)"><g><path fill="none" stroke="none"/><text fill="#000000" stroke="none" font-family="Arial" font-size="13px" font-style="normal" font-weight="bold" text-decoration="none" x="616.00244140625" y="367">Thống kê lượt mượn sách</text></g></g><g transform="translate(10,-22) scale(1,1)"><path fill="none" stroke="#000000" d="M 575 201 L 512 200 L 512 328 L 400 324" stroke-miterlimit="10" stroke-dasharray="3"/></g><g transform="translate(10,-22) scale(1,1)"><path fill="none" stroke="#000000" d="M 410.3064438849527 320.1558857396898 L 400 324 L 410.00595562208997 328.56955709984743" stroke-miterlimit="10"/></g><g transform="translate(10,-22) scale(1,1)"><g><path fill="none" stroke="none"/><text fill="#000000" stroke="none" font-family="Arial" font-size="13px" font-style="normal" font-weight="normal" text-decoration="none" x="519.5" y="243">«extend»</text></g></g><g transform="translate(10,-22) scale(1,1)"><path fill="none" stroke="#000000" d="M 575 248 L 512 248 L 512 328 L 400 324" stroke-miterlimit="10" stroke-dasharray="3"/></g><g transform="translate(10,-22) scale(1,1)"><path fill="none" stroke="#000000" d="M 410.3064438849527 320.1558857396898 L 400 324 L 410.00595562208997 328.56955709984743" stroke-miterlimit="10"/></g><g transform="translate(10,-22) scale(1,1)"><g><path fill="none" stroke="none"/><text fill="#000000" stroke="none" font-family="Arial" font-size="13px" font-style="normal" font-weight="normal" text-decoration="none" x="519.5" y="195">«extend»</text></g></g><g transform="translate(10,-22) scale(1,1)"><path fill="none" stroke="#000000" d="M 575 297 L 512 296 L 512 328 L 400 324" stroke-miterlimit="10" stroke-dasharray="3"/></g><g transform="translate(10,-22) scale(1,1)"><path fill="none" stroke="#000000" d="M 410.3064438849527 320.1558857396898 L 400 324 L 410.00595562208997 328.56955709984743" stroke-miterlimit="10"/></g><g transform="translate(10,-22) scale(1,1)"><g><path fill="none" stroke="none"/><text fill="#000000" stroke="none" font-family="Arial" font-size="13px" font-style="normal" font-weight="normal" text-decoration="none" x="519.5" y="291">«extend»</text></g></g><g transform="translate(10,-22) scale(1,1)"><path fill="none" stroke="#000000" d="M 575 360 L 512 360 L 512 328 L 400 324" stroke-miterlimit="10" stroke-dasharray="3"/></g><g transform="translate(10,-22) scale(1,1)"><path fill="none" stroke="#000000" d="M 410.3064438849527 320.1558857396898 L 400 324 L 410.00595562208997 328.56955709984743" stroke-miterlimit="10"/></g><g transform="translate(10,-22) scale(1,1)"><g><path fill="none" stroke="none"/><text fill="#000000" stroke="none" font-family="Arial" font-size="13px" font-style="normal" font-weight="normal" text-decoration="none" x="519.5" y="354">«extend»</text></g></g><g transform="translate(10,-22) scale(1,1)"><path fill="none" stroke="#000000" d="M 583 408 L 512 408 L 512 328 L 400 324" stroke-miterlimit="10" stroke-dasharray="3"/></g><g transform="translate(10,-22) scale(1,1)"><path fill="none" stroke="#000000" d="M 410.3064438849527 320.1558857396898 L 400 324 L 410.00595562208997 328.56955709984743" stroke-miterlimit="10"/></g><g transform="translate(10,-22) scale(1,1)"><g><path fill="none" stroke="none"/><text fill="#000000" stroke="none" font-family="Arial" font-size="13px" font-style="normal" font-weight="normal" text-decoration="none" x="519.5" y="397">«extend»</text></g></g><g transform="translate(10,-22) scale(1,1)"><path fill="none" stroke="#000000" d="M 678 201 L 864 200 L 864 120 L 485 121" stroke-miterlimit="10" stroke-dasharray="3"/></g><g transform="translate(10,-22) scale(1,1)"><path fill="none" stroke="#000000" d="M 495.15153261420477 116.76368254462243 L 485 121 L 495.17374635089703 125.18268875098417" stroke-miterlimit="10"/></g><g transform="translate(10,-22) scale(1,1)"><g><path fill="none" stroke="none"/><text fill="#000000" stroke="none" font-family="Arial" font-size="13px" font-style="normal" font-weight="normal" text-decoration="none" x="791.5" y="179">«include»</text></g></g><g transform="translate(10,-22) scale(1,1)"><path fill="none" stroke="#000000" d="M 715 249 L 864 248 L 864 120 L 485 121" stroke-miterlimit="10" stroke-dasharray="3"/></g><g transform="translate(10,-22) scale(1,1)"><path fill="none" stroke="#000000" d="M 495.15153261420477 116.76368254462243 L 485 121 L 495.17374635089703 125.18268875098417" stroke-miterlimit="10"/></g><g transform="translate(10,-22) scale(1,1)"><g><path fill="none" stroke="none"/><text fill="#000000" stroke="none" font-family="Arial" font-size="13px" font-style="normal" font-weight="normal" text-decoration="none" x="791.5" y="227">«include»</text></g></g><g transform="translate(10,-22) scale(1,1)"><path fill="none" stroke="#000000" d="M 686 297 L 864 296 L 864 120 L 485 121" stroke-miterlimit="10" stroke-dasharray="3"/></g><g transform="translate(10,-22) scale(1,1)"><path fill="none" stroke="#000000" d="M 495.15153261420477 116.76368254462243 L 485 121 L 495.17374635089703 125.18268875098417" stroke-miterlimit="10"/></g><g transform="translate(10,-22) scale(1,1)"><g><path fill="none" stroke="none"/><text fill="#000000" stroke="none" font-family="Arial" font-size="13px" font-style="normal" font-weight="normal" text-decoration="none" x="791.5" y="275">«include»</text></g></g><g transform="translate(10,-22) scale(1,1)"><path fill="none" stroke="#000000" d="M 820 360 L 864 360 L 864 120 L 485 121" stroke-miterlimit="10" stroke-dasharray="3"/></g><g transform="translate(10,-22) scale(1,1)"><path fill="none" stroke="#000000" d="M 495.15153261420477 116.76368254462243 L 485 121 L 495.17374635089703 125.18268875098417" stroke-miterlimit="10"/></g><g transform="translate(10,-22) scale(1,1)"><g><path fill="none" stroke="none"/><text fill="#000000" stroke="none" font-family="Arial" font-size="13px" font-style="normal" font-weight="normal" text-decoration="none" x="791.5" y="339">«include»</text></g></g><g transform="translate(10,-22) scale(1,1)"><path fill="none" stroke="#000000" d="M 812 408 L 864 408 L 864 120 L 485 121" stroke-miterlimit="10" stroke-dasharray="3"/></g><g transform="translate(10,-22) scale(1,1)"><path fill="none" stroke="#000000" d="M 495.15153261420477 116.76368254462243 L 485 121 L 495.17374635089703 125.18268875098417" stroke-miterlimit="10"/></g><g transform="translate(10,-22) scale(1,1)"><g><path fill="none" stroke="none"/><text fill="#000000" stroke="none" font-family="Arial" font-size="13px" font-style="normal" font-weight="normal" text-decoration="none" x="791.5" y="387">«include»</text></g></g><g transform="translate(10,-22) scale(1,1)"><path fill="none" stroke="#000000" d="M 603 545 L 864 544 L 864 120 L 485 121" stroke-miterlimit="10" stroke-dasharray="3"/></g><g transform="translate(10,-22) scale(1,1)"><path fill="none" stroke="#000000" d="M 495.15153261420477 116.76368254462243 L 485 121 L 495.17374635089703 125.18268875098417" stroke-miterlimit="10"/></g><g transform="translate(10,-22) scale(1,1)"><g><path fill="none" stroke="none"/><text fill="#000000" stroke="none" font-family="Arial" font-size="13px" font-style="normal" font-weight="normal" text-decoration="none" x="799.5" y="531">«include»</text></g></g><g transform="translate(10,-22) scale(1,1)"><path fill="none" stroke="#000000" d="M 627 633 L 864 632 L 864 120 L 485 121" stroke-miterlimit="10" stroke-dasharray="3"/></g><g transform="translate(10,-22) scale(1,1)"><path fill="none" stroke="#000000" d="M 495.15153261420477 116.76368254462243 L 485 121 L 495.17374635089703 125.18268875098417" stroke-miterlimit="10"/></g><g transform="translate(10,-22) scale(1,1)"><g><path fill="none" stroke="none"/><text fill="#000000" stroke="none" font-family="Arial" font-size="13px" font-style="normal" font-weight="normal" text-decoration="none" x="791.5" y="627">«include»</text></g></g><g transform="translate(10,-22) scale(1,1)"><path fill="#ffffff" stroke="none" d="M 55.34904758522727 169.68 C 55.34904758522727 164.886167936 59.234889910172726 161 64.0283203125 161 C 68.82175071482727 161 72.70759303977273 164.886167936 72.70759303977273 169.68 C 72.70759303977273 174.47383206400002 68.82175071482727 178.36 64.0283203125 178.36 C 59.234889910172726 178.36 55.34904758522727 174.47383206400002 55.34904758522727 169.68 Z"/></g><g transform="translate(10,-22) scale(1,1)"><path fill="none" stroke="#000000" d="M 55.34904758522727 169.68 C 55.34904758522727 164.886167936 59.234889910172726 161 64.0283203125 161 C 68.82175071482727 161 72.70759303977273 164.886167936 72.70759303977273 169.68 C 72.70759303977273 174.47383206400002 68.82175071482727 178.36 64.0283203125 178.36 C 59.234889910172726 178.36 55.34904758522727 174.47383206400002 55.34904758522727 169.68 Z" stroke-miterlimit="10"/></g><g transform="translate(10,-22) scale(1,1)"><path fill="none" stroke="#000000" d="M 64.0283203125 178.36 L 64.0283203125 195.64" stroke-miterlimit="10"/></g><g transform="translate(10,-22) scale(1,1)"><path fill="none" stroke="#000000" d="M 54.83850213068182 184.84 L 73.21813849431818 184.84" stroke-miterlimit="10"/></g><g transform="translate(10,-22) scale(1,1)"><path fill="none" stroke="#000000" d="M 64.0283203125 195.64 L 51.264683948863635 213" stroke-miterlimit="10"/></g><g transform="translate(10,-22) scale(1,1)"><path fill="none" stroke="#000000" d="M 64.0283203125 195.64 L 76.79195667613637 213" stroke-miterlimit="10"/></g><g transform="translate(10,-22) scale(1,1)"><g><path fill="none" stroke="none"/><text fill="#000000" stroke="none" font-family="Arial" font-size="13px" font-style="normal" font-weight="bold" text-decoration="none" x="4.5" y="232">Người có tài khoản</text></g></g><g transform="translate(10,-22) scale(1,1)"><path fill="none" stroke="#000000" d="M 67 279 L 66 240" stroke-miterlimit="10"/></g><g transform="translate(10,-22) scale(1,1)"><path fill="#FFFFFF" stroke="none" d="M 74.93726085241069 260.1028696572397 L 66 240 L 58.1047222980292 260.53447320991614"/></g><g transform="translate(10,-22) scale(1,1)"><path fill="none" stroke="#000000" d="M 74.93726085241069 260.1028696572397 L 66 240 L 58.1047222980292 260.53447320991614 L 74.93726085241069 260.1028696572397" stroke-miterlimit="10"/></g><g transform="translate(10,-22) scale(1,1)"><path fill="none" stroke="#000000" d="M 129 185 L 375 133" stroke-miterlimit="10"/></g><g transform="translate(10,-22) scale(1,1)"><path fill="#C0C0C0" stroke="none" d="M 591 472 C 591 462.6111584 641.8156752 455 704.5 455 C 767.1843248 455 818 462.6111584 818 472 C 818 481.3888416 767.1843248 489 704.5 489 C 641.8156752 489 591 481.3888416 591 472 Z" opacity="0.2"/></g><g transform="translate(10,-22) scale(1,1)"><path fill="#ffffff" stroke="none" d="M 584 465 C 584 455.6111584 634.8156752 448 697.5 448 C 760.1843248 448 811 455.6111584 811 465 C 811 474.3888416 760.1843248 482 697.5 482 C 634.8156752 482 584 474.3888416 584 465 Z"/></g><g transform="translate(10,-22) scale(1,1)"><path fill="none" stroke="#000000" d="M 584 465 C 584 455.6111584 634.8156752 448 697.5 448 C 760.1843248 448 811 455.6111584 811 465 C 811 474.3888416 760.1843248 482 697.5 482 C 634.8156752 482 584 474.3888416 584 465 Z" stroke-miterlimit="10"/></g><g transform="translate(10,-22) scale(1,1)"><g><path fill="none" stroke="none"/><text fill="#000000" stroke="none" font-family="Arial" font-size="13px" font-style="normal" font-weight="bold" text-decoration="none" x="626.390380859375" y="470.5">Lịch sử mượn trả sách</text></g></g><g transform="translate(10,-22) scale(1,1)"><path fill="none" stroke="#000000" d="M 812 464 L 864 464 L 864 120 L 485 121" stroke-miterlimit="10" stroke-dasharray="3"/></g><g transform="translate(10,-22) scale(1,1)"><path fill="none" stroke="#000000" d="M 495.15153261420477 116.76368254462243 L 485 121 L 495.17374635089703 125.18268875098417" stroke-miterlimit="10"/></g><g transform="translate(10,-22) scale(1,1)"><g><path fill="none" stroke="none"/><text fill="#000000" stroke="none" font-family="Arial" font-size="13px" font-style="normal" font-weight="normal" text-decoration="none" x="799.5" y="451">«include»</text></g></g><g transform="translate(10,-22) scale(1,1)"><path fill="none" stroke="#000000" d="M 583 464 L 512 464 L 512 328 L 400 324" stroke-miterlimit="10" stroke-dasharray="3"/></g><g transform="translate(10,-22) scale(1,1)"><path fill="none" stroke="#000000" d="M 410.3064438849527 320.1558857396898 L 400 324 L 410.00595562208997 328.56955709984743" stroke-miterlimit="10"/></g><g transform="translate(10,-22) scale(1,1)"><g><path fill="none" stroke="none"/><text fill="#000000" stroke="none" font-family="Arial" font-size="13px" font-style="normal" font-weight="normal" text-decoration="none" x="519.5" y="458">«extend»</text></g></g></g></svg>